SplineFontDB: 3.2
FontName: AeMRoman8-Italic
FullName: AeMRoman8-Italic
FamilyName: AeMRoman8
Weight: Normal
Copyright: Copyright 2021 Palle Jorgensen.\n\nBased on the Latin Modern fonts, copyright 2003, 2009 B. Jackowski and J. M. Nowacki (on behalf of TeX users groups). This work is released under the GUST Font License --  see http://tug.org/fonts/licenses/GUST-FONT-LICENSE.txt for details.\n\nThe ae-ligature is from the cm-super fonts, copyright 2001, 2002, 2008 Vladimir Volovich released under GPL.
Version: 1
ItalicAngle: -14.0362
UnderlinePosition: -117
UnderlineWidth: 36
Ascent: 806
Descent: 194
InvalidEm: 0
LayerCount: 2
Layer: 0 0 "Back" 1
Layer: 1 0 "Fore" 0
XUID: [1021 259 529409426 7094466]
StyleMap: 0x0001
FSType: 12
OS2Version: 3
OS2_WeightWidthSlopeOnly: 0
OS2_UseTypoMetrics: 0
CreationTime: 1254995853
ModificationTime: 1614844911
PfmFamily: 81
TTFWeight: 400
TTFWidth: 5
LineGap: 0
VLineGap: 0
Panose: 0 0 5 0 0 0 0 0 0 0
OS2TypoAscent: 806
OS2TypoAOffset: 0
OS2TypoDescent: -194
OS2TypoDOffset: 0
OS2TypoLinegap: 200
OS2WinAscent: 1124
OS2WinAOffset: 0
OS2WinDescent: 292
OS2WinDOffset: 0
HheadAscent: 1124
HheadAOffset: 0
HheadDescent: -292
HheadDOffset: 0
OS2SubXSize: 650
OS2SubYSize: 600
OS2SubXOff: -19
OS2SubYOff: 75
OS2SupXSize: 650
OS2SupYSize: 600
OS2SupXOff: 87
OS2SupYOff: 350
OS2StrikeYSize: 36
OS2StrikeYPos: 258
OS2CapHeight: 683
OS2XHeight: 431
OS2Vendor: 'UKWN'
OS2CodePages: 20000193.00000000
OS2UnicodeRanges: 20000007.00000000.00000000.00000000
Lookup: 1 0 0 "'aalt' Access All Alternates lookup 0" { "'aalt' Access All Alternates lookup 0 subtable"  } ['aalt' ('DFLT' <'dflt' > 'cyrl' <'dflt' > 'latn' <'AZE ' 'CRT ' 'MOL ' 'NLD ' 'PLK ' 'ROM ' 'TRK ' 'dflt' > ) ]
Lookup: 3 0 0 "'aalt' Access All Alternates lookup 1" { "'aalt' Access All Alternates lookup 1 subtable"  } ['aalt' ('DFLT' <'dflt' > 'cyrl' <'dflt' > 'latn' <'AZE ' 'CRT ' 'MOL ' 'NLD ' 'PLK ' 'ROM ' 'TRK ' 'dflt' > ) ]

StartChar: acute.dup
Encoding: 65537 -1 1
Width: 549
Flags: MW
HStem: 501 21G<355.5 363> 676 20G<528 542>
LayerCount: 2
Fore
SplineSet
566 665 m 0
 566 656 564 644 544 630 c 2
 375 508 l 2
 368 503 365 501 361 501 c 0
 350 501 342 516 342 522 c 0
 342 529 350 537 353 540 c 2
 507 683 l 1
 507 683 521 696 535 696 c 0
 549 696 566 686 566 665 c 0
EndSplineSet
EndChar

StartChar: AE.dup
Encoding: 65538 -1 2
Width: 947
Flags: MW
HStem: 0 33<250.5 257.5 392.5 400 400 417.5 556 663 663 740> 312 33<381 516 361 524 603 687> 650 33<476.5 975 485 503 701.5 717 717 824>
LayerCount: 2
Fore
SplineSet
952 246 m 0
 952 241 949 233 947 229 c 2
 856 18 l 2
 848 1 847 0 825 0 c 2
 400 0 l 2
 385 0 371 0 371 14 c 0
 371 33 385 33 395 33 c 0
 440 33 447 37 456 72 c 2
 516 312 l 1
 361 312 l 1
 234 106 l 2
 229 98 218 80 218 63 c 0
 218 42 235 35 255 33 c 0
 260 33 272 32 272 19 c 0
 272 0 257 0 253 0 c 0
 248 0 225 3 161 3 c 0
 90 3 89 0 78 0 c 0
 73 0 64 4 64 14 c 0
 64 31 75 32 84 33 c 0
 126 37 160 50 202 119 c 2
 527 649 l 1
 520 650 507 650 503 650 c 2
 484 650 l 2
 469 650 456 650 456 664 c 0
 456 683 468 683 485 683 c 2
 975 683 l 2
 997 683 1005 683 1002 655 c 2
 982 480 l 2
 980 461 978 456 961 456 c 0
 958 456 943 456 943 470 c 2
 943 470 943 481 945 489 c 0
 947 508 949 533 949 551 c 0
 949 615 934 650 824 650 c 2
 717 650 l 2
 686 650 679 650 670 615 c 2
 603 345 l 1
 689 345 l 2
 769 345 789 364 809 441 c 0
 813 457 814 462 830 462 c 0
 834 462 849 462 849 448 c 0
 849 444 847 437 846 433 c 2
 792 216 l 2
 787 196 782 195 770 195 c 0
 767 195 751 195 751 209 c 2
 751 209 751 212 755 224 c 0
 755 228 762 253 762 271 c 0
 762 296 757 312 687 312 c 2
 594 312 l 1
 532 62 l 2
 529 49 529 46 528 35 c 1
 537 33 547 33 556 33 c 2
 663 33 l 2
 817 33 850 101 910 237 c 0
 919 258 919 260 933 260 c 0
 938 260 952 260 952 246 c 0
524 345 m 1
 589 606 l 2
 593 621 593 623 593 627 c 0
 593 635 593 646 565 646 c 1
 381 345 l 1
 524 345 l 1
EndSplineSet
EndChar

StartChar: ae.dup
Encoding: 65539 -1 3
Width: 768
Flags: MW
HStem: -10 28<243 260.5 520 570> 228 28<479 525 525 531 471 525> 413 28<630 670>
VStem: 97 78<67 124 49.5 127.5> 721 44<305 374.5>
LayerCount: 2
Fore
SplineSet
749 100 m 0
 749 85 668 -10 550 -10 c 0
 488 -10 450 25 429 60 c 1
 417 8 413 -10 384 -10 c 0
 367 -10 357 3 357 16 c 0
 357 19 364 48 365 52 c 1
 317 3 277 -10 244 -10 c 0
 170 -10 97 30 97 104 c 0
 97 151 134 227 199 281 c 0
 243 318 308 365 457 415 c 1
 466 441 487 441 490 441 c 0
 502 441 517 435 517 415 c 0
 517 409 514 396 512 390 c 1
 558 423 606 441 654 441 c 0
 717 441 765 407 765 354 c 0
 765 228 573 228 531 228 c 2
 471 228 l 1
 465 200 460 172 460 143 c 0
 460 75 489 18 551 18 c 0
 589 18 658 37 714 109 c 0
 721 119 722 121 729 121 c 0
 736 121 749 108 749 100 c 0
721 354 m 0
 721 395 687 413 653 413 c 0
 597 413 512 369 479 256 c 1
 525 256 l 2
 563 256 721 256 721 354 c 0
391 154 m 2
 448 382 l 1
 255 307 175 167 175 81 c 0
 175 18 240 18 246 18 c 0
 319 18 383 122 391 154 c 2
EndSplineSet
EndChar

StartChar: cedilla.dup
Encoding: 65540 -1 4
Width: 494
Flags: W
LayerCount: 2
Fore
SplineSet
363 -104 m 0
 363 -191 218 -191 155 -191 c 0
 122 -191 113 -191 113 -177 c 0
 113 -163 126 -163 141 -163 c 2
 154 -163 l 2
 184 -163 294 -163 294 -105 c 0
 294 -81 266 -72 243 -70 c 0
 238 -70 225 -69 225 -56 c 0
 225 -51 236 -10 240 6 c 0
 242 14 244 14 268 14 c 2
 280 14 l 2
 296 14 308 14 309 5 c 0
 306 -7 306 -12 297 -46 c 1
 322 -50 363 -65 363 -104 c 0
EndSplineSet
EndChar

StartChar: circumflex.dup
Encoding: 65541 -1 5
Width: 549
Flags: W
LayerCount: 2
Fore
SplineSet
545 534 m 2
 553 524 535 510 527 518 c 2
 429 617 l 1
 281 518 l 2
 269 510 260 524 270 534 c 2
 436 678 l 2
 441 682 448 682 451 678 c 2
 545 534 l 2
EndSplineSet
EndChar

StartChar: dieresis.dup
Encoding: 65542 -1 6
Width: 549
Flags: MW
HStem: 549 100<325.5 337 510.5 522>
LayerCount: 2
Fore
SplineSet
383 608 m 0
 383 575 352 549 322 549 c 0
 301 549 281 564 281 591 c 0
 281 621 310 649 341 649 c 0
 357 649 383 639 383 608 c 0
568 608 m 0
 568 575 537 549 507 549 c 0
 486 549 466 564 466 591 c 0
 466 621 495 649 526 649 c 0
 542 649 568 639 568 608 c 0
EndSplineSet
EndChar

StartChar: Gcedilla
Encoding: 65543 -1 7
Width: 830
Flags: MW
HStem: -292 21G<318 327.5> -146 83<377 385.5> -21 33<386 446.5> 243 33<563 571 571 581 798.5 805.5> 671 33<559.5 626.5 486.5 654.5>
VStem: 156 88<170.5 250 149 368>
LayerCount: 2
Fore
SplineSet
818 262 m 0
 818 250 811 243 800 243 c 0
 770 243 753 242 745 229 c 0
 739 220 731 188 722 151 c 0
 717 132 689 14 685 7 c 0
 682 0 675 0 675 0 c 1
 662 0 642 38 636 55 c 1
 568 -12 470 -21 423 -21 c 0
 267 -21 156 89 156 252 c 0
 156 484 378 704 595 704 c 0
 658 704 717 682 760 617 c 1
 825 693 l 2
 834 704 839 704 843 704 c 0
 853 704 857 697 857 692 c 0
 857 689 855 681 854 678 c 2
 794 437 l 2
 789 417 785 417 772 417 c 0
 766 417 753 417 753 430 c 0
 753 433 757 456 757 482 c 0
 757 585 707 671 602 671 c 0
 517 671 420 622 352 536 c 0
 269 429 244 281 244 219 c 0
 244 79 334 12 438 12 c 0
 497 12 589 34 625 102 c 0
 633 118 656 217 656 223 c 0
 656 236 652 238 627 241 c 2
 581 243 l 1
 571 243 l 2
 555 243 543 243 543 257 c 0
 543 276 557 276 565 276 c 0
 607 276 653 273 697 273 c 0
 791 273 794 276 803 276 c 0
 813 276 818 268 818 262 c 0
430 -110 m 0
 430 -202 334 -292 321 -292 c 0
 315 -292 310 -286 310 -280 c 0
 310 -277 313 -274 317 -271 c 0
 337 -255 387 -213 405 -138 c 1
 399 -142 394 -146 377 -146 c 0
 351 -146 342 -128 342 -113 c 0
 342 -91 361 -63 393 -63 c 0
 417 -63 430 -79 430 -110 c 0
EndSplineSet
EndChar

StartChar: gcedilla
Encoding: 65544 -1 8
Width: 494
Flags: MW
HStem: -204 28<181.5 198 181.5 250.5> 0 28<228.5 266.5> 413 28<333 378 294 383> 506 83<402.5 411> 715 20G<460.5 470>
VStem: 115 73<108 140 95 229>
LayerCount: 2
Fore
SplineSet
446 556 m 0
 446 534 427 506 395 506 c 0
 371 506 358 522 358 553 c 0
 358 645 454 735 467 735 c 0
 473 735 478 729 478 723 c 0
 478 720 475 717 471 714 c 0
 451 698 401 656 383 581 c 1
 389 585 394 589 411 589 c 0
 437 589 446 571 446 556 c 0
511 373 m 2
 401 -66 l 2
 385 -131 314 -204 187 -204 c 0
 125 -204 60 -198 60 -146 c 0
 60 -113 85 -92 110 -92 c 0
 132 -92 146 -106 146 -126 c 1
 146 -126 144 -154 121 -168 c 1
 148 -176 174 -176 189 -176 c 0
 207 -176 251 -176 293 -132 c 0
 322 -100 328 -76 339 -34 c 2
 360 50 l 1
 322 17 285 0 248 0 c 0
 176 0 115 58 115 158 c 0
 115 300 236 441 352 441 c 0
 404 441 432 407 443 387 c 1
 448 407 465 422 485 422 c 0
 502 422 515 410 515 394 c 0
 515 389 512 378 511 373 c 2
383 141 m 2
 424 306 l 2
 426 315 427 317 427 321 c 0
 427 333 414 413 352 413 c 0
 314 413 267 377 236 314 c 0
 214 268 188 162 188 118 c 0
 188 72 207 28 250 28 c 0
 309 28 374 105 383 141 c 2
EndSplineSet
EndChar

StartChar: germandbls.dup
Encoding: 65545 -1 9
Width: 576
Flags: MW
HStem: -204 28<45 78 45 82.5> -166 84 -10 28<364 406.5 364 423> 52 62 398 33<145.5 225 155 219> 676 28<403 496.5>
VStem: -20 86<-123 -120.5> 263 68<40.5 99> 413 54<323 330> 541 68<581.5 601.5>
LayerCount: 2
Fore
SplineSet
558 164 m 0
 558 88 475 -10 371 -10 c 0
 317 -10 263 15 263 66 c 0
 263 104 289 114 303 114 c 0
 306 114 331 112 331 86 c 1
 331 86 331 60 304 51 c 1
 320 21 357 18 371 18 c 0
 442 18 475 134 475 159 c 0
 475 167 475 189 448 219 c 0
 435 234 413 259 413 310 c 0
 413 350 423 376 460 409 c 0
 494 441 500 447 516 490 c 0
 520 501 541 569 541 594 c 0
 541 609 536 676 457 676 c 0
 346 676 330 615 314 530 c 2
 229 81 l 1
 229 81 201 -65 167 -122 c 0
 157 -139 113 -204 52 -204 c 0
 11 -204 -20 -176 -20 -139 c 0
 -20 -102 6 -82 31 -82 c 0
 42 -82 66 -87 66 -116 c 0
 66 -130 58 -156 26 -164 c 1
 28 -167 37 -176 53 -176 c 0
 103 -176 127 -89 152 42 c 2
 219 398 l 1
 154 398 l 2
 137 398 126 398 126 412 c 0
 126 431 137 431 155 431 c 2
 225 431 l 1
 244 529 l 2
 271 669 349 704 457 704 c 0
 558 704 609 650 609 589 c 0
 609 548 580 472 514 405 c 0
 489 380 467 356 467 335 c 0
 467 311 493 284 509 267 c 0
 526 248 558 212 558 164 c 0
EndSplineSet
EndChar

StartChar: hyphen.dup
Encoding: 65546 -1 10
Width: 384
Flags: MW
HStem: 185 61<106.5 330 124 322>
VStem: 88 270<192.5 239>
LayerCount: 2
Fore
SplineSet
350 199 m 0
 346 185 341 185 322 185 c 2
 115 185 l 2
 98 185 88 185 88 200 c 0
 88 205 94 226 96 232 c 0
 99 246 105 246 124 246 c 2
 330 246 l 2
 345 246 358 246 358 232 c 0
 358 226 352 206 350 199 c 0
EndSplineSet
EndChar

StartChar: Kcedilla
Encoding: 65547 -1 11
Width: 824
Flags: MW
HStem: -292 21G<315 324.5> -146 83<374 382.5> 0 33<85.5 138.5 322.5 324.5 545.5 551 741 742> 650 33<255 280.5 483.5 486>
LayerCount: 2
Fore
SplineSet
759 19 m 0
 759 0 744 0 740 0 c 0
 727 0 732 3 648 3 c 0
 613 3 576 0 542 0 c 0
 533 0 527 6 527 14 c 0
 527 32 540 33 551 33 c 0
 571 34 594 38 594 62 c 0
 594 67 594 69 588 81 c 2
 464 363 l 1
 308 241 l 1
 270 90 l 2
 267 76 261 54 261 49 c 0
 261 33 285 33 316 33 c 0
 333 33 345 33 345 19 c 0
 345 0 331 0 325 0 c 0
 320 0 292 3 207 3 c 2
 147 3 l 2
 139 2 95 0 90 0 c 0
 81 0 75 6 75 14 c 0
 75 33 86 33 108 33 c 0
 169 33 175 42 184 76 c 2
 318 613 l 2
 322 627 322 629 322 635 c 0
 322 650 294 650 267 650 c 0
 250 650 238 650 238 664 c 0
 238 683 252 683 258 683 c 2
 316 680 l 1
 435 680 l 2
 453 681 475 683 492 683 c 0
 504 683 508 674 508 669 c 0
 508 650 497 650 475 650 c 0
 413 650 407 641 399 607 c 2
 321 294 l 1
 694 585 l 2
 702 592 703 593 705 594 c 2
 711 600 l 2
 715 603 733 619 733 635 c 0
 733 644 726 649 711 650 c 1
 711 650 695 651 695 664 c 0
 695 683 710 683 716 683 c 0
 748 683 784 680 818 680 c 2
 858 680 l 2
 865 680 894 683 894 683 c 2
 903 683 907 675 907 669 c 0
 907 652 896 651 888 650 c 0
 825 643 751 586 723 564 c 2
 529 413 l 1
 679 72 l 2
 694 37 709 34 741 33 c 0
 745 33 759 32 759 19 c 0
427 -110 m 0
 427 -202 331 -292 318 -292 c 0
 312 -292 307 -286 307 -280 c 0
 307 -277 310 -274 314 -271 c 0
 334 -255 384 -213 402 -138 c 1
 396 -142 391 -146 374 -146 c 0
 348 -146 339 -128 339 -113 c 0
 339 -91 358 -63 390 -63 c 0
 414 -63 427 -79 427 -110 c 0
EndSplineSet
EndChar

StartChar: kcedilla
Encoding: 65548 -1 12
Width: 494
Flags: MW
HStem: -292 21G<150 159.5> -146 83<209 217.5> -10 28<393 421> 317 84 413 28<442 467.5> 650 45
VStem: 313 69<141 173.5> 444 86<355.5 365>
LayerCount: 2
Fore
SplineSet
520 143 m 0
 520 137 504 79 481 42 c 0
 469 24 443 -10 399 -10 c 0
 343 -10 306 33 306 89 c 0
 306 100 308 112 310 119 c 0
 313 134 313 138 313 144 c 0
 313 203 242 221 201 226 c 1
 152 28 l 2
 145 1 129 -10 111 -10 c 0
 90 -10 80 5 80 19 c 0
 80 23 82 30 83 34 c 2
 228 613 l 2
 229 619 232 630 232 635 c 0
 232 644 232 650 184 650 c 0
 170 650 158 650 158 664 c 0
 158 682 169 683 183 684 c 2
 287 693 l 2
 298 694 314 695 314 680 c 0
 314 676 312 669 311 665 c 2
 211 265 l 1
 230 274 251 284 312 349 c 0
 367 408 412 441 461 441 c 0
 509 441 530 407 530 375 c 0
 530 336 503 317 479 317 c 0
 466 317 444 323 444 351 c 0
 444 379 467 396 486 400 c 1
 482 406 475 413 460 413 c 0
 424 413 384 390 328 327 c 0
 321 320 280 276 244 252 c 1
 313 240 382 216 382 145 c 0
 382 136 382 130 378 114 c 0
 374 99 371 80 371 64 c 0
 371 27 385 18 401 18 c 0
 445 18 465 79 479 136 c 0
 483 151 485 156 501 156 c 0
 506 156 520 156 520 143 c 0
262 -110 m 0
 262 -202 166 -292 153 -292 c 0
 147 -292 142 -286 142 -280 c 0
 142 -277 145 -274 149 -271 c 0
 169 -255 219 -213 237 -138 c 1
 231 -142 226 -146 209 -146 c 0
 183 -146 174 -128 174 -113 c 0
 174 -91 193 -63 225 -63 c 0
 249 -63 262 -79 262 -110 c 0
EndSplineSet
EndChar

StartChar: Lcedilla
Encoding: 65549 -1 13
Width: 673
Flags: MW
HStem: -292 21G<239 248.5> -146 83<298 306.5> 0 33<97 103 103 138.5 287 382 382 463.5> 650 33<258.5 262 255 280.5 493.5 494 494 502>
LayerCount: 2
Fore
SplineSet
664 245 m 2
 664 245 664 240 659 227 c 2
 582 18 l 2
 575 1 574 0 551 0 c 2
 103 0 l 2
 87 0 75 0 75 14 c 0
 75 33 86 33 108 33 c 0
 169 33 175 42 184 76 c 2
 318 613 l 2
 322 627 322 629 322 635 c 0
 322 650 294 650 267 650 c 0
 250 650 238 650 238 664 c 0
 238 683 252 683 258 683 c 0
 266 683 282 680 382 680 c 0
 426 680 472 683 515 683 c 0
 524 683 531 679 531 669 c 0
 531 650 520 650 502 650 c 2
 494 650 l 2
 413 650 407 640 398 603 c 2
 263 62 l 2
 260 49 260 46 259 35 c 1
 268 33 278 33 287 33 c 2
 382 33 l 2
 545 33 588 147 622 236 c 0
 630 257 631 260 645 260 c 0
 654 260 664 258 664 245 c 2
351 -110 m 0
 351 -202 255 -292 242 -292 c 0
 236 -292 231 -286 231 -280 c 0
 231 -277 234 -274 238 -271 c 0
 258 -255 308 -213 326 -138 c 1
 320 -142 315 -146 298 -146 c 0
 272 -146 263 -128 263 -113 c 0
 263 -91 282 -63 314 -63 c 0
 338 -63 351 -79 351 -110 c 0
EndSplineSet
EndChar

StartChar: lcedilla
Encoding: 65550 -1 14
Width: 274
Flags: MW
HStem: -292 21G<40 49.5> -146 83<99 107.5> -10 28<179 201.5> 650 45
VStem: 99 66<56 65 56 87>
LayerCount: 2
Fore
SplineSet
300 143 m 0
 300 139 286 81 268 45 c 0
 243 -3 212 -10 191 -10 c 0
 145 -10 99 21 99 82 c 0
 99 92 99 98 104 118 c 2
 228 613 l 2
 229 619 232 630 232 635 c 0
 232 644 232 650 184 650 c 0
 170 650 158 650 158 664 c 0
 158 682 169 683 183 684 c 2
 287 693 l 2
 298 694 314 695 314 680 c 0
 314 676 312 669 311 665 c 2
 168 91 l 2
 165 79 165 68 165 62 c 0
 165 50 165 18 193 18 c 0
 229 18 246 84 260 136 c 0
 264 152 265 156 281 156 c 0
 286 156 300 156 300 143 c 0
152 -110 m 0
 152 -202 56 -292 43 -292 c 0
 37 -292 32 -286 32 -280 c 0
 32 -277 35 -274 39 -271 c 0
 59 -255 109 -213 127 -138 c 1
 121 -142 116 -146 99 -146 c 0
 73 -146 64 -128 64 -113 c 0
 64 -91 83 -63 115 -63 c 0
 139 -63 152 -79 152 -110 c 0
EndSplineSet
EndChar

StartChar: macron.dup
Encoding: 65551 -1 15
Width: 549
Flags: MW
HStem: 581 36<266 574 276 572>
LayerCount: 2
Fore
SplineSet
603 603 m 0
 603 581 590 581 572 581 c 2
 274 581 l 2
 258 581 246 581 246 595 c 0
 246 617 258 617 276 617 c 2
 574 617 l 2
 589 617 603 617 603 603 c 0
EndSplineSet
EndChar

StartChar: Ncedilla
Encoding: 65552 -1 16
Width: 797
Flags: MW
HStem: -292 21G<301 310.5> -146 83<360 368.5> 0 33<91 94 91 105 286 287> 650 33<267 271 678.5 680>
LayerCount: 2
Fore
SplineSet
891 669 m 0
 891 657 885 651 874 650 c 0
 841 648 791 646 774 576 c 2
 635 19 l 2
 631 4 630 0 613 0 c 0
 597 0 596 2 590 18 c 2
 357 603 l 1
 231 98 l 2
 230 95 227 82 227 74 c 0
 227 45 245 34 286 33 c 0
 291 33 304 32 304 19 c 0
 304 0 289 0 285 0 c 0
 275 0 264 3 186 3 c 0
 155 3 120 0 90 0 c 0
 81 0 75 6 75 14 c 0
 75 32 88 33 94 33 c 0
 165 36 181 67 191 108 c 2
 326 644 l 1
 305 650 275 650 267 650 c 0
 250 650 238 650 238 664 c 0
 238 683 250 683 267 683 c 2
 384 683 l 2
 406 683 407 682 415 664 c 2
 624 140 l 1
 735 586 l 1
 735 586 739 601 739 610 c 0
 739 643 711 649 680 650 c 0
 675 650 661 651 661 664 c 0
 661 683 676 683 681 683 c 0
 688 683 704 680 780 680 c 0
 852 680 870 683 876 683 c 0
 886 683 891 675 891 669 c 0
413 -110 m 0
 413 -202 317 -292 304 -292 c 0
 298 -292 293 -286 293 -280 c 0
 293 -277 296 -274 300 -271 c 0
 320 -255 370 -213 388 -138 c 1
 382 -142 377 -146 360 -146 c 0
 334 -146 325 -128 325 -113 c 0
 325 -91 344 -63 376 -63 c 0
 400 -63 413 -79 413 -110 c 0
EndSplineSet
EndChar

StartChar: ncedilla
Encoding: 65553 -1 17
Width: 603
Flags: MW
HStem: -292 21G<204 213.5> -146 83<263 271.5> -10 28<484.5 515.5 484.5 539.5> 413 28<174 203 413.5 450.5>
VStem: 408 64<50 61.5 41 82> 482 66<318 366>
LayerCount: 2
Fore
SplineSet
629 143 m 0
 629 129 587 -10 492 -10 c 0
 441 -10 408 27 408 73 c 0
 408 91 414 107 421 125 c 0
 440 175 482 289 482 347 c 0
 482 385 470 413 431 413 c 0
 396 413 364 399 333 372 c 0
 302 343 271 284 266 268 c 2
 250 203 l 2
 239 161 239 159 234 138 c 2
 212 52 l 2
 203 14 197 -10 165 -10 c 0
 148 -10 135 2 135 18 c 0
 135 21 136 24 138 33 c 2
 211 325 l 2
 215 339 217 355 217 369 c 0
 217 378 217 413 189 413 c 0
 155 413 137 361 122 302 c 0
 116 278 115 275 99 275 c 0
 93 275 80 275 80 288 c 0
 80 293 95 353 113 387 c 0
 133 422 157 441 191 441 c 0
 240 441 277 407 283 361 c 1
 302 384 349 441 434 441 c 0
 489 441 548 419 548 333 c 0
 548 275 507 167 487 114 c 0
 480 94 472 73 472 50 c 0
 472 32 475 18 494 18 c 0
 537 18 570 71 588 135 c 0
 593 152 594 156 610 156 c 0
 615 156 629 156 629 143 c 0
316 -110 m 0
 316 -202 220 -292 207 -292 c 0
 201 -292 196 -286 196 -280 c 0
 196 -277 199 -274 203 -271 c 0
 223 -255 273 -213 291 -138 c 1
 285 -142 280 -146 263 -146 c 0
 237 -146 228 -128 228 -113 c 0
 228 -91 247 -63 279 -63 c 0
 303 -63 316 -79 316 -110 c 0
EndSplineSet
EndChar

StartChar: OE.dup
Encoding: 65554 -1 18
Width: 1057
Flags: MW
HStem: -21 28<374.5 427> 0 33<648 768 768 846.5> 338 33<701 806 693 808> 650 33<793.5 809 809 931> 676 28<515.5 612.5 492 635>
VStem: 168 92<171 352.5 171 357.5>
LayerCount: 2
Fore
SplineSet
1062 246 m 0x70
 1062 241 1059 233 1057 229 c 2
 966 18 l 2
 958 1 957 0 935 0 c 2
 576 0 l 2x40
 560 0 543 0 497 -10 c 0
 454 -19 437 -21 417 -21 c 0
 276 -21 168 85 168 243 c 0
 168 472 385 704 599 704 c 0x8c
 626 704 645 700 678 692 c 0
 717 683 732 683 747 683 c 2
 1085 683 l 2
 1107 683 1115 683 1112 655 c 2
 1092 480 l 2
 1090 461 1088 456 1071 456 c 0
 1068 456 1053 456 1053 470 c 0
 1053 473 1053 478 1054 480 c 0
 1057 506 1059 521 1059 550 c 0
 1059 620 1037 650 931 650 c 2
 809 650 l 2
 778 650 771 650 762 615 c 2
 701 371 l 1
 808 371 l 2
 892 371 917 389 937 463 c 0
 943 484 944 488 959 488 c 0
 964 488 978 488 978 474 c 0
 978 471 977 464 976 461 c 2
 921 241 l 2
 917 226 915 221 900 221 c 0
 894 221 881 221 881 236 c 0
 881 239 883 244 883 248 c 0
 885 252 891 278 891 294 c 0
 891 324 880 338 806 338 c 2
 693 338 l 1
 624 62 l 2
 621 49 621 46 620 35 c 1
 629 33 639 33 648 33 c 2
 768 33 l 2
 925 33 959 98 1019 237 c 0
 1029 258 1029 260 1043 260 c 0
 1048 260 1062 260 1062 246 c 0x70
582 189 m 2
 663 515 l 2
 671 546 676 577 676 609 c 0
 676 635 676 676 594 676 c 0
 437 676 260 470 260 235 c 0
 260 107 321 7 428 7 c 0x8c
 509 7 545 39 582 189 c 2
EndSplineSet
EndChar

StartChar: oe.dup
Encoding: 65555 -1 19
Width: 768
Flags: MW
HStem: -12 28<225.5 271.5> -10 28<521.5 570 521.5 609> 228 28<483 528 528 533 475 528> 413 28<629.5 670> 415 28<334 365.5>
VStem: 113 73<101 131.5 86 221> 418 45 721 44<305 374.5>
LayerCount: 2
Fore
SplineSet
749 100 m 0x73
 749 85 668 -10 550 -10 c 0x71
 488 -10 439 23 413 88 c 1
 358 18 297 -12 246 -12 c 0
 169 -12 113 53 113 149 c 0
 113 293 233 443 354 443 c 0x8c
 395 443 446 422 470 354 c 1
 525 414 596 441 654 441 c 0
 717 441 765 407 765 354 c 0
 765 232 587 228 533 228 c 2
 475 228 l 1
 467 193 463 160 463 138 c 0
 463 71 492 18 551 18 c 0
 589 18 658 37 714 109 c 0
 721 119 722 121 729 121 c 0
 736 121 749 108 749 100 c 0x73
721 354 m 0
 721 395 687 413 653 413 c 0
 606 413 518 378 483 256 c 1
 528 256 l 2
 566 256 721 256 721 354 c 0
418 316 m 0
 418 397 378 415 353 415 c 0
 315 415 267 378 235 310 c 0
 213 263 186 155 186 108 c 0
 186 64 203 16 248 16 c 0x8e
 351 16 418 213 418 316 c 0
EndSplineSet
EndChar

StartChar: Oslash.dup
Encoding: 65556 -1 20
Width: 823
Flags: MW
HStem: -64 21G<138 143.5> -21 28<370 444.5 370 511.5> 676 28<537.5 615 477 626> 727 20G<848.5 854.5>
VStem: 154 76<217 236 197.5 356.5> 761 75<435.5 474.5 317.5 492>
LayerCount: 2
Fore
SplineSet
836 436 m 0
 836 199 617 -21 406 -21 c 0
 334 -21 278 4 240 38 c 1
 161 -47 l 2
 150 -60 147 -64 140 -64 c 0
 136 -64 124 -60 124 -48 c 0
 124 -43 124 -41 141 -24 c 2
 217 60 l 1
 167 120 154 191 154 243 c 0
 154 470 368 704 586 704 c 0
 644 704 703 687 752 644 c 1
 835 735 l 2
 842 743 845 747 852 747 c 0
 857 747 868 742 868 731 c 0
 868 727 868 725 856 713 c 2
 774 622 l 1
 813 573 836 513 836 436 c 0
721 611 m 1
 717 617 673 676 579 676 c 0
 496 676 409 628 352 559 c 0
 252 437 230 265 230 207 c 0
 230 188 230 146 252 99 c 1
 721 611 l 1
761 473 m 0
 761 511 755 550 738 583 c 1
 270 71 l 1
 287 52 328 7 412 7 c 0
 477 7 571 35 652 137 c 0
 729 236 761 398 761 473 c 0
EndSplineSet
EndChar

StartChar: oslash.dup
Encoding: 65557 -1 21
Width: 549
Flags: MW
HStem: -111 21G<82 88> -12 28<255.5 334 255.5 339> 415 28<358.5 390> 522 20G<566 572>
VStem: 121 64<130 145 125 227.5> 470 64<245 288.5 203.5 316.5>
LayerCount: 2
Fore
SplineSet
534 276 m 0
 534 131 404 -12 274 -12 c 0
 223 -12 188 13 188 13 c 1
 109 -89 l 2
 92 -110 91 -111 85 -111 c 0
 79 -111 72 -105 72 -97 c 0
 72 -93 72 -91 89 -68 c 2
 167 31 l 1
 139 60 121 104 121 156 c 0
 121 299 250 443 381 443 c 0
 424 443 455 426 467 418 c 1
 554 530 l 2
 562 541 563 542 569 542 c 0
 575 542 583 538 583 528 c 0
 583 523 583 521 574 511 c 2
 488 399 l 1
 529 357 534 301 534 276 c 0
443 388 m 1
 423 409 400 415 380 415 c 0
 337 415 283 385 245 328 c 0
 199 259 185 161 185 129 c 0
 185 121 185 94 196 70 c 1
 443 388 l 1
470 303 m 0
 470 330 463 352 459 362 c 1
 212 43 l 2
 214 40 236 16 275 16 c 0
 393 16 470 187 470 303 c 0
EndSplineSet
EndChar

StartChar: quoteleft.dup
Encoding: 65558 -1 22
Width: 329
Flags: MW
HStem: 389 111<273 285.5> 674 20G<350 364>
VStem: 212 120<444 466 441.5 514.5>
LayerCount: 2
Fore
SplineSet
332 456 m 0
 332 427 307 389 264 389 c 0
 219 389 212 433 212 455 c 0
 212 574 340 694 360 694 c 0
 368 694 374 686 374 679 c 0
 374 674 371 671 364 665 c 0
 307 621 262 562 244 486 c 1
 253 493 261 500 285 500 c 0
 320 500 332 476 332 456 c 0
EndSplineSet
EndChar

StartChar: quoteright.dup
Encoding: 65559 -1 23
Width: 329
Flags: MW
HStem: 389 21G<234 246.5> 583 111<313.5 325>
VStem: 266 119<616 643>
LayerCount: 2
Fore
SplineSet
385 628 m 0
 385 505 255 389 238 389 c 0
 230 389 224 396 224 404 c 0
 224 410 227 412 236 420 c 0
 320 486 346 561 354 597 c 1
 346 591 337 583 313 583 c 0
 280 583 266 605 266 627 c 0
 266 659 294 694 333 694 c 0
 372 694 385 663 385 628 c 0
EndSplineSet
EndChar

StartChar: Rcedilla
Encoding: 65560 -1 24
Width: 782
Flags: MW
HStem: -292 21G<294 303.5> -146 83<353 361.5> -21 28<639.5 673.5 639.5 695.5> 0 33<98 100 316.5 322.5> 328 28<335 448 327 449> 650 33<268 281.5 430.5 446 446 523>
VStem: 555 80<232.5 248.5 217 262> 668 92<530.5 574.5 493.5 586.5>
LayerCount: 2
Fore
SplineSet
774 96 m 0x27
 774 81 739 -21 652 -21 c 0xed
 598 -21 525 3 525 87 c 0
 525 107 535 147 543 176 c 0
 548 197 555 225 555 240 c 0
 555 284 526 328 448 328 c 2
 327 328 l 1
 263 71 l 2
 259 56 259 49 259 49 c 2
 259 33 283 33 314 33 c 0
 331 33 343 33 343 19 c 0
 343 0 329 0 323 0 c 0
 310 0 279 2 266 3 c 2
 148 3 l 2
 130 2 109 0 91 0 c 0
 82 0 76 6 76 14 c 0
 76 33 87 33 109 33 c 0x1a
 170 33 176 42 185 76 c 2
 319 613 l 2
 323 627 323 629 323 635 c 0
 323 650 295 650 268 650 c 0
 251 650 239 650 239 664 c 0
 239 683 251 683 268 683 c 2
 542 683 l 2
 673 683 760 616 760 533 c 0
 760 454 678 373 549 339 c 1
 609 315 635 273 635 224 c 0
 635 210 627 150 625 132 c 0
 621 102 619 77 619 62 c 0
 619 29 624 7 655 7 c 0
 692 7 721 48 734 91 c 0
 739 106 740 110 755 110 c 0
 759 110 774 110 774 96 c 0x27
668 551 m 0
 668 622 612 650 523 650 c 2
 446 650 l 2
 415 650 408 650 399 615 c 2
 335 356 l 1
 449 356 l 2
 467 356 541 356 598 398 c 0
 651 437 668 510 668 551 c 0
406 -110 m 0
 406 -202 310 -292 297 -292 c 0
 291 -292 286 -286 286 -280 c 0
 286 -277 289 -274 293 -271 c 0
 313 -255 363 -213 381 -138 c 1
 375 -142 370 -146 353 -146 c 0
 327 -146 318 -128 318 -113 c 0
 318 -91 337 -63 369 -63 c 0
 393 -63 406 -79 406 -110 c 0
EndSplineSet
EndChar

StartChar: rcedilla
Encoding: 65561 -1 25
Width: 453
Flags: MW
HStem: -292 21G<67 76.5> -146 83<126 134.5> -10 21G<156.5 179> 413 28<174 203 380 412.5>
VStem: 430 85<351.5 355>
LayerCount: 2
Fore
SplineSet
515 372 m 0
 515 331 484 317 465 317 c 0
 452 317 430 323 430 351 c 0
 430 359 432 385 464 397 c 1
 445 412 417 413 408 413 c 0
 318 413 271 288 268 274 c 2
 207 29 l 2
 203 13 193 -10 165 -10 c 0
 148 -10 135 2 135 18 c 0
 135 21 136 24 138 33 c 2
 211 325 l 2
 215 339 217 355 217 369 c 0
 217 378 217 413 189 413 c 0
 155 413 137 361 122 302 c 0
 116 278 115 275 99 275 c 0
 93 275 80 275 80 288 c 0
 80 293 95 353 113 387 c 0
 133 422 157 441 191 441 c 0
 239 441 272 410 281 372 c 1
 309 409 351 441 409 441 c 0
 443 441 515 430 515 372 c 0
179 -110 m 0
 179 -202 83 -292 70 -292 c 0
 64 -292 59 -286 59 -280 c 0
 59 -277 62 -274 66 -271 c 0
 86 -255 136 -213 154 -138 c 1
 148 -142 143 -146 126 -146 c 0
 100 -146 91 -128 91 -113 c 0
 91 -91 110 -63 142 -63 c 0
 166 -63 179 -79 179 -110 c 0
EndSplineSet
EndChar

StartChar: tilde.dup
Encoding: 65562 -1 26
Width: 549
Flags: MW
HStem: 545 41<470.5 477.5> 612 41<373.5 379>
LayerCount: 2
Fore
SplineSet
599 639 m 0
 599 628 567 603 545 586 c 0
 529 572 493 545 462 545 c 0
 432 545 418 567 408 583 c 0
 391 609 385 612 373 612 c 0
 342 612 287 561 278 553 c 0
 273 548 270 545 264 545 c 0
 257 545 251 551 251 559 c 0
 251 570 284 596 304 612 c 0
 329 632 360 653 387 653 c 0
 417 653 430 634 446 609 c 0
 459 589 465 586 476 586 c 0
 506 586 555 631 568 642 c 0
 577 651 581 653 585 653 c 0
 593 653 599 647 599 639 c 0
EndSplineSet
EndChar

StartChar: A
Encoding: 65 65 27
Width: 797
Flags: MW
HStem: 0 33<254 254.5 507.5 515 714.5 719> 231 33<327 557 327 560 307 557> 694 20G<569 585>
LayerCount: 2
Fore
SplineSet
739 19 m 0
 739 0 725 0 720 0 c 0
 709 0 702 3 615 3 c 0
 578 3 539 0 504 0 c 0
 491 0 488 10 488 14 c 0
 488 33 500 33 515 33 c 0
 576 34 577 56 575 76 c 2
 560 231 l 1
 307 231 l 1
 285 194 285 192 257 147 c 0
 241 120 217 80 217 64 c 0
 217 43 233 35 254 33 c 0
 260 33 272 32 272 19 c 0
 272 0 257 0 252 0 c 0
 247 0 224 3 160 3 c 0
 93 3 86 0 78 0 c 0
 72 0 64 4 64 14 c 0
 64 31 74 32 86 33 c 0
 118 36 157 46 200 118 c 2
 543 693 l 2
 554 711 562 714 576 714 c 0
 594 714 597 709 599 687 c 2
 659 66 l 2
 661 42 662 33 711 33 c 0
 727 33 739 33 739 19 c 0
557 264 m 1
 525 594 l 1
 327 264 l 1
 557 264 l 1
EndSplineSet
Position2: "'cpsp' Capital Spacing lookup 0 subtable" dx=7 dy=0 dh=14 dv=0
EndChar

StartChar: a
Encoding: 97 97 28
Width: 549
Flags: MW
HStem: -10 28<214.5 264.5 442 469.5> 413 28<328 363 283 373.5>
VStem: 103 73<102 132.5 89 221.5>
LayerCount: 2
Fore
SplineSet
565 143 m 1
 565 143 552 83 531 43 c 0
 514 12 490 -10 454 -10 c 0
 406 -10 373 21 364 58 c 1
 343 34 294 -10 235 -10 c 0
 160 -10 103 54 103 150 c 0
 103 293 224 441 342 441 c 0
 384 441 413 420 434 385 c 1
 439 413 461 422 475 422 c 0
 492 422 505 410 505 394 c 0
 505 389 502 378 501 373 c 2
 431 91 l 2
 428 79 428 69 428 62 c 0
 428 50 428 18 456 18 c 0
 483 18 504 51 523 128 c 0
 529 153 529 156 546 156 c 0
 551 156 565 156 565 143 c 1
371 133 m 2
 413 304 l 1
 416 318 l 2
 416 328 405 413 342 413 c 0
 314 413 270 393 230 320 c 0
 205 274 176 156 176 109 c 0
 176 69 191 18 238 18 c 0
 297 18 363 98 371 133 c 2
EndSplineSet
EndChar

StartChar: ampersand
Encoding: 38 38 29
Width: 823
Flags: MW
HStem: -21 28<360 551 360 559.5> 304 28<337.5 373 334.5 381> 434 28<370 393> 521 84 687 28<395.5 458.5>
VStem: 132 80<128 185 108.5 207.5> 416 38<387.5 412 376.5 414> 519 38<308.5 341.5 308.5 351.5> 742 39<266 324.5>
LayerCount: 2
Fore
SplineSet
781 304 m 0
 781 211 709 -21 410 -21 c 0
 230 -21 132 76 132 180 c 0
 132 235 166 324 229 387 c 1
 218 414 216 447 216 455 c 0
 216 579 326 715 440 715 c 0
 509 715 556 665 556 598 c 0
 556 586 556 521 503 521 c 0
 490 521 468 527 468 555 c 0
 468 570 478 601 518 604 c 1
 516 663 477 687 440 687 c 0
 351 687 285 549 280 428 c 1
 317 452 355 462 384 462 c 0
 435 462 454 426 454 398 c 0
 454 355 411 304 351 304 c 0
 324 304 290 313 262 338 c 1
 232 280 212 206 212 164 c 0
 212 53 308 7 412 7 c 0
 690 7 742 231 742 301 c 0
 742 348 727 391 686 443 c 1
 601 393 557 368 557 315 c 0
 557 302 559 298 563 291 c 1
 575 322 600 324 609 324 c 0
 630 324 644 309 644 290 c 0
 644 275 630 242 593 242 c 0
 552 242 519 272 519 316 c 0
 519 387 588 428 651 464 c 0
 693 490 755 526 794 612 c 1
 775 615 764 629 764 645 c 0
 764 670 786 694 813 694 c 0
 830 694 848 685 848 661 c 0
 848 644 823 541 720 466 c 1
 754 419 781 369 781 304 c 0
416 403 m 0
 416 425 402 434 384 434 c 0
 356 434 324 418 289 377 c 1
 296 359 317 332 352 332 c 0
 394 332 416 372 416 403 c 0
EndSplineSet
Substitution2: "'lnum' Lining Figures lookup 5 subtable" ampersand
Substitution2: "'onum' Oldstyle Figures lookup 4 subtable" ampersand
Substitution2: "'aalt' Access All Alternates lookup 0 subtable" ampersand
EndChar

StartChar: asciicircum
Encoding: 94 94 30
Width: 556
Flags: MW
HStem: 562 21G<147 147 690 690>
LayerCount: 2
Fore
SplineSet
707 584 m 1
 690 562 l 1
 448 685 l 1
 147 562 l 1
 141 584 l 1
 464 744 l 1
 707 584 l 1
EndSplineSet
EndChar

StartChar: asciitilde
Encoding: 126 126 31
Width: 556
Flags: MW
HStem: 193 43<427 431.5> 264 43<248.5 253>
LayerCount: 2
Fore
SplineSet
627 290 m 1
 562 246 l 2
 542 232 519 221 497 211 c 0
 472 201 444 193 419 193 c 0
 379 193 352 210 328 227 c 0
 298 247 273 264 233 264 c 0
 182 264 121 234 62 193 c 1
 52 210 l 1
 117 254 l 2
 138 268 161 279 183 289 c 0
 208 299 236 307 261 307 c 0
 301 307 327 290 352 273 c 0
 382 253 407 236 447 236 c 0
 498 236 558 266 618 307 c 1
 627 290 l 1
EndSplineSet
EndChar

StartChar: asterisk
Encoding: 42 42 32
Width: 549
Flags: MW
HStem: 319 21G<345 365.5> 730 20G<449.5 483>
VStem: 201 412<427.5 637.5>
LayerCount: 2
Fore
SplineSet
567 448 m 0
 567 429 547 413 532 413 c 0
 528 413 522 413 511 423 c 2
 415 509 l 1
 389 355 l 2
 386 338 377 319 354 319 c 0
 336 319 331 333 331 339 c 0
 331 344 334 351 335 355 c 2
 387 509 l 1
 240 419 l 2
 236 416 230 413 223 413 c 0
 212 413 201 420 201 435 c 0
 201 455 216 461 228 467 c 2
 380 535 l 1
 263 600 l 2
 251 606 247 612 247 621 c 0
 247 638 266 656 282 656 c 0
 286 656 292 656 303 646 c 2
 399 560 l 1
 425 714 l 2
 428 733 439 750 460 750 c 0
 474 750 483 742 483 730 c 2
 483 730 483 726 478 713 c 2
 427 559 l 1
 574 650 l 2
 583 656 589 656 592 656 c 0
 609 656 613 641 613 634 c 0
 613 613 595 605 586 601 c 2
 434 534 l 1
 550 470 l 2
 567 461 567 454 567 448 c 0
EndSplineSet
EndChar

StartChar: at
Encoding: 64 64 33
Width: 823
Flags: MW
HStem: -10 28<343.5 452.5 343.5 493> 127 28<416 464 416 477.5 670 719.5> 539 28<503 579.5 485 587> 676 28<487.5 649>
VStem: 157 38<190.5 362 190.5 369.5> 293 67<248.5 338.5 248.5 360.5> 800 37<421 506.5>
LayerCount: 2
Fore
SplineSet
757 72 m 0
 757 67 753 63 749 61 c 0
 708 42 569 -10 417 -10 c 0
 240 -10 157 120 157 256 c 0
 157 483 369 704 583 704 c 0
 723 704 837 606 837 437 c 0
 837 378 798 127 668 127 c 0
 628 127 592 149 588 191 c 1
 565 169 510 127 445 127 c 0
 352 127 293 199 293 290 c 0
 293 431 422 567 548 567 c 0
 611 567 654 529 672 483 c 1
 696 483 l 2
 713 483 724 483 724 470 c 2
 722 457 l 1
 657 200 l 1
 655 180 l 2
 655 155 667 155 673 155 c 0
 766 155 800 402 800 440 c 0
 800 573 716 676 582 676 c 0
 393 676 195 470 195 254 c 0
 195 127 270 18 417 18 c 0
 488 18 591 33 695 77 c 0
 710 84 712 84 729 84 c 0
 747 84 757 84 757 72 c 0
644 425 m 2
 645 428 646 438 646 438 c 2
 646 457 625 539 549 539 c 0
 457 539 360 400 360 277 c 0
 360 220 385 155 447 155 c 0
 481 155 517 173 546 197 c 0
 572 218 598 243 606 276 c 2
 644 425 l 2
EndSplineSet
EndChar

StartChar: B
Encoding: 66 66 34
Width: 755
Flags: MW
HStem: 0 33<100 106 106 141.5 283 428 428 451> 341 28<336 483 483 518 329 483> 650 33<270 283.5 428.5 444 444 580>
VStem: 632 89<176.5 233.5>
LayerCount: 2
Fore
SplineSet
721 217 m 0
 721 114 598 0 451 0 c 2
 106 0 l 2
 90 0 78 0 78 14 c 0
 78 33 89 33 111 33 c 0
 172 33 178 42 187 76 c 2
 321 613 l 2
 325 627 325 629 325 635 c 0
 325 650 297 650 270 650 c 0
 253 650 241 650 241 664 c 0
 241 683 253 683 270 683 c 2
 594 683 l 2
 704 683 776 624 776 545 c 0
 776 452 675 377 572 357 c 1
 660 347 721 291 721 217 c 0
690 547 m 0
 690 559 688 650 580 650 c 2
 444 650 l 2
 413 650 406 650 397 615 c 2
 336 369 l 1
 483 369 l 2
 605 369 690 466 690 547 c 0
632 226 m 0
 632 241 627 341 518 341 c 2
 329 341 l 1
 259 62 l 2
 256 49 256 46 255 35 c 1
 264 33 274 33 283 33 c 2
 428 33 l 2
 540 33 632 127 632 226 c 0
EndSplineSet
Position2: "'cpsp' Capital Spacing lookup 0 subtable" dx=7 dy=0 dh=14 dv=0
EndChar

StartChar: b
Encoding: 98 98 35
Width: 494
Flags: MW
HStem: -10 28<224.5 266.5 224.5 305> 413 28<333.5 367> 650 45
VStem: 120 62<100.5 135.5 92 165> 413 73<294.5 335 206.5 355>
LayerCount: 2
Fore
SplineSet
486 281 m 0
 486 132 363 -10 247 -10 c 0
 172 -10 120 54 120 147 c 0
 120 183 129 220 130 223 c 2
 228 613 l 2
 229 619 232 630 232 635 c 0
 232 644 232 650 184 650 c 0
 170 650 158 650 158 664 c 0
 158 682 169 683 183 684 c 2
 287 693 l 2
 298 694 314 695 314 680 c 0
 314 676 312 669 311 665 c 2
 242 390 l 1
 270 414 308 441 354 441 c 0
 420 441 486 389 486 281 c 0
364 119 m 0
 384 161 413 268 413 321 c 0
 413 389 382 413 352 413 c 0
 315 413 282 383 270 373 c 0
 247 351 226 327 219 296 c 0
 193 198 182 155 182 116 c 0
 182 68 201 18 248 18 c 0
 285 18 332 53 364 119 c 0
EndSplineSet
EndChar

StartChar: backslash
Encoding: 92 92 36
Width: 531
Flags: MW
HStem: 730 20G<263.5 278>
LayerCount: 2
Fore
SplineSet
414 -227 m 2
 411 -240 399 -250 386 -250 c 0
 370 -250 369 -238 367 -226 c 2
 241 709 l 2
 239 721 241 727 241 727 c 2
 244 740 257 750 270 750 c 0
 286 750 287 738 289 726 c 2
 414 -209 l 2
 416 -221 414 -227 414 -227 c 2
EndSplineSet
EndChar

StartChar: bar
Encoding: 124 124 37
Width: 295
Flags: MW
HStem: 730 20G<323.5 346.5>
LayerCount: 2
Fore
SplineSet
117 -214 m 2
 113 -228 108 -250 85 -250 c 0
 62 -250 67 -228 71 -214 c 2
 303 714 l 2
 306 728 312 750 335 750 c 0
 358 750 352 728 349 714 c 2
 117 -214 l 2
EndSplineSet
EndChar

StartChar: braceleft
Encoding: 123 123 38
Width: 531
Flags: MW
HStem: -250 28<359 387.5>
LayerCount: 2
Fore
SplineSet
396 -236 m 0
 393 -250 383 -250 370 -250 c 0
 348 -250 275 -246 230 -212 c 0
 184 -176 195 -132 203 -102 c 2
 254 102 l 2
 261 133 263 139 263 151 c 0
 262 176 247 230 149 236 c 0
 144 236 134 237 138 250 c 0
 141 263 149 263 161 264 c 0
 205 267 240 281 266 299 c 0
 310 329 318 361 326 390 c 2
 384 624 l 2
 404 701 512 750 620 750 c 0
 633 750 643 750 639 736 c 0
 636 723 628 723 616 722 c 0
 575 720 536 708 500 681 c 0
 467 655 463 639 440 546 c 2
 402 396 l 2
 390 348 375 286 251 250 c 1
 306 231 320 208 327 197 c 0
 345 167 341 153 318 58 c 2
 280 -92 l 2
 271 -128 271 -130 271 -139 c 0
 273 -180 303 -217 385 -222 c 0
 390 -222 399 -223 396 -236 c 0
EndSplineSet
EndChar

StartChar: braceright
Encoding: 125 125 39
Width: 531
Flags: MW
HStem: 722 28<268.5 303>
LayerCount: 2
Fore
SplineSet
518 250 m 0
 514 237 506 237 494 236 c 0
 478 235 434 231 390 201 c 0
 346 171 338 139 331 110 c 2
 272 -124 l 2
 252 -202 143 -250 37 -250 c 0
 24 -250 13 -250 16 -236 c 0
 19 -223 27 -223 40 -222 c 0
 94 -219 159 -195 190 -140 c 0
 196 -129 209 -78 217 -46 c 2
 254 104 l 2
 265 149 282 216 406 250 c 1
 357 266 318 296 317 345 c 0
 318 359 331 410 339 442 c 2
 376 592 l 2
 385 628 386 630 385 639 c 0
 383 691 339 718 271 722 c 0
 266 722 256 723 259 736 c 0
 263 750 274 750 287 750 c 0
 319 750 386 743 425 712 c 0
 472 676 461 633 454 602 c 2
 395 368 l 2
 389 341 396 270 506 264 c 0
 511 264 521 263 518 250 c 0
EndSplineSet
EndChar

StartChar: bracketleft
Encoding: 91 91 40
Width: 329
Flags: MW
HStem: -250 46<101.5 196 136 192> 704 46<362 430 362 362>
LayerCount: 2
Fore
SplineSet
463 736 m 0
 463 732 459 715 456 710 c 0
 452 704 447 704 430 704 c 2
 362 704 l 1
 136 -204 l 1
 196 -204 l 2
 211 -204 224 -204 224 -218 c 2
 224 -218 221 -238 217 -243 c 0
 213 -250 207 -250 192 -250 c 2
 109 -250 l 2
 94 -250 81 -250 81 -236 c 0
 81 -232 83 -225 84 -221 c 2
 322 730 l 2
 327 750 329 750 352 750 c 2
 435 750 l 2
 450 750 463 750 463 736 c 0
EndSplineSet
EndChar

StartChar: bracketright
Encoding: 93 93 41
Width: 329
Flags: MW
HStem: -250 46<9.5 90 22 90 22 100> 704 46<248.5 343 260 317>
LayerCount: 2
Fore
SplineSet
368 721 m 2
 130 -230 l 2
 125 -250 123 -250 100 -250 c 2
 17 -250 l 2
 2 -250 -11 -250 -11 -236 c 0
 -11 -232 -7 -215 -4 -210 c 0
 0 -204 5 -204 22 -204 c 2
 90 -204 l 1
 317 704 l 1
 256 704 l 2
 241 704 228 704 228 718 c 2
 228 718 231 738 235 743 c 0
 239 750 245 750 260 750 c 2
 343 750 l 2
 358 750 371 750 371 736 c 0
 371 732 369 725 368 721 c 2
EndSplineSet
EndChar

StartChar: C
Encoding: 67 67 42
Width: 768
Flags: MW
HStem: -21 33<385.5 475.5 385.5 478.5> 671 33<559.5 626.5 486.5 654.5>
VStem: 156 88<167.5 249 145 368>
LayerCount: 2
Fore
SplineSet
794 437 m 2
 789 417 785 417 772 417 c 0
 766 417 753 417 753 430 c 0
 753 433 757 456 757 482 c 0
 757 585 707 671 602 671 c 0
 517 671 420 622 352 536 c 0
 268 428 244 280 244 218 c 0
 244 72 339 12 432 12 c 0
 519 12 655 74 707 243 c 0
 709 253 718 253 725 253 c 0
 734 253 744 253 744 240 c 0
 744 235 734 193 704 145 c 0
 645 52 536 -21 421 -21 c 0
 273 -21 156 83 156 252 c 0
 156 484 378 704 595 704 c 0
 658 704 717 682 760 617 c 1
 825 693 l 2
 834 704 839 704 843 704 c 0
 853 704 857 697 857 692 c 0
 857 689 855 681 854 678 c 2
 794 437 l 2
EndSplineSet
Position2: "'cpsp' Capital Spacing lookup 0 subtable" dx=7 dy=0 dh=14 dv=0
EndChar

StartChar: c
Encoding: 99 99 43
Width: 494
Flags: MW
HStem: -10 28<251.5 305.5 251.5 349> 413 28<363 386>
VStem: 115 75<108 148.5 90 232.5> 410 87<320 380>
LayerCount: 2
Fore
SplineSet
502 100 m 0
 502 86 421 -10 277 -10 c 0
 181 -10 115 57 115 159 c 0
 115 306 250 441 380 441 c 0
 450 441 497 405 497 355 c 0
 497 315 471 295 446 295 c 0
 421 295 410 312 410 328 c 0
 410 331 410 368 453 377 c 1
 435 411 392 413 380 413 c 0
 346 413 284 393 238 309 c 0
 213 263 190 173 190 124 c 0
 190 56 225 18 278 18 c 0
 333 18 412 43 466 109 c 0
 475 119 476 121 482 121 c 0
 489 121 502 108 502 100 c 0
EndSplineSet
EndChar

StartChar: colon
Encoding: 58 58 44
Width: 329
Flags: MW
HStem: 0 111<172.5 183> 320 111<252.5 263>
VStem: 121 113<47.5 64> 201 113<367.5 384>
LayerCount: 2
Fore
SplineSet
314 386 m 0xd0
 314 349 279 320 247 320 c 0
 223 320 201 335 201 365 c 0
 201 403 237 431 268 431 c 0
 291 431 314 416 314 386 c 0xd0
234 66 m 0
 234 29 199 0 167 0 c 0
 143 0 121 15 121 45 c 0xa0
 121 83 157 111 188 111 c 0
 211 111 234 96 234 66 c 0
EndSplineSet
EndChar

StartChar: comma
Encoding: 44 44 45
Width: 329
Flags: MW
HStem: -194 21G<88 101> 0 111<166.5 178>
VStem: 120 117<34 58.5>
LayerCount: 2
Fore
SplineSet
237 48 m 0
 237 -75 110 -194 92 -194 c 0
 84 -194 78 -186 78 -179 c 0
 78 -174 81 -171 87 -167 c 0
 113 -145 180 -89 204 11 c 1
 196 5 189 0 167 0 c 0
 132 0 120 24 120 44 c 0
 120 73 145 111 188 111 c 0
 220 111 237 89 237 48 c 0
EndSplineSet
EndChar

StartChar: D
Encoding: 68 68 46
Width: 810
Flags: MW
HStem: 0 33<98 104 104 139.5 285 407 407 423> 650 33<268 281.5 430.5 446 446 561>
VStem: 739 83<437.5 505 319 529.5>
LayerCount: 2
Fore
SplineSet
822 432 m 0
 822 206 621 0 423 0 c 2
 104 0 l 2
 88 0 76 0 76 14 c 0
 76 33 87 33 109 33 c 0
 170 33 176 42 185 76 c 2
 319 613 l 2
 323 627 323 629 323 635 c 0
 323 650 295 650 268 650 c 0
 251 650 239 650 239 664 c 0
 239 683 251 683 268 683 c 2
 593 683 l 2
 732 683 822 578 822 432 c 0
739 466 m 0
 739 593 658 650 561 650 c 2
 446 650 l 2
 415 650 408 650 399 615 c 2
 261 62 l 2
 258 49 258 46 257 35 c 1
 266 33 276 33 285 33 c 2
 407 33 l 2
 506 33 595 87 650 168 c 0
 713 260 739 409 739 466 c 0
EndSplineSet
Position2: "'cpsp' Capital Spacing lookup 0 subtable" dx=7 dy=0 dh=14 dv=0
EndChar

StartChar: d
Encoding: 100 100 47
Width: 549
Flags: MW
HStem: -10 28<224.5 274.5 452 479.5> 413 28<338 373 293 383.5> 650 45
VStem: 113 73<102 132.5 89 221.5>
LayerCount: 2
Fore
SplineSet
575 143 m 1
 575 143 562 83 541 43 c 0
 524 12 500 -10 464 -10 c 0
 416 -10 383 21 374 58 c 1
 353 34 304 -10 245 -10 c 0
 170 -10 113 54 113 150 c 0
 113 293 234 441 352 441 c 0
 394 441 423 420 444 385 c 1
 501 613 l 2
 502 619 505 630 505 635 c 0
 505 644 505 650 457 650 c 0
 443 650 431 650 431 664 c 0
 431 682 442 683 456 684 c 2
 560 693 l 2
 571 694 587 695 587 680 c 0
 587 676 585 669 584 665 c 2
 441 91 l 2
 438 79 438 68 438 62 c 0
 438 50 438 18 466 18 c 0
 493 18 514 51 533 128 c 0
 539 153 539 156 556 156 c 0
 561 156 575 156 575 143 c 1
381 133 m 2
 423 304 l 1
 426 318 l 2
 426 328 415 413 352 413 c 0
 324 413 280 393 240 320 c 0
 215 274 186 156 186 109 c 0
 186 69 201 18 248 18 c 0
 307 18 373 98 381 133 c 2
EndSplineSet
EndChar

StartChar: dollar
Encoding: 36 36 48
Width: 531
Flags: MW
HStem: -56 21G<235 268 235 235> -8 32 137 94<138 157.5> 477 94<550 568.5 550 573.5> 730 20G<436 469 469 469>
LayerCount: 2
Fore
SplineSet
525 228 m 0
 515 109 403 -1 279 -9 c 1
 268 -56 l 1
 235 -56 l 1
 246 -9 l 1
 138 -3 91 64 98 147 c 0
 100 166 105 231 161 231 c 0
 176 231 202 222 200 190 c 0
 197 161 173 137 142 137 c 0
 134 137 132 137 129 138 c 1
 128 54 194 26 255 23 c 1
 328 318 l 1
 276 331 250 338 219 372 c 0
 189 405 179 446 182 484 c 0
 190 577 276 683 412 702 c 0
 424 704 425 705 429 720 c 2
 436 750 l 1
 469 750 l 1
 458 703 l 1
 547 699 615 653 607 556 c 0
 606 539 601 477 546 477 c 0
 534 477 504 483 507 518 c 0
 510 547 535 571 565 571 c 0
 572 571 574 571 576 570 c 1
 576 583 574 621 537 646 c 0
 530 650 503 668 450 671 c 1
 383 404 l 1
 420 395 458 386 489 350 c 0
 526 306 527 258 525 228 c 0
417 670 m 1
 320 659 251 589 245 522 c 0
 239 440 315 420 351 411 c 1
 417 670 l 1
463 190 m 0
 471 286 381 305 360 310 c 1
 288 24 l 1
 382 35 457 116 463 190 c 0
EndSplineSet
Substitution2: "'onum' Oldstyle Figures lookup 4 subtable" dollar.oldstyle
Substitution2: "'aalt' Access All Alternates lookup 0 subtable" dollar.oldstyle
EndChar

StartChar: E
Encoding: 69 69 49
Width: 727
Flags: MW
HStem: 0 33<97 103 103 138.5 287 429 429 510> 337 33<340 429 332 430> 647 33<266 281.5 431.5 447 447 587>
LayerCount: 2
Fore
SplineSet
732 246 m 0
 732 241 729 233 727 229 c 2
 636 18 l 2
 628 1 627 0 605 0 c 2
 103 0 l 2
 87 0 75 0 75 14 c 0
 75 33 86 33 108 33 c 0
 169 33 175 42 184 76 c 2
 317 609 l 2
 319 616 321 624 321 631 c 0
 321 647 297 647 266 647 c 0
 247 647 237 647 237 662 c 0
 237 680 249 680 266 680 c 2
 754 680 l 2
 769 680 782 680 782 666 c 2
 781 652 l 1
 761 477 l 2
 759 460 758 453 741 453 c 0
 734 453 722 453 722 469 c 0
 722 474 723 479 723 484 c 0
 726 503 728 522 728 542 c 0
 728 620 699 647 587 647 c 2
 447 647 l 2
 416 647 409 647 400 611 c 2
 340 370 l 1
 430 370 l 2
 509 370 533 386 553 462 c 0
 558 483 559 487 575 487 c 0
 581 487 594 487 594 472 c 0
 594 469 593 467 590 454 c 2
 537 241 l 2
 533 225 531 220 516 220 c 0
 511 220 497 220 497 234 c 0
 497 237 498 242 500 248 c 0
 501 252 507 277 507 295 c 0
 507 321 500 337 429 337 c 2
 332 337 l 1
 263 62 l 2
 260 49 260 46 259 35 c 1
 268 33 278 33 287 33 c 2
 429 33 l 2
 591 33 629 98 689 237 c 0
 699 258 699 260 713 260 c 0
 718 260 732 260 732 246 c 0
EndSplineSet
Position2: "'cpsp' Capital Spacing lookup 0 subtable" dx=7 dy=0 dh=14 dv=0
EndChar

StartChar: e
Encoding: 101 101 50
Width: 494
Flags: MW
HStem: -10 28<243.5 305.5 243.5 349> 228 28<215 256 256 264 207 256> 413 28<357 396.5>
VStem: 119 74<124 143.5 109.5 258.5> 447 44<305 374>
LayerCount: 2
Fore
SplineSet
502 100 m 0
 502 86 421 -10 277 -10 c 0
 171 -10 119 78 119 170 c 0
 119 347 271 441 379 441 c 0
 447 441 491 404 491 354 c 0
 491 228 304 228 264 228 c 2
 207 228 l 1
 200 198 193 155 193 132 c 0
 193 87 209 18 278 18 c 0
 333 18 412 43 466 109 c 0
 475 119 476 121 482 121 c 0
 489 121 502 108 502 100 c 0
447 354 m 0
 447 394 414 413 379 413 c 0
 335 413 248 380 215 256 c 1
 256 256 l 2
 293 256 447 256 447 354 c 0
EndSplineSet
EndChar

StartChar: eight
Encoding: 56 56 51
Width: 549
Flags: MW
HStem: -21 30<238 320.5 238 335> 639 26<395.5 465>
VStem: 102 56<86 171> 217 59<488.5 519> 460 65<144.5 190.5> 525 59 534 50<525.5 574.5>
LayerCount: 2
Fore
SplineSet
525 204 m 0xf4
 525 85 399 -21 271 -21 c 0
 185 -21 102 26 102 118 c 0
 102 224 197 295 297 340 c 1
 246 380 217 404 217 466 c 0
 217 572 326 665 437 665 c 0
 521 665 584 616 584 545 c 0
 584 506 565 423 421 358 c 1
 445 338 485 306 492 298 c 0
 498 291 525 260 525 204 c 0xf4
534 548 m 0
 534 601 495 639 435 639 c 0
 356 639 276 576 276 508 c 0
 276 469 304 447 306 446 c 2
 395 378 l 1
 468 411 534 477 534 548 c 0
460 167 m 0
 460 214 443 227 377 278 c 0
 359 292 326 318 323 318 c 0
 308 318 158 235 158 116 c 0
 158 56 203 9 273 9 c 0
 368 9 460 86 460 167 c 0
EndSplineSet
Substitution2: "'pnum' Proportional Numbers lookup 6 subtable" eight.prop
Substitution2: "'onum' Oldstyle Figures lookup 4 subtable" eight.oldstyle
AlternateSubs2: "'aalt' Access All Alternates lookup 1 subtable" eight.oldstyle eight.prop
EndChar

StartChar: equal
Encoding: 61 61 52
Width: 823
Flags: MW
HStem: 121 46<153 158 158 736> 333 46<198 788 210 788 788 793>
VStem: 118 705
LayerCount: 2
Fore
SplineSet
828 356 m 0
 828 333 807 333 793 333 c 2
 205 333 l 2
 191 333 171 333 171 356 c 0
 171 379 195 379 210 379 c 2
 788 379 l 2
 802 379 828 379 828 356 c 0
775 144 m 0
 775 121 751 121 736 121 c 2
 158 121 l 2
 144 121 118 121 118 144 c 0
 118 167 139 167 153 167 c 2
 741 167 l 2
 755 167 775 167 775 144 c 0
EndSplineSet
EndChar

StartChar: exclam
Encoding: 33 33 53
Width: 329
Flags: MW
HStem: 0 111<171.5 184> 191 21G<209.5 220.5> 695 20G<331.5 352>
VStem: 121 113<48 64>
LayerCount: 2
Fore
SplineSet
381 647 m 2
 236 208 l 2
 230 191 227 191 214 191 c 0
 205 191 195 191 195 204 c 2
 197 217 l 1
 272 656 l 2
 281 706 324 715 339 715 c 0
 365 715 386 698 386 671 c 0
 386 662 384 655 381 647 c 2
234 65 m 0
 234 31 201 0 167 0 c 0
 149 0 121 11 121 46 c 0
 121 82 155 111 188 111 c 0
 211 111 234 95 234 65 c 0
EndSplineSet
EndChar

StartChar: F
Encoding: 70 70 54
Width: 700
Flags: MW
HStem: 0 33<97 99.5 346.5 347.5> 324 33<337 422 328 424> 647 33<266 281.5 431.5 447 447 579>
LayerCount: 2
Fore
SplineSet
748 477 m 2
 746 460 745 453 728 453 c 0
 721 453 709 453 709 469 c 0
 709 474 711 487 712 493 c 0
 713 505 715 532 715 544 c 0
 715 619 688 647 579 647 c 2
 447 647 l 2
 416 647 409 647 400 611 c 2
 337 357 l 1
 424 357 l 2
 507 357 526 377 546 453 c 0
 550 469 551 474 567 474 c 0
 571 474 586 474 586 460 c 0
 586 456 584 449 583 445 c 2
 529 228 l 2
 524 208 519 207 507 207 c 0
 504 207 488 207 488 221 c 2
 488 221 488 224 492 236 c 0
 495 249 499 270 499 283 c 0
 499 310 490 324 422 324 c 2
 328 324 l 1
 266 73 l 2
 262 58 262 56 262 52 c 0
 262 38 267 38 290 35 c 0
 303 34 320 33 333 33 c 2
 340 33 l 2
 355 33 369 33 369 19 c 0
 369 0 354 0 348 0 c 0
 345 0 302 3 213 3 c 2
 152 3 l 2
 132 3 109 0 90 0 c 0
 81 0 75 6 75 14 c 0
 75 33 86 33 108 33 c 0
 169 33 175 42 184 76 c 2
 317 609 l 2
 319 616 321 624 321 631 c 0
 321 647 297 647 266 647 c 0
 247 647 237 647 237 662 c 0
 237 680 249 680 266 680 c 2
 741 680 l 2
 756 680 769 680 769 666 c 2
 768 652 l 1
 748 477 l 2
EndSplineSet
Position2: "'cpsp' Capital Spacing lookup 0 subtable" dx=7 dy=0 dh=14 dv=0
EndChar

StartChar: f
Encoding: 102 102 55
Width: 329
Flags: MW
HStem: -204 28<53 81.5 53 114.5> -163 81 398 33<146.5 225 155 219 295 376> 676 28<362.5 382.5>
VStem: -25 86<-127 -121.5> 386 86<621.5 628>
LayerCount: 2
Fore
SplineSet
472 637 m 0
 472 606 450 582 421 582 c 0
 410 582 386 587 386 616 c 0
 386 640 404 657 420 663 c 1
 405 676 384 676 381 676 c 0
 344 676 334 628 324 580 c 0
 307 502 310 510 295 431 c 1
 377 431 l 2
 392 431 406 431 406 417 c 0
 406 398 393 398 376 398 c 2
 289 398 l 1
 230 86 l 2
 208 -31 167 -204 62 -204 c 0
 23 -204 -25 -183 -25 -137 c 0
 -25 -106 -3 -82 26 -82 c 0
 37 -82 61 -87 61 -116 c 0
 61 -138 46 -156 27 -164 c 1
 27 -164 42 -176 64 -176 c 0
 99 -176 114 -120 120 -97 c 0
 137 -37 139 -27 151 37 c 2
 219 398 l 1
 154 398 l 2
 139 398 126 398 126 412 c 0
 126 431 138 431 155 431 c 2
 225 431 l 1
 246 540 l 2
 253 578 277 704 382 704 c 0
 427 704 472 681 472 637 c 0
EndSplineSet
EndChar

StartChar: five
Encoding: 53 53 56
Width: 549
Flags: MW
HStem: -21 30<223.5 275 223.5 322> 391 28<359 413> 556 77<411 433> 645 20G<293.5 299.5 581.5 586.5>
VStem: 455 74<279.5 300.5 184 316>
LayerCount: 2
Fore
SplineSet
529 259 m 0
 529 109 389 -21 255 -21 c 0
 161 -21 111 47 111 121 c 0
 111 144 115 207 168 207 c 0
 188 207 205 196 205 172 c 0
 205 157 196 121 149 120 c 1
 150 54 192 9 255 9 c 0
 295 9 358 32 403 108 c 0
 435 161 455 261 455 298 c 0
 455 334 442 391 384 391 c 0
 306 391 254 338 246 330 c 0
 230 314 229 313 221 313 c 0
 209 313 205 322 205 327 c 0
 205 331 207 338 208 342 c 2
 284 646 l 2
 287 656 289 665 298 665 c 0
 301 665 303 665 310 660 c 0
 348 642 389 633 433 633 c 0
 468 633 514 639 570 660 c 0
 578 664 580 665 583 665 c 0
 590 665 595 660 595 652 c 0
 595 642 589 637 570 623 c 0
 542 601 478 556 388 556 c 0
 374 556 343 556 304 569 c 1
 256 376 l 1
 290 400 332 419 386 419 c 0
 481 419 529 342 529 259 c 0
EndSplineSet
Substitution2: "'pnum' Proportional Numbers lookup 6 subtable" five.prop
Substitution2: "'onum' Oldstyle Figures lookup 4 subtable" five.oldstyle
AlternateSubs2: "'aalt' Access All Alternates lookup 1 subtable" five.oldstyle five.prop
EndChar

StartChar: four
Encoding: 52 52 57
Width: 549
Flags: MW
HStem: -194 21G<301.5 326> -16 33<410 423> 0 33 35 33<164 189 189 189.5> 645 20G<448 468.5>
LayerCount: 2
Fore
SplineSet
509 15 m 0x20
 509 -3 437 -16 409 -16 c 0x40
 402 -16 393 -16 386 -15 c 1
 359 -127 l 2
 347 -172 342 -194 310 -194 c 0
 293 -194 280 -182 280 -166 c 0
 280 -159 285 -141 321 1 c 1
 260 23 257 23 257 23 c 2
 220 35 201 35 178 35 c 0
 150 35 114 35 94 20 c 0
 84 12 68 0 62 0 c 0xb0
 54 0 46 11 46 18 c 0
 46 35 75 49 88 56 c 0
 91 58 126 84 177 138 c 0
 303 273 375 448 422 627 c 0
 425 636 432 665 464 665 c 0
 473 665 493 660 493 637 c 0
 493 628 460 467 340 282 c 0
 271 175 198 108 154 68 c 1
 189 68 l 2
 231 68 249 62 329 34 c 1
 361 164 l 2
 376 222 381 242 413 242 c 0
 424 242 443 235 443 213 c 1
 443 213 442 206 440 199 c 2
 395 18 l 1
 400 17 408 17 412 17 c 0x58
 442 17 470 26 479 29 c 0
 489 33 493 33 493 33 c 2
 503 33 509 19 509 15 c 0x20
EndSplineSet
Substitution2: "'pnum' Proportional Numbers lookup 6 subtable" four.prop
Substitution2: "'onum' Oldstyle Figures lookup 4 subtable" four.oldstyle
AlternateSubs2: "'aalt' Access All Alternates lookup 1 subtable" four.oldstyle four.prop
EndChar

StartChar: G
Encoding: 71 71 58
Width: 830
Flags: MW
HStem: -21 33<386 446.5> 243 33<563 571 571 581 798.5 805.5> 671 33<559.5 626.5 486.5 654.5>
VStem: 156 88<170.5 250 149 368>
LayerCount: 2
Fore
SplineSet
818 262 m 0
 818 250 811 243 800 243 c 0
 770 243 753 242 745 229 c 0
 739 220 731 188 722 151 c 0
 717 132 689 14 685 7 c 0
 682 0 675 0 675 0 c 1
 662 0 642 38 636 55 c 1
 568 -12 470 -21 423 -21 c 0
 267 -21 156 89 156 252 c 0
 156 484 378 704 595 704 c 0
 658 704 717 682 760 617 c 1
 825 693 l 2
 834 704 839 704 843 704 c 0
 853 704 857 697 857 692 c 0
 857 689 855 681 854 678 c 2
 794 437 l 2
 789 417 785 417 772 417 c 0
 766 417 753 417 753 430 c 0
 753 433 757 456 757 482 c 0
 757 585 707 671 602 671 c 0
 517 671 420 622 352 536 c 0
 269 429 244 281 244 219 c 0
 244 79 334 12 438 12 c 0
 497 12 589 34 625 102 c 0
 633 118 656 217 656 223 c 0
 656 236 652 238 627 241 c 2
 581 243 l 1
 571 243 l 2
 555 243 543 243 543 257 c 0
 543 276 557 276 565 276 c 0
 607 276 653 273 697 273 c 0
 791 273 794 276 803 276 c 0
 813 276 818 268 818 262 c 0
EndSplineSet
Position2: "'cpsp' Capital Spacing lookup 0 subtable" dx=7 dy=0 dh=14 dv=0
EndChar

StartChar: g
Encoding: 103 103 59
Width: 494
Flags: MW
HStem: -204 28<181.5 198 181.5 250.5> 0 28<228.5 266.5> 413 28<333 378 294 383>
VStem: 115 73<108 140 95 229>
LayerCount: 2
Fore
SplineSet
511 373 m 2
 401 -66 l 2
 385 -131 314 -204 187 -204 c 0
 125 -204 60 -198 60 -146 c 0
 60 -113 85 -92 110 -92 c 0
 132 -92 146 -106 146 -126 c 1
 146 -126 144 -154 121 -168 c 1
 148 -176 174 -176 189 -176 c 0
 207 -176 251 -176 293 -132 c 0
 322 -100 328 -76 339 -34 c 2
 360 50 l 1
 322 17 285 0 248 0 c 0
 176 0 115 58 115 158 c 0
 115 300 236 441 352 441 c 0
 404 441 432 407 443 387 c 1
 448 407 465 422 485 422 c 0
 502 422 515 410 515 394 c 0
 515 389 512 378 511 373 c 2
383 141 m 2
 424 306 l 2
 426 315 427 317 427 321 c 0
 427 333 414 413 352 413 c 0
 314 413 267 377 236 314 c 0
 214 268 188 162 188 118 c 0
 188 72 207 28 250 28 c 0
 309 28 374 105 383 141 c 2
EndSplineSet
EndChar

StartChar: grave
Encoding: 96 96 60
Width: 549
Flags: MW
HStem: 501 21G<436 443.5> 676 20G<355 369>
LayerCount: 2
Fore
SplineSet
468 522 m 0
 465 516 449 501 438 501 c 0
 434 501 432 503 428 508 c 2
 320 630 l 2
 307 644 311 656 315 665 c 0
 326 686 348 696 362 696 c 0
 376 696 383 683 383 683 c 1
 466 540 l 2
 467 537 471 529 468 522 c 0
EndSplineSet
EndChar

StartChar: greater
Encoding: 62 62 61
Width: 826
Flags: MW
HStem: -64 21G<88.5 96.5> 544 20G<245.5 253.5>
LayerCount: 2
Fore
SplineSet
800 250 m 0
 796 237 786 231 772 225 c 2
 115 -57 l 2
 100 -64 98 -64 95 -64 c 0
 82 -64 75 -54 78 -41 c 0
 81 -28 92 -22 105 -16 c 2
 724 250 l 1
 238 516 l 2
 228 522 220 528 223 541 c 0
 227 554 239 564 252 564 c 0
 255 564 257 564 268 557 c 2
 785 275 l 2
 795 269 803 263 800 250 c 0
EndSplineSet
EndChar

StartChar: H
Encoding: 72 72 62
Width: 797
Flags: MW
HStem: 0 33<85.5 138.5 322.5 324.5 705.5 707.5> 339 33<341 632 332 641> 650 33<255 280.5 483.5 486 866.5 869.5>
LayerCount: 2
Fore
SplineSet
891 669 m 0
 891 650 879 650 860 650 c 0
 796 650 791 642 781 604 c 2
 648 72 l 2
 646 65 644 57 644 49 c 0
 644 33 668 33 699 33 c 0
 716 33 728 33 728 19 c 0
 728 0 714 0 708 0 c 0
 703 0 675 3 590 3 c 2
 530 3 l 2
 522 2 478 0 473 0 c 0
 464 0 458 6 458 14 c 0
 458 33 470 33 485 33 c 0
 551 33 558 39 567 76 c 2
 632 339 l 1
 332 339 l 1
 265 71 l 2
 261 56 261 49 261 49 c 2
 261 33 285 33 316 33 c 0
 333 33 345 33 345 19 c 0
 345 0 331 0 325 0 c 0
 320 0 292 3 207 3 c 2
 147 3 l 2
 139 2 95 0 90 0 c 0
 81 0 75 6 75 14 c 0
 75 33 86 33 108 33 c 0
 169 33 175 42 184 76 c 2
 318 613 l 2
 322 627 322 629 322 635 c 0
 322 650 294 650 267 650 c 0
 250 650 238 650 238 664 c 0
 238 683 252 683 258 683 c 2
 316 680 l 1
 435 680 l 2
 453 681 475 683 492 683 c 0
 504 683 508 674 508 669 c 0
 508 650 497 650 475 650 c 0
 413 650 407 641 399 607 c 2
 341 372 l 1
 641 372 l 1
 701 614 l 2
 702 620 705 629 705 635 c 0
 705 650 677 650 650 650 c 0
 633 650 620 650 620 664 c 0
 620 683 635 683 641 683 c 2
 699 680 l 1
 818 680 l 2
 836 681 858 683 875 683 c 0
 887 683 891 674 891 669 c 0
EndSplineSet
Position2: "'cpsp' Capital Spacing lookup 0 subtable" dx=7 dy=0 dh=14 dv=0
EndChar

StartChar: h
Encoding: 104 104 63
Width: 549
Flags: MW
HStem: -10 28<430.5 461.5 430.5 485.5> 413 28<343 397.5> 650 45
VStem: 354 64<50 61.5 41 82> 428 66<318 364>
LayerCount: 2
Fore
SplineSet
575 143 m 0
 575 129 533 -10 438 -10 c 0
 387 -10 354 27 354 73 c 0
 354 91 360 107 367 125 c 0
 386 176 428 289 428 347 c 0
 428 381 418 413 377 413 c 0
 269 413 215 283 209 259 c 0
 204 237 198 216 193 194 c 0
 175 123 150 20 147 15 c 0
 142 1 127 -10 111 -10 c 0
 90 -10 80 5 80 19 c 0
 80 23 82 30 83 34 c 2
 228 613 l 2
 229 619 232 630 232 635 c 0
 232 644 232 650 184 650 c 0
 170 650 158 650 158 664 c 0
 158 682 169 683 183 684 c 2
 287 693 l 2
 298 694 314 695 314 680 c 0
 314 676 312 669 311 665 c 2
 238 374 l 1
 262 399 306 441 380 441 c 0
 434 441 494 419 494 333 c 0
 494 275 453 167 433 114 c 0
 426 94 418 73 418 50 c 0
 418 32 421 18 440 18 c 0
 483 18 516 71 534 135 c 0
 539 152 540 156 556 156 c 0
 561 156 575 156 575 143 c 0
EndSplineSet
EndChar

StartChar: hyphen
Encoding: 45 45 64
Width: 384
Flags: MW
HStem: 185 61<106.5 330 124 322>
VStem: 88 270<192.5 239>
LayerCount: 2
Fore
SplineSet
350 199 m 0
 346 185 341 185 322 185 c 2
 115 185 l 2
 98 185 88 185 88 200 c 0
 88 205 94 226 96 232 c 0
 99 246 105 246 124 246 c 2
 330 246 l 2
 345 246 358 246 358 232 c 0
 358 226 352 206 350 199 c 0
EndSplineSet
EndChar

StartChar: I
Encoding: 73 73 65
Width: 413
Flags: MW
HStem: 0 33<91 94 323 329> 650 33<253.5 256.5 249.5 276>
LayerCount: 2
Fore
SplineSet
350 19 m 0
 350 0 336 0 329 0 c 0
 317 0 283 2 271 3 c 2
 143 3 l 2
 127 2 102 0 86 0 c 0
 73 0 70 10 70 14 c 0
 70 33 82 33 100 33 c 0
 169 33 175 40 184 77 c 2
 319 617 l 2
 320 621 322 631 322 635 c 0
 322 650 289 650 263 650 c 0
 244 650 233 650 233 664 c 0
 233 683 246 683 253 683 c 0
 260 683 285 680 376 680 c 2
 440 680 l 2
 452 681 485 683 497 683 c 0
 511 683 512 669 512 669 c 1
 512 650 501 650 480 650 c 0
 412 650 407 641 399 607 c 2
 265 71 l 2
 261 57 261 55 261 49 c 0
 261 33 289 33 320 33 c 0
 338 33 350 33 350 19 c 0
EndSplineSet
Position2: "'cpsp' Capital Spacing lookup 0 subtable" dx=7 dy=0 dh=14 dv=0
EndChar

StartChar: i
Encoding: 105 105 66
Width: 329
Flags: MW
HStem: -10 28<211.5 242 211.5 266.5> 413 28<190 223> 543 111<308 320.5>
VStem: 135 64<50 61.5 41 82> 236 63<370.5 385.5 348 391>
LayerCount: 2
Fore
SplineSet
355 143 m 0
 355 131 314 -10 219 -10 c 0
 168 -10 135 27 135 73 c 0
 135 91 142 109 146 119 c 2
 216 305 l 2
 229 340 236 359 236 382 c 0
 236 400 232 413 214 413 c 0
 166 413 135 348 120 296 c 0
 116 278 115 275 99 275 c 0
 93 275 80 275 80 288 c 0
 80 301 121 441 216 441 c 0
 258 441 299 413 299 358 c 0
 299 338 295 328 287 306 c 2
 221 132 l 2
 205 90 199 73 199 50 c 0
 199 32 202 18 221 18 c 0
 263 18 296 70 314 135 c 0
 319 152 320 156 336 156 c 0
 341 156 355 156 355 143 c 0
371 608 m 0x20
 371 572 337 543 304 543 c 0
 281 543 258 559 258 589 c 0
 258 623 291 654 325 654 c 0
 343 654 371 643 371 608 c 0x20
EndSplineSet
EndChar

StartChar: J
Encoding: 74 74 67
Width: 563
Flags: MW
HStem: -21 28<217.5 260 217.5 286> 64 98 650 33<396.5 404 404 413>
VStem: 107 101<118 122>
LayerCount: 2
Fore
SplineSet
647 669 m 0
 647 650 635 650 620 650 c 0
 577 650 571 644 562 608 c 2
 445 137 l 2
 426 61 337 -21 235 -21 c 0
 159 -21 107 25 107 88 c 0
 107 156 157 162 166 162 c 0
 192 162 208 145 208 123 c 0
 208 113 200 67 147 66 c 1
 160 21 203 7 232 7 c 0
 288 7 348 70 368 149 c 2
 484 614 l 1
 484 614 487 625 487 631 c 0
 487 644 479 645 456 648 c 0
 438 650 430 650 413 650 c 2
 404 650 l 2
 389 650 375 650 375 664 c 0
 375 683 389 683 397 683 c 0
 439 683 484 680 527 680 c 0
 618 680 624 683 633 683 c 0
 644 683 647 673 647 669 c 0
EndSplineSet
Position2: "'cpsp' Capital Spacing lookup 0 subtable" dx=7 dy=0 dh=14 dv=0
EndChar

StartChar: j
Encoding: 106 106 68
Width: 329
Flags: MW
HStem: -204 28<54 94 54 102.5> 413 28<225 249.5> 543 111<308 320.5>
VStem: -35 86<-164 -116> 271 66<361.5 376.5 345.5 387>
LayerCount: 2
Fore
SplineSet
241 -52 m 2
 221 -132 145 -204 60 -204 c 0
 6 -204 -35 -183 -35 -145 c 0
 -35 -115 -12 -92 15 -92 c 0
 37 -92 51 -106 51 -126 c 1
 51 -126 50 -155 24 -169 c 1
 36 -174 48 -176 60 -176 c 0
 128 -176 163 -85 171 -51 c 2
 268 342 l 2
 269 347 271 354 271 369 c 0
 271 405 258 413 241 413 c 0
 209 413 160 388 120 291 c 0
 115 278 114 275 99 275 c 0
 94 275 80 275 80 287 c 0
 80 300 139 441 244 441 c 0
 297 441 337 404 337 349 c 0
 337 342 337 334 332 314 c 2
 241 -52 l 2
371 608 m 0x20
 371 572 337 543 304 543 c 0
 281 543 258 559 258 589 c 0
 258 623 291 654 325 654 c 0
 343 654 371 643 371 608 c 0x20
EndSplineSet
EndChar

StartChar: K
Encoding: 75 75 69
Width: 824
Flags: MW
HStem: 0 33<85.5 138.5 322.5 324.5 545.5 551 741 742> 650 33<255 280.5 483.5 486>
LayerCount: 2
Fore
SplineSet
759 19 m 0
 759 0 744 0 740 0 c 0
 727 0 732 3 648 3 c 0
 613 3 576 0 542 0 c 0
 533 0 527 6 527 14 c 0
 527 32 540 33 551 33 c 0
 571 34 594 38 594 62 c 0
 594 67 594 69 588 81 c 2
 464 363 l 1
 308 241 l 1
 270 90 l 2
 267 76 261 54 261 49 c 0
 261 33 285 33 316 33 c 0
 333 33 345 33 345 19 c 0
 345 0 331 0 325 0 c 0
 320 0 292 3 207 3 c 2
 147 3 l 2
 139 2 95 0 90 0 c 0
 81 0 75 6 75 14 c 0
 75 33 86 33 108 33 c 0
 169 33 175 42 184 76 c 2
 318 613 l 2
 322 627 322 629 322 635 c 0
 322 650 294 650 267 650 c 0
 250 650 238 650 238 664 c 0
 238 683 252 683 258 683 c 2
 316 680 l 1
 435 680 l 2
 453 681 475 683 492 683 c 0
 504 683 508 674 508 669 c 0
 508 650 497 650 475 650 c 0
 413 650 407 641 399 607 c 2
 321 294 l 1
 694 585 l 2
 702 592 703 593 705 594 c 2
 711 600 l 2
 715 603 733 619 733 635 c 0
 733 644 726 649 711 650 c 1
 711 650 695 651 695 664 c 0
 695 683 710 683 716 683 c 0
 748 683 784 680 818 680 c 2
 858 680 l 2
 865 680 894 683 894 683 c 2
 903 683 907 675 907 669 c 0
 907 652 896 651 888 650 c 0
 825 643 751 586 723 564 c 2
 529 413 l 1
 679 72 l 2
 694 37 709 34 741 33 c 0
 745 33 759 32 759 19 c 0
EndSplineSet
Position2: "'cpsp' Capital Spacing lookup 0 subtable" dx=7 dy=0 dh=14 dv=0
EndChar

StartChar: k
Encoding: 107 107 70
Width: 494
Flags: MW
HStem: -10 28<393 421> 317 84 413 28<442 467.5> 650 45
VStem: 313 69<141 173.5> 444 86<355.5 365>
LayerCount: 2
Fore
SplineSet
520 143 m 0
 520 137 504 79 481 42 c 0
 469 24 443 -10 399 -10 c 0
 343 -10 306 33 306 89 c 0
 306 100 308 112 310 119 c 0
 313 134 313 138 313 144 c 0
 313 203 242 221 201 226 c 1
 152 28 l 2
 145 1 129 -10 111 -10 c 0
 90 -10 80 5 80 19 c 0
 80 23 82 30 83 34 c 2
 228 613 l 2
 229 619 232 630 232 635 c 0
 232 644 232 650 184 650 c 0
 170 650 158 650 158 664 c 0
 158 682 169 683 183 684 c 2
 287 693 l 2
 298 694 314 695 314 680 c 0
 314 676 312 669 311 665 c 2
 211 265 l 1
 230 274 251 284 312 349 c 0
 367 408 412 441 461 441 c 0
 509 441 530 407 530 375 c 0
 530 336 503 317 479 317 c 0
 466 317 444 323 444 351 c 0
 444 379 467 396 486 400 c 1
 482 406 475 413 460 413 c 0
 424 413 384 390 328 327 c 0
 321 320 280 276 244 252 c 1
 313 240 382 216 382 145 c 0
 382 136 382 130 378 114 c 0
 374 99 371 80 371 64 c 0
 371 27 385 18 401 18 c 0
 445 18 465 79 479 136 c 0
 483 151 485 156 501 156 c 0
 506 156 520 156 520 143 c 0
EndSplineSet
EndChar

StartChar: L
Encoding: 76 76 71
Width: 673
Flags: MW
HStem: 0 33<97 103 103 138.5 287 382 382 463.5> 650 33<258.5 262 255 280.5 493.5 494 494 502>
LayerCount: 2
Fore
SplineSet
664 245 m 2
 664 245 664 240 659 227 c 2
 582 18 l 2
 575 1 574 0 551 0 c 2
 103 0 l 2
 87 0 75 0 75 14 c 0
 75 33 86 33 108 33 c 0
 169 33 175 42 184 76 c 2
 318 613 l 2
 322 627 322 629 322 635 c 0
 322 650 294 650 267 650 c 0
 250 650 238 650 238 664 c 0
 238 683 252 683 258 683 c 0
 266 683 282 680 382 680 c 0
 426 680 472 683 515 683 c 0
 524 683 531 679 531 669 c 0
 531 650 520 650 502 650 c 2
 494 650 l 2
 413 650 407 640 398 603 c 2
 263 62 l 2
 260 49 260 46 259 35 c 1
 268 33 278 33 287 33 c 2
 382 33 l 2
 545 33 588 147 622 236 c 0
 630 257 631 260 645 260 c 0
 654 260 664 258 664 245 c 2
EndSplineSet
Position2: "'cpsp' Capital Spacing lookup 0 subtable" dx=7 dy=0 dh=14 dv=0
EndChar

StartChar: l
Encoding: 108 108 72
Width: 274
Flags: MW
HStem: -10 28<179 201.5> 650 45
VStem: 99 66<56 65 56 87>
LayerCount: 2
Fore
SplineSet
300 143 m 0
 300 139 286 81 268 45 c 0
 243 -3 212 -10 191 -10 c 0
 145 -10 99 21 99 82 c 0
 99 92 99 98 104 118 c 2
 228 613 l 2
 229 619 232 630 232 635 c 0
 232 644 232 650 184 650 c 0
 170 650 158 650 158 664 c 0
 158 682 169 683 183 684 c 2
 287 693 l 2
 298 694 314 695 314 680 c 0
 314 676 312 669 311 665 c 2
 168 91 l 2
 165 79 165 68 165 62 c 0
 165 50 165 18 193 18 c 0
 229 18 246 84 260 136 c 0
 264 152 265 156 281 156 c 0
 286 156 300 156 300 143 c 0
EndSplineSet
EndChar

StartChar: less
Encoding: 60 60 73
Width: 826
Flags: MW
HStem: -64 21G<696.5 704.5> 544 20G<853.5 861.5>
LayerCount: 2
Fore
SplineSet
727 -41 m 0
 724 -54 711 -64 698 -64 c 0
 695 -64 693 -64 682 -57 c 2
 165 225 l 2
 155 231 147 237 151 250 c 0
 154 263 164 269 178 275 c 2
 835 557 l 2
 850 564 852 564 855 564 c 0
 868 564 876 554 872 541 c 0
 869 528 859 522 845 516 c 2
 227 250 l 1
 712 -16 l 2
 723 -22 730 -28 727 -41 c 0
EndSplineSet
EndChar

StartChar: M
Encoding: 77 77 74
Width: 961
Flags: MW
HStem: 0 33<96 99 96 110 291 292 646.5 649.5 864.5 866.5> 650 33<272 285.5 987 1022 1022 1028.5>
LayerCount: 2
Fore
SplineSet
1050 669 m 0
 1050 650 1038 650 1019 650 c 0
 955 650 950 642 940 604 c 2
 807 72 l 2
 805 65 803 57 803 49 c 0
 803 33 827 33 858 33 c 0
 875 33 887 33 887 19 c 0
 887 0 873 0 867 0 c 0
 862 0 837 3 753 3 c 2
 695 3 l 2
 680 2 657 0 642 0 c 0
 633 0 627 6 627 14 c 0
 627 33 639 33 654 33 c 0
 720 33 727 39 736 76 c 2
 874 632 l 1
 873 632 l 1
 493 21 l 2
 487 11 480 0 463 0 c 0
 445 0 444 8 442 26 c 2
 368 624 l 1
 367 624 l 1
 236 98 l 2
 235 95 232 82 232 74 c 0
 232 45 250 34 291 33 c 0
 296 33 309 32 309 19 c 0
 309 0 294 0 290 0 c 0
 280 0 269 3 191 3 c 0
 160 3 125 0 95 0 c 0
 86 0 80 6 80 14 c 0
 80 32 93 33 99 33 c 0
 170 36 186 67 196 108 c 2
 323 613 l 2
 327 627 327 629 327 635 c 0
 327 650 299 650 272 650 c 0
 255 650 243 650 243 664 c 0
 243 683 255 683 272 683 c 2
 401 683 l 2
 429 683 429 681 432 657 c 2
 502 91 l 1
 858 663 l 2
 870 683 876 683 898 683 c 2
 1022 683 l 2
 1037 683 1050 683 1050 669 c 0
EndSplineSet
Position2: "'cpsp' Capital Spacing lookup 0 subtable" dx=7 dy=0 dh=14 dv=0
EndChar

StartChar: m
Encoding: 109 109 75
Width: 878
Flags: MW
HStem: -10 28<759.5 790.5 759.5 814.5> 413 28<174 203 393 451 685.5 726.5>
VStem: 683 64<50 61.5 41 82> 757 66<318 364>
LayerCount: 2
Fore
SplineSet
904 143 m 0
 904 129 862 -10 767 -10 c 0
 716 -10 683 27 683 73 c 0
 683 91 689 107 696 125 c 0
 715 176 757 289 757 347 c 0
 757 381 747 413 706 413 c 0
 665 413 632 393 614 378 c 0
 570 339 543 277 540 268 c 2
 524 203 l 2
 513 161 513 159 508 138 c 2
 486 52 l 2
 477 14 471 -10 439 -10 c 0
 422 -10 409 2 409 18 c 0
 409 23 412 34 413 39 c 2
 476 290 l 2
 484 320 484 339 484 347 c 0
 484 388 470 413 432 413 c 0
 322 413 268 274 268 274 c 1
 234 138 l 1
 212 52 l 2
 203 14 197 -10 165 -10 c 0
 148 -10 135 2 135 18 c 0
 135 21 136 24 138 33 c 2
 211 325 l 2
 215 339 217 355 217 369 c 0
 217 378 217 413 189 413 c 0
 155 413 137 361 122 302 c 0
 116 278 115 275 99 275 c 0
 93 275 80 275 80 288 c 0
 80 293 95 353 113 387 c 0
 133 422 157 441 191 441 c 0
 240 441 277 407 283 361 c 1
 302 384 350 441 436 441 c 0
 483 441 541 423 549 351 c 1
 587 403 639 441 709 441 c 0
 763 441 823 419 823 333 c 0
 823 275 782 167 762 114 c 0
 755 94 747 73 747 50 c 0
 747 32 750 18 769 18 c 0
 812 18 845 71 863 135 c 0
 868 152 869 156 885 156 c 0
 890 156 904 156 904 143 c 0
EndSplineSet
EndChar

StartChar: N
Encoding: 78 78 76
Width: 797
Flags: MW
HStem: 0 33<91 94 91 105 286 287> 650 33<267 271 678.5 680>
LayerCount: 2
Fore
SplineSet
891 669 m 0
 891 657 885 651 874 650 c 0
 841 648 791 646 774 576 c 2
 635 19 l 2
 631 4 630 0 613 0 c 0
 597 0 596 2 590 18 c 2
 357 603 l 1
 231 98 l 2
 230 95 227 82 227 74 c 0
 227 45 245 34 286 33 c 0
 291 33 304 32 304 19 c 0
 304 0 289 0 285 0 c 0
 275 0 264 3 186 3 c 0
 155 3 120 0 90 0 c 0
 81 0 75 6 75 14 c 0
 75 32 88 33 94 33 c 0
 165 36 181 67 191 108 c 2
 326 644 l 1
 305 650 275 650 267 650 c 0
 250 650 238 650 238 664 c 0
 238 683 250 683 267 683 c 2
 384 683 l 2
 406 683 407 682 415 664 c 2
 624 140 l 1
 735 586 l 1
 735 586 739 601 739 610 c 0
 739 643 711 649 680 650 c 0
 675 650 661 651 661 664 c 0
 661 683 676 683 681 683 c 0
 688 683 704 680 780 680 c 0
 852 680 870 683 876 683 c 0
 886 683 891 675 891 669 c 0
EndSplineSet
Position2: "'cpsp' Capital Spacing lookup 0 subtable" dx=7 dy=0 dh=14 dv=0
EndChar

StartChar: n
Encoding: 110 110 77
Width: 603
Flags: MW
HStem: -10 28<484.5 515.5 484.5 539.5> 413 28<174 203 413.5 450.5>
VStem: 408 64<50 61.5 41 82> 482 66<318 366>
LayerCount: 2
Fore
SplineSet
629 143 m 0
 629 129 587 -10 492 -10 c 0
 441 -10 408 27 408 73 c 0
 408 91 414 107 421 125 c 0
 440 175 482 289 482 347 c 0
 482 385 470 413 431 413 c 0
 396 413 364 399 333 372 c 0
 302 343 271 284 266 268 c 2
 250 203 l 2
 239 161 239 159 234 138 c 2
 212 52 l 2
 203 14 197 -10 165 -10 c 0
 148 -10 135 2 135 18 c 0
 135 21 136 24 138 33 c 2
 211 325 l 2
 215 339 217 355 217 369 c 0
 217 378 217 413 189 413 c 0
 155 413 137 361 122 302 c 0
 116 278 115 275 99 275 c 0
 93 275 80 275 80 288 c 0
 80 293 95 353 113 387 c 0
 133 422 157 441 191 441 c 0
 240 441 277 407 283 361 c 1
 302 384 349 441 434 441 c 0
 489 441 548 419 548 333 c 0
 548 275 507 167 487 114 c 0
 480 94 472 73 472 50 c 0
 472 32 475 18 494 18 c 0
 537 18 570 71 588 135 c 0
 593 152 594 156 610 156 c 0
 615 156 629 156 629 143 c 0
EndSplineSet
EndChar

StartChar: nine
Encoding: 57 57 78
Width: 549
Flags: MW
HStem: -21 30<219.5 257.5 219.5 272> 219 28<297 354> 639 26<403.5 465.5>
VStem: 170 77<351 356.5 315.5 457.5> 514 70<463.5 568.5>
LayerCount: 2
Fore
SplineSet
584 481 m 0
 584 446 572 270 476 136 c 0
 404 38 316 -21 228 -21 c 0
 171 -21 111 -1 111 61 c 0
 111 104 133 126 163 126 c 0
 185 126 198 113 198 93 c 0
 198 85 195 50 152 44 c 1
 166 13 209 9 230 9 c 0
 285 9 409 57 468 304 c 1
 436 262 387 219 321 219 c 0
 206 219 170 322 170 380 c 0
 170 535 307 665 440 665 c 0
 528 665 584 603 584 481 c 0
467 348 m 0
 513 434 514 542 514 542 c 1
 514 595 491 639 440 639 c 0
 367 639 321 577 308 558 c 0
 270 498 247 373 247 340 c 0
 247 291 267 247 327 247 c 0
 390 247 440 300 467 348 c 0
EndSplineSet
Substitution2: "'pnum' Proportional Numbers lookup 6 subtable" nine.prop
Substitution2: "'onum' Oldstyle Figures lookup 4 subtable" nine.oldstyle
AlternateSubs2: "'aalt' Access All Alternates lookup 1 subtable" nine.oldstyle nine.prop
EndChar

StartChar: numbersign
Encoding: 35 35 79
Width: 878
Flags: MW
HStem: -194 21G<165.5 179 388.5 402> 121 46<153 158 158 296 372 519 153 348 595 791> 333 46<198 430 210 406 210 457 482 629 705 843 843 848> 674 20G<582 612.5>
VStem: 118 760
LayerCount: 2
Fore
SplineSet
830 144 m 0
 830 121 806 121 791 121 c 2
 571 121 l 1
 419 -174 l 2
 413 -186 409 -194 395 -194 c 0
 382 -194 372 -183 372 -171 c 0
 372 -166 373 -165 380 -151 c 2
 519 121 l 1
 348 121 l 1
 196 -174 l 2
 190 -186 186 -194 172 -194 c 0
 159 -194 149 -183 149 -171 c 0
 149 -166 150 -165 157 -151 c 2
 296 121 l 1
 158 121 l 2
 144 121 118 121 118 144 c 0
 118 167 139 167 153 167 c 2
 321 167 l 1
 406 333 l 1
 205 333 l 2
 191 333 171 333 171 356 c 0
 171 379 195 379 210 379 c 2
 430 379 l 1
 582 674 l 2
 588 686 592 694 606 694 c 0
 619 694 629 683 629 671 c 0
 629 666 628 665 621 651 c 2
 482 379 l 1
 653 379 l 1
 805 674 l 2
 811 686 815 694 829 694 c 0
 842 694 852 683 852 671 c 0
 852 666 851 665 844 651 c 2
 705 379 l 1
 843 379 l 2
 857 379 883 379 883 356 c 0
 883 333 862 333 848 333 c 2
 680 333 l 1
 595 167 l 1
 796 167 l 2
 810 167 830 167 830 144 c 0
629 333 m 1
 457 333 l 1
 372 167 l 1
 544 167 l 1
 629 333 l 1
EndSplineSet
EndChar

StartChar: O
Encoding: 79 79 80
Width: 823
Flags: MW
HStem: -21 33<369.5 511.5 369.5 511.5> 673 31<535.5 624.5>
VStem: 154 92<169 248 150 356.5> 750 86<375.5 518 317.5 538.5>
LayerCount: 2
Fore
SplineSet
836 436 m 0
 836 199 617 -21 406 -21 c 0
 251 -21 154 95 154 243 c 0
 154 470 368 704 586 704 c 0
 729 704 836 600 836 436 c 0
750 471 m 0
 750 606 671 673 578 673 c 0
 493 673 395 615 332 515 c 0
 261 404 246 275 246 221 c 0
 246 79 325 12 414 12 c 0
 609 12 750 280 750 471 c 0
EndSplineSet
Position2: "'cpsp' Capital Spacing lookup 0 subtable" dx=7 dy=0 dh=14 dv=0
EndChar

StartChar: o
Encoding: 111 111 81
Width: 549
Flags: MW
HStem: -10 28<256 299 256 340.5> 413 28<362 403>
VStem: 115 75<104 146.5 84 232.5> 465 75<291 324 200 342>
LayerCount: 2
Fore
SplineSet
540 272 m 0
 540 128 407 -10 274 -10 c 0
 190 -10 115 49 115 159 c 0
 115 306 251 441 380 441 c 0
 470 441 540 376 540 272 c 0
465 307 m 0
 465 377 427 413 379 413 c 0
 345 413 286 390 243 318 c 0
 211 263 190 169 190 124 c 0
 190 44 237 18 275 18 c 0
 323 18 377 55 409 110 c 0
 450 178 465 275 465 307 c 0
EndSplineSet
EndChar

StartChar: one
Encoding: 49 49 82
Width: 549
Flags: MW
HStem: 0 33<137 168 414.5 419 419 427> 645 20G<462 473>
LayerCount: 2
Fore
SplineSet
447 19 m 0
 447 0 433 0 426 0 c 0
 403 0 377 2 354 3 c 2
 212 3 l 1
 145 0 l 2
 129 0 128 14 128 14 c 1
 128 33 141 33 158 33 c 2
 168 33 l 2
 253 33 259 43 268 81 c 2
 384 545 l 1
 341 517 301 503 267 503 c 0
 260 503 249 505 249 517 c 0
 249 534 260 535 267 536 c 0
 338 543 396 581 448 650 c 0
 456 662 458 665 466 665 c 0
 480 665 482 654 482 651 c 0
 482 648 481 644 479 638 c 2
 338 75 l 2
 336 68 334 60 334 53 c 0
 334 40 338 38 363 35 c 2
 409 33 l 1
 419 33 l 2
 435 33 447 33 447 19 c 0
EndSplineSet
Substitution2: "'pnum' Proportional Numbers lookup 6 subtable" one.prop
Substitution2: "'onum' Oldstyle Figures lookup 4 subtable" one.oldstyle
AlternateSubs2: "'aalt' Access All Alternates lookup 1 subtable" one.oldstyle one.prop
EndChar

StartChar: P
Encoding: 80 80 83
Width: 727
Flags: MW
HStem: 0 33<86.5 136.5 323.5 325.5> 3 30<96.5 208 96.5 148> 312 30<331 472 472 490 331 495 326 472> 650 33<268 281.5 430.5 446 446 549>
VStem: 682 90<540 573 475.5 591>
LayerCount: 2
Fore
SplineSet
772 532 m 0x50
 772 419 634 312 495 312 c 2
 326 312 l 1
 266 71 l 2
 262 56 262 49 262 49 c 2
 262 33 286 33 317 33 c 0
 334 33 346 33 346 19 c 0
 346 0 332 0 326 0 c 0xb8
 321 0 293 3 208 3 c 2
 148 3 l 2x40
 140 2 96 0 91 0 c 0x80
 82 0 76 6 76 14 c 0
 76 33 89 33 104 33 c 0
 169 33 176 39 186 79 c 2
 319 614 l 2
 320 620 323 629 323 635 c 0
 323 650 295 650 268 650 c 0
 251 650 239 650 239 664 c 0
 239 683 251 683 268 683 c 2
 581 683 l 2
 700 683 772 614 772 532 c 0x50
682 555 m 0
 682 627 622 650 549 650 c 2
 446 650 l 2
 415 650 408 650 399 615 c 2
 331 342 l 1
 472 342 l 2
 508 342 578 347 629 401 c 0
 666 441 682 525 682 555 c 0
EndSplineSet
Position2: "'cpsp' Capital Spacing lookup 0 subtable" dx=7 dy=0 dh=14 dv=0
EndChar

StartChar: p
Encoding: 112 112 84
Width: 549
Flags: MW
HStem: -194 33<31 66 215 219> -10 28<284 321.5 270.5 359.5> 413 28<174 203 393 422>
VStem: 468 73<294.5 335 205.5 355>
LayerCount: 2
Fore
SplineSet
541 281 m 0
 541 130 416 -10 303 -10 c 0
 265 -10 233 8 211 46 c 1
 175 -99 l 2
 171 -115 164 -142 164 -147 c 0
 164 -161 185 -161 213 -161 c 0
 225 -161 238 -161 238 -175 c 0
 238 -194 224 -194 219 -194 c 0
 211 -194 194 -191 123 -191 c 0
 51 -191 46 -194 37 -194 c 0
 25 -194 23 -184 23 -180 c 0
 23 -161 36 -161 47 -161 c 0
 85 -161 91 -156 99 -123 c 2
 214 342 l 2
 215 347 217 354 217 369 c 0
 217 378 217 413 189 413 c 0
 155 413 137 361 122 302 c 0
 116 278 115 275 99 275 c 0
 93 275 80 275 80 288 c 0
 80 293 95 353 113 387 c 0
 133 422 157 441 191 441 c 0
 227 441 268 421 280 373 c 1
 306 401 354 441 409 441 c 0
 475 441 541 389 541 281 c 0
419 119 m 0
 439 161 468 268 468 321 c 0
 468 389 437 413 407 413 c 0
 379 413 338 395 293 336 c 0
 279 316 278 314 274 297 c 2
 231 126 l 2
 230 121 228 116 228 113 c 0
 228 106 238 18 303 18 c 0
 340 18 387 53 419 119 c 0
EndSplineSet
EndChar

StartChar: parenleft
Encoding: 40 40 85
Width: 439
Flags: MW
HStem: -250 21G<273 284.5> 730 20G<519.5 528.5>
VStem: 159 56<24.5 106.5>
LayerCount: 2
Fore
SplineSet
295 -238 m 0
 295 -247 288 -250 281 -250 c 0
 265 -250 217 -189 190 -122 c 0
 172 -75 159 -11 159 60 c 0
 159 153 183 320 279 489 c 0
 376 661 514 750 525 750 c 0
 532 750 539 747 539 738 c 2
 539 738 539 733 537 732 c 0
 536 730 535 729 519 716 c 0
 287 530 215 186 215 27 c 0
 215 -85 243 -163 287 -224 c 0
 294 -233 295 -234 295 -238 c 0
EndSplineSet
EndChar

StartChar: parenright
Encoding: 41 41 86
Width: 439
Flags: MW
HStem: -250 21G<32.5 42.5> 730 20G<276.5 289>
VStem: 347 56<394 475.5 393.5 548>
LayerCount: 2
Fore
SplineSet
403 440 m 0
 403 347 379 180 283 11 c 0
 186 -161 48 -250 37 -250 c 0
 28 -250 23 -246 23 -238 c 2
 23 -238 23 -234 25 -232 c 2
 43 -216 l 1
 276 -29 347 315 347 473 c 0
 347 623 296 694 272 726 c 0
 268 732 267 733 267 738 c 0
 267 746 272 750 281 750 c 0
 297 750 345 689 372 622 c 0
 390 575 403 511 403 440 c 0
EndSplineSet
EndChar

StartChar: percent
Encoding: 37 37 87
Width: 878
Flags: MW
HStem: 319 28<701 769> 319 56 347 28<297.5 349 297.5 363>
VStem: 211 57<439 489 439 551.5> 465 38<563.5 623 557 651.5> 548 57<48.5 85.5 48.5 147> 803 37<162.5 238>
CounterMasks: 1 e0
LayerCount: 2
Fore
SplineSet
894 727 m 0
 894 719 891 716 882 706 c 2
 202 -42 l 2
 195 -50 189 -56 179 -56 c 0
 169 -56 156 -48 156 -33 c 0
 156 -24 158 -22 168 -11 c 2
 757 637 l 1
 757 638 l 1
 705 617 665 614 639 614 c 0
 589 614 542 627 500 655 c 1
 500 655 503 627 503 619 c 0
 503 495 411 347 315 347 c 0
 261 347 211 393 211 484 c 0
 211 619 315 750 409 750 c 0
 447 750 464 729 478 713 c 0
 505 681 555 642 640 642 c 0
 699 642 780 663 846 735 c 0
 856 745 860 750 871 750 c 0
 884 750 894 739 894 727 c 0
840 216 m 0
 840 91 748 -56 652 -56 c 0
 595 -56 548 -6 548 81 c 0
 548 213 650 347 747 347 c 0
 810 347 840 283 840 216 c 0
465 623 m 0
 465 680 445 722 409 722 c 0
 318 722 268 523 268 455 c 0
 268 423 278 375 317 375 c 0
 381 375 465 504 465 623 c 0
803 221 m 0
 803 255 792 319 746 319 c 0
 656 319 605 120 605 51 c 0
 605 46 605 -28 654 -28 c 0
 720 -28 803 104 803 221 c 0
EndSplineSet
EndChar

StartChar: period
Encoding: 46 46 88
Width: 329
Flags: MW
HStem: 0 111<172.5 183>
VStem: 121 113<47.5 64>
LayerCount: 2
Fore
SplineSet
234 66 m 0
 234 29 199 0 167 0 c 0
 143 0 121 15 121 45 c 0
 121 83 157 111 188 111 c 0
 211 111 234 96 234 66 c 0
EndSplineSet
EndChar

StartChar: plus
Encoding: 43 43 89
Width: 823
Flags: MW
HStem: -79 21G<390.5 406> 227 46<173.5 456 180 444 503 766 180 491> 559 20G<541 556.5>
VStem: 145 656<238.5 261.5>
LayerCount: 2
Fore
SplineSet
801 250 m 0
 801 227 779 227 766 227 c 2
 491 227 l 1
 422 -52 l 2
 419 -62 415 -79 397 -79 c 0
 384 -79 374 -69 374 -56 c 0
 374 -52 374 -51 378 -37 c 2
 444 227 l 1
 180 227 l 2
 167 227 145 227 145 250 c 0
 145 273 167 273 180 273 c 2
 456 273 l 1
 525 552 l 2
 528 562 532 579 550 579 c 0
 563 579 573 569 573 556 c 0
 573 552 573 551 569 537 c 2
 503 273 l 1
 766 273 l 2
 779 273 801 273 801 250 c 0
EndSplineSet
EndChar

StartChar: Q
Encoding: 81 81 90
Width: 823
Flags: MW
HStem: -194 94<582 615.5 582 638> -21 31<407.5 413> 123 28<425.5 465> 673 31<484 624>
VStem: 154 87<169 321.5 149.5 356.5> 342 28<41.5 65 29 72.5> 750 86<421 518 354 534.5>
LayerCount: 2
Fore
SplineSet
744 0 m 0
 744 -11 698 -194 578 -194 c 0
 507 -194 493 -140 493 -87 c 0
 493 -67 496 -34 499 -7 c 1
 453 -20 420 -21 406 -21 c 0
 251 -21 154 95 154 243 c 0
 154 470 368 704 586 704 c 0
 729 704 836 600 836 436 c 0
 836 272 725 85 537 6 c 1
 544 -81 563 -100 601 -100 c 0
 630 -100 688 -81 716 1 c 0
 717 5 720 14 730 14 c 0
 737 14 744 8 744 0 c 0
750 464 m 0
 750 605 670 673 578 673 c 0
 390 673 241 426 241 217 c 0
 241 82 312 38 346 23 c 1
 344 30 342 35 342 48 c 0
 342 97 388 151 446 151 c 0
 511 151 528 96 534 45 c 1
 710 146 750 378 750 464 c 0
502 46 m 0
 502 102 484 123 446 123 c 0
 405 123 370 82 370 48 c 0
 370 10 402 10 413 10 c 0
 457 10 495 27 495 27 c 2
 501 30 502 31 502 46 c 0
EndSplineSet
Position2: "'cpsp' Capital Spacing lookup 0 subtable" dx=7 dy=0 dh=14 dv=0
EndChar

StartChar: q
Encoding: 113 113 91
Width: 494
Flags: MW
HStem: -194 33<238 244 238 250.5 432.5 437> -10 28<224.5 274.5> 413 28<338 376.5 293 383.5>
VStem: 113 73<102 132.5 89 221.5>
LayerCount: 2
Fore
SplineSet
456 -175 m 0
 456 -194 442 -194 437 -194 c 0
 428 -194 415 -191 335 -191 c 0
 302 -191 266 -194 235 -194 c 0
 226 -194 220 -189 220 -180 c 0
 220 -161 232 -161 244 -161 c 0
 308 -160 308 -158 322 -105 c 2
 358 41 l 2
 353 37 304 -10 245 -10 c 0
 170 -10 113 54 113 150 c 0
 113 293 234 441 352 441 c 0
 401 441 431 411 447 378 c 1
 460 399 496 441 510 441 c 0
 517 441 524 435 524 427 c 0
 524 424 523 420 521 414 c 2
 386 -125 l 2
 382 -140 382 -147 382 -147 c 2
 382 -161 403 -161 431 -161 c 0
 443 -161 456 -161 456 -175 c 0
424 304 m 2
 425 307 426 317 426 317 c 2
 426 328 415 413 352 413 c 0
 324 413 280 393 240 320 c 0
 215 274 186 156 186 109 c 0
 186 69 201 18 248 18 c 0
 307 18 372 98 381 133 c 2
 424 304 l 2
EndSplineSet
EndChar

StartChar: question
Encoding: 63 63 92
Width: 549
Flags: MW
HStem: 0 111<281.5 294> 191 28<325 339 325 363.5> 687 28<405.5 470>
VStem: 260 41<247.5 268.5 234.5 295.5> 539 41<566.5 627 540 631>
LayerCount: 2
Fore
SplineSet
580 587 m 0
 580 493 507 439 472 413 c 2
 348 321 l 2
 325 304 301 287 301 250 c 0
 301 219 322 219 328 219 c 0
 350 219 390 236 408 287 c 0
 412 298 415 299 428 299 c 0
 434 299 446 299 446 287 c 0
 446 262 401 191 326 191 c 0
 276 191 260 232 260 263 c 0
 260 328 300 357 350 393 c 2
 460 475 l 2
 486 494 539 533 539 600 c 0
 539 662 492 687 448 687 c 0
 363 687 288 606 252 514 c 1
 269 512 284 503 284 480 c 0
 284 454 261 431 235 431 c 0
 213 431 199 445 199 465 c 0
 199 513 290 715 448 715 c 0
 522 715 580 667 580 587 c 0
344 65 m 0
 344 31 311 0 277 0 c 0
 259 0 231 11 231 46 c 0
 231 82 265 111 298 111 c 0
 321 111 344 95 344 65 c 0
EndSplineSet
EndChar

StartChar: quotedbl
Encoding: 34 34 93
Width: 437
Flags: MW
HStem: 423 21G<251 289 251 251 359 359 359 397> 684 20G<331 351 439 459>
LayerCount: 2
Fore
SplineSet
367 669 m 2
 289 423 l 1
 251 423 l 1
 297 669 l 2
 300 689 321 704 341 704 c 0
 361 704 373 689 367 669 c 2
475 669 m 2
 397 423 l 1
 359 423 l 1
 405 669 l 2
 408 689 429 704 449 704 c 0
 469 704 481 689 475 669 c 2
EndSplineSet
EndChar

StartChar: quotesingle
Encoding: 39 39 94
Width: 329
Flags: MW
HStem: 423 21G<251 289 251 251> 684 20G<331 351>
LayerCount: 2
Fore
SplineSet
367 669 m 2
 289 423 l 1
 251 423 l 1
 297 669 l 2
 300 689 321 704 341 704 c 0
 361 704 373 689 367 669 c 2
EndSplineSet
EndChar

StartChar: R
Encoding: 82 82 95
Width: 782
Flags: MW
HStem: -21 28<639.5 673.5 639.5 695.5> 0 33<98 100 316.5 322.5> 328 28<335 448 327 449> 650 33<268 281.5 430.5 446 446 523>
VStem: 555 80<232.5 248.5 217 262> 668 92<530.5 574.5 493.5 586.5>
LayerCount: 2
Fore
SplineSet
774 96 m 0x9c
 774 81 739 -21 652 -21 c 0xb4
 598 -21 525 3 525 87 c 0
 525 107 535 147 543 176 c 0
 548 197 555 225 555 240 c 0
 555 284 526 328 448 328 c 2
 327 328 l 1
 263 71 l 2
 259 56 259 49 259 49 c 2
 259 33 283 33 314 33 c 0
 331 33 343 33 343 19 c 0
 343 0 329 0 323 0 c 0
 310 0 279 2 266 3 c 2
 148 3 l 2
 130 2 109 0 91 0 c 0
 82 0 76 6 76 14 c 0
 76 33 87 33 109 33 c 0x68
 170 33 176 42 185 76 c 2
 319 613 l 2
 323 627 323 629 323 635 c 0
 323 650 295 650 268 650 c 0
 251 650 239 650 239 664 c 0
 239 683 251 683 268 683 c 2
 542 683 l 2
 673 683 760 616 760 533 c 0
 760 454 678 373 549 339 c 1
 609 315 635 273 635 224 c 0
 635 210 627 150 625 132 c 0
 621 102 619 77 619 62 c 0
 619 29 624 7 655 7 c 0
 692 7 721 48 734 91 c 0
 739 106 740 110 755 110 c 0
 759 110 774 110 774 96 c 0x9c
668 551 m 0
 668 622 612 650 523 650 c 2
 446 650 l 2
 415 650 408 650 399 615 c 2
 335 356 l 1
 449 356 l 2
 467 356 541 356 598 398 c 0
 651 437 668 510 668 551 c 0
EndSplineSet
Position2: "'cpsp' Capital Spacing lookup 0 subtable" dx=7 dy=0 dh=14 dv=0
EndChar

StartChar: r
Encoding: 114 114 96
Width: 453
Flags: MW
HStem: -10 21G<156.5 179> 413 28<174 203 380 412.5>
VStem: 430 85<351.5 355>
LayerCount: 2
Fore
SplineSet
515 372 m 0
 515 331 484 317 465 317 c 0
 452 317 430 323 430 351 c 0
 430 359 432 385 464 397 c 1
 445 412 417 413 408 413 c 0
 318 413 271 288 268 274 c 2
 207 29 l 2
 203 13 193 -10 165 -10 c 0
 148 -10 135 2 135 18 c 0
 135 21 136 24 138 33 c 2
 211 325 l 2
 215 339 217 355 217 369 c 0
 217 378 217 413 189 413 c 0
 155 413 137 361 122 302 c 0
 116 278 115 275 99 275 c 0
 93 275 80 275 80 288 c 0
 80 293 95 353 113 387 c 0
 133 422 157 441 191 441 c 0
 239 441 272 410 281 372 c 1
 309 409 351 441 409 441 c 0
 443 441 515 430 515 372 c 0
EndSplineSet
EndChar

StartChar: S
Encoding: 83 83 97
Width: 603
Flags: MW
HStem: -21 33<292 372.5 283.5 389> 674 30<400 468.5 383 496.5>
VStem: 205 66<485 529> 505 66<170 226>
LayerCount: 2
Fore
SplineSet
571 232 m 0
 571 108 455 -21 323 -21 c 0
 261 -21 199 -5 157 48 c 1
 111 -9 l 2
 104 -18 102 -21 94 -21 c 0
 88 -21 80 -19 80 -8 c 0
 80 -5 81 -3 84 10 c 2
 133 207 l 2
 138 226 141 227 155 227 c 0
 160 227 173 227 173 215 c 0
 173 212 172 204 172 204 c 2
 168 190 165 166 165 151 c 0
 165 50 242 12 325 12 c 0
 420 12 505 106 505 197 c 0
 505 255 477 286 428 300 c 2
 334 325 l 2
 297 334 205 359 205 472 c 0
 205 586 319 704 447 704 c 0
 490 704 549 694 589 636 c 1
 634 692 l 2
 643 703 644 704 651 704 c 0
 661 704 665 697 665 692 c 0
 665 689 663 681 662 678 c 2
 611 476 l 2
 606 458 606 456 590 456 c 0
 583 456 571 456 571 469 c 0
 571 475 576 495 576 528 c 0
 576 605 547 674 446 674 c 0
 354 674 271 588 271 507 c 0
 271 463 295 427 337 414 c 0
 345 412 393 400 397 398 c 0
 486 375 504 370 531 342 c 0
 557 313 571 274 571 232 c 0
EndSplineSet
Position2: "'cpsp' Capital Spacing lookup 0 subtable" dx=7 dy=0 dh=14 dv=0
EndChar

StartChar: s
Encoding: 115 115 98
Width: 439
Flags: MW
HStem: -10 28<210.5 276 210.5 299.5> 68 81 300 72 413 28<284 339>
VStem: 158 62<306.5 313> 357 62<132 148.5>
LayerCount: 2
Fore
SplineSet
419 156 m 0
 419 108 378 -10 221 -10 c 0
 133 -10 78 31 78 87 c 0
 78 129 103 149 130 149 c 0
 151 149 165 135 165 116 c 0
 165 113 165 75 120 67 c 1
 141 21 200 18 221 18 c 0
 331 18 357 93 357 123 c 0
 357 174 304 185 282 189 c 0
 223 202 212 204 190 223 c 0
 169 240 158 268 158 294 c 0
 158 332 190 441 325 441 c 0
 382 441 441 414 441 355 c 0
 441 300 401 300 397 300 c 0
 380 300 366 312 366 330 c 1
 366 330 366 362 401 371 c 1
 389 402 355 413 323 413 c 0
 245 413 220 355 220 327 c 0
 220 286 254 279 298 270 c 0
 331 263 419 245 419 156 c 0
EndSplineSet
EndChar

StartChar: semicolon
Encoding: 59 59 99
Width: 329
Flags: MW
HStem: -194 21G<88 101.5> 0 111<166.5 175> 320 111<252.5 263>
VStem: 120 111<34 58.5>
LayerCount: 2
Fore
SplineSet
314 386 m 0
 314 349 279 320 247 320 c 0
 223 320 201 335 201 365 c 0
 201 403 237 431 268 431 c 0
 291 431 314 416 314 386 c 0
231 56 m 0
 231 -66 111 -194 92 -194 c 0
 84 -194 78 -186 78 -179 c 0
 78 -175 79 -174 94 -160 c 0
 122 -134 173 -77 195 6 c 1
 187 2 183 0 167 0 c 0
 132 0 120 24 120 44 c 0
 120 73 145 111 188 111 c 0
 231 111 231 67 231 56 c 0
EndSplineSet
EndChar

StartChar: seven
Encoding: 55 55 100
Width: 549
Flags: MW
HStem: -21 21G<315.5 346.5> 524 28<482.5 503> 591 74<390 398.5>
LayerCount: 2
Fore
SplineSet
661 653 m 0
 661 650 661 648 645 626 c 0
 519 447 435 242 380 30 c 0
 376 15 367 -21 326 -21 c 0
 305 -21 289 -7 289 14 c 0
 289 22 312 130 391 289 c 0
 438 382 481 448 536 533 c 1
 522 527 514 524 492 524 c 0
 461 524 447 542 431 567 c 0
 414 591 404 591 393 591 c 0
 327 591 241 537 189 443 c 0
 178 425 178 423 176 422 c 0
 173 419 168 419 162 419 c 0
 154 419 143 419 143 431 c 0
 143 436 144 437 149 447 c 2
 248 649 l 2
 255 663 256 665 270 665 c 0
 278 665 289 665 289 653 c 0
 289 649 276 622 268 606 c 1
 324 654 374 665 406 665 c 0
 448 665 455 637 462 598 c 0
 468 563 473 552 492 552 c 0
 543 552 589 611 620 653 c 0
 628 664 629 665 642 665 c 0
 650 665 661 665 661 653 c 0
EndSplineSet
Substitution2: "'pnum' Proportional Numbers lookup 6 subtable" seven.prop
Substitution2: "'onum' Oldstyle Figures lookup 4 subtable" seven.oldstyle
AlternateSubs2: "'aalt' Access All Alternates lookup 1 subtable" seven.oldstyle seven.prop
EndChar

StartChar: six
Encoding: 54 54 101
Width: 549
Flags: MW
HStem: -21 30<254.5 314 254.5 341.5> 398 28<362 422> 639 26<483 511.5>
VStem: 125 71<72 175> 462 77<193 311.5>
LayerCount: 2
Fore
SplineSet
539 265 m 0
 539 121 410 -21 273 -21 c 0
 154 -21 125 84 125 167 c 0
 125 183 129 372 239 515 c 0
 319 618 413 665 492 665 c 0
 549 665 597 641 597 584 c 0
 597 538 573 518 545 518 c 0
 523 518 510 531 510 551 c 0
 510 559 513 595 557 600 c 1
 551 624 532 639 491 639 c 0
 475 639 316 637 240 341 c 1
 287 402 337 426 387 426 c 0
 509 426 539 311 539 265 c 0
462 306 m 0
 462 317 462 398 382 398 c 0
 324 398 276 353 249 309 c 0
 202 232 196 136 196 109 c 0
 196 35 234 9 275 9 c 0
 353 9 399 83 409 103 c 0
 436 153 462 272 462 306 c 0
EndSplineSet
Substitution2: "'pnum' Proportional Numbers lookup 6 subtable" six.prop
Substitution2: "'onum' Oldstyle Figures lookup 4 subtable" six.oldstyle
AlternateSubs2: "'aalt' Access All Alternates lookup 1 subtable" six.oldstyle six.prop
EndChar

StartChar: slash
Encoding: 47 47 102
Width: 549
Flags: MW
HStem: -250 21G<41.5 54.5> 730 20G<617.5 630.5>
VStem: 25 622
LayerCount: 2
Fore
SplineSet
647 727 m 1
 647 727 647 720 639 707 c 2
 72 -232 l 2
 67 -241 61 -250 48 -250 c 0
 35 -250 25 -239 25 -227 c 1
 25 -227 25 -220 33 -207 c 2
 600 732 l 2
 605 741 611 750 624 750 c 0
 637 750 647 739 647 727 c 1
EndSplineSet
EndChar

StartChar: T
Encoding: 84 84 104
Width: 768
Flags: MW
HStem: 0 33<243 249 520.5 533 533 541> 643 33<372 449 645.5 704>
LayerCount: 2
Fore
SplineSet
820 470 m 2
 818 456 817 449 800 449 c 0
 779 449 781 463 782 465 c 2
 782 470 l 1
 782 475 l 1
 790 540 l 2
 791 549 792 556 792 566 c 0
 792 638 753 643 655 643 c 0
 636 643 605 643 598 641 c 0
 591 640 584 638 576 607 c 2
 442 70 l 1
 442 70 439 59 439 53 c 0
 439 40 446 38 470 35 c 0
 487 34 503 33 520 33 c 2
 533 33 l 2
 549 33 561 33 561 19 c 0
 561 0 547 0 540 0 c 0
 501 0 459 3 419 3 c 2
 346 3 l 2
 307 3 268 0 230 0 c 0
 215 0 213 10 213 14 c 0
 213 33 225 33 243 33 c 2
 256 33 l 2
 347 33 353 44 363 84 c 2
 494 609 l 2
 498 624 498 627 499 641 c 1
 484 643 459 643 439 643 c 0
 305 643 275 627 224 483 c 0
 215 456 215 454 212 452 c 0
 208 449 202 449 198 449 c 0
 193 449 179 449 179 463 c 2
 179 463 179 467 184 480 c 2
 245 658 l 2
 251 676 254 676 276 676 c 2
 821 676 l 2
 836 676 849 676 849 662 c 2
 848 648 l 1
 820 470 l 2
EndSplineSet
Position2: "'cpsp' Capital Spacing lookup 0 subtable" dx=7 dy=0 dh=14 dv=0
EndChar

StartChar: t
Encoding: 116 116 105
Width: 357
Flags: MW
HStem: -10 28<208.5 236.5 208.5 271.5> 398 33<109.5 209 119 201 279 362> 605 20G<274 294.5>
VStem: 126 66<52.5 65.5 51 87>
LayerCount: 2
Fore
SplineSet
382 144 m 0
 382 130 324 -10 219 -10 c 0
 170 -10 126 23 126 82 c 0
 126 92 126 98 131 118 c 2
 201 398 l 1
 117 398 l 2
 102 398 89 398 89 412 c 0
 89 431 101 431 119 431 c 2
 209 431 l 1
 248 586 l 2
 250 595 258 625 290 625 c 0
 299 625 319 620 319 597 c 0
 319 592 319 590 315 575 c 2
 279 431 l 1
 363 431 l 2
 379 431 391 431 391 417 c 0
 391 398 379 398 362 398 c 2
 271 398 l 1
 195 91 l 2
 192 79 192 69 192 62 c 0
 192 40 196 18 221 18 c 0
 252 18 299 38 343 140 c 0
 348 153 349 156 364 156 c 0
 368 156 382 156 382 144 c 0
EndSplineSet
EndChar

StartChar: three
Encoding: 51 51 106
Width: 549
Flags: MW
HStem: -21 28<221 308.5> 101 84 318 33<317 318 318 345 345 351> 412 28<258.5 280.5 258.5 288> 637 28<383.5 459>
VStem: 204 38<466 512.5 466 520.5> 327 28<479.5 501> 434 76<186 241.5 137.5 269> 527 66<537.5 563.5 490 578.5>
LayerCount: 2
Fore
SplineSet
593 527 m 0
 593 453 531 365 431 331 c 1
 457 318 510 282 510 201 c 0
 510 74 372 -21 245 -21 c 0
 153 -21 99 40 99 109 c 0
 99 136 107 185 152 185 c 0
 177 185 188 168 188 152 c 0
 188 143 183 106 138 102 c 1
 142 33 197 7 245 7 c 0
 377 7 434 140 434 232 c 0
 434 306 383 318 351 318 c 2
 318 318 l 2
 301 318 290 318 290 331 c 0
 290 351 301 351 317 351 c 2
 345 351 l 2
 515 351 527 528 527 547 c 0
 527 610 484 637 434 637 c 0
 333 637 242 549 242 476 c 0
 242 456 249 440 268 440 c 0
 293 440 327 463 327 496 c 0
 327 506 323 515 318 524 c 0
 313 532 313 536 313 536 c 2
 313 543 321 550 328 550 c 0
 340 550 355 521 355 496 c 0
 355 449 310 412 266 412 c 0
 225 412 204 445 204 479 c 0
 204 562 307 665 436 665 c 0
 536 665 593 600 593 527 c 0
EndSplineSet
Substitution2: "'pnum' Proportional Numbers lookup 6 subtable" three.prop
Substitution2: "'onum' Oldstyle Figures lookup 4 subtable" three.oldstyle
AlternateSubs2: "'aalt' Access All Alternates lookup 1 subtable" three.oldstyle three.prop
EndChar

StartChar: two
Encoding: 50 50 107
Width: 549
Flags: MW
HStem: -21 74<373 415.5 373 439> 54 28<187 199.5> 336 28<218.5 256.5 218.5 265.5> 637 28<346.5 430>
VStem: 167 37<388.5 430.5 386.5 439.5> 326 28<477.5 499.5> 505 76<449 546.5 440 566.5> 553 28
LayerCount: 2
Fore
SplineSet
553 164 m 0xfd
 553 144 498 -21 380 -21 c 0
 338 -21 304 0 280 15 c 0
 244 37 216 54 183 54 c 0
 145 54 129 0 127 -6 c 0
 123 -19 121 -21 107 -21 c 0
 98 -21 88 -21 88 -8 c 0
 88 9 132 155 288 238 c 0
 406 300 505 374 505 524 c 0xc2
 505 609 453 637 407 637 c 0
 286 637 204 464 204 397 c 0
 204 376 211 364 226 364 c 0
 287 364 326 463 326 492 c 0
 326 507 320 520 318 522 c 0
 316 526 313 532 313 536 c 0
 313 543 321 550 328 550 c 0
 341 550 354 516 354 493 c 0
 354 451 306 336 225 336 c 0
 181 336 167 373 167 404 c 0
 167 475 259 665 410 665 c 0
 503 665 581 601 581 492 c 0
 581 388 525 319 333 219 c 0
 296 201 218 160 168 81 c 1
 173 82 187 82 187 82 c 2
 218 82 256 74 289 67 c 0
 316 62 357 53 389 53 c 0
 442 53 492 93 514 162 c 0
 518 173 520 176 534 176 c 0
 539 176 553 176 553 164 c 0xfd
EndSplineSet
Substitution2: "'pnum' Proportional Numbers lookup 6 subtable" two.prop
Substitution2: "'onum' Oldstyle Figures lookup 4 subtable" two.oldstyle
AlternateSubs2: "'aalt' Access All Alternates lookup 1 subtable" two.oldstyle two.prop
EndChar

StartChar: U
Encoding: 85 85 108
Width: 797
Flags: MW
HStem: -21 33<383 460 383 474.5> 650 33<255 280.5 483.5 486 681.5 683>
VStem: 215 77<107.5 155 92 179>
LayerCount: 2
Fore
SplineSet
891 669 m 0
 891 657 885 651 874 650 c 0
 841 648 791 646 774 576 c 2
 685 217 l 2
 659 110 543 -21 406 -21 c 0
 307 -21 215 45 215 170 c 0
 215 188 215 201 222 229 c 2
 318 613 l 2
 322 627 322 629 322 635 c 0
 322 650 294 650 267 650 c 0
 250 650 238 650 238 664 c 0
 238 683 252 683 258 683 c 2
 316 680 l 1
 435 680 l 2
 453 681 475 683 492 683 c 0
 504 683 508 674 508 669 c 0
 508 650 497 650 475 650 c 0
 413 650 407 641 399 607 c 2
 302 218 l 2
 297 197 292 168 292 142 c 0
 292 42 357 12 409 12 c 0
 511 12 619 108 649 229 c 2
 738 586 l 1
 738 586 742 601 742 610 c 0
 742 643 714 649 683 650 c 0
 678 650 664 651 664 664 c 0
 664 683 679 683 684 683 c 0
 691 683 706 680 781 680 c 0
 848 680 873 683 876 683 c 0
 886 683 891 675 891 669 c 0
EndSplineSet
Position2: "'cpsp' Capital Spacing lookup 0 subtable" dx=7 dy=0 dh=14 dv=0
EndChar

StartChar: u
Encoding: 117 117 109
Width: 576
Flags: MW
HStem: -10 28<260.5 297.5 479 506.5> 413 28<193 224>
VStem: 164 67<87.5 124 87.5 137.5>
LayerCount: 2
Fore
SplineSet
602 143 m 1
 602 143 589 83 568 43 c 0
 551 12 527 -10 491 -10 c 0
 465 -10 419 1 404 51 c 1
 354 -7 309 -10 286 -10 c 0
 229 -10 164 19 164 110 c 0
 164 165 192 238 220 315 c 0
 229 338 237 359 237 382 c 0
 237 400 233 413 215 413 c 0
 171 413 138 358 120 296 c 0
 116 278 115 275 99 275 c 0
 93 275 80 275 80 288 c 0
 80 301 121 441 217 441 c 0
 259 441 300 413 300 358 c 0
 300 338 296 328 288 308 c 0
 256 221 231 152 231 96 c 0
 231 79 231 18 290 18 c 0
 357 18 399 96 404 116 c 2
 472 391 l 2
 474 400 482 431 514 431 c 0
 531 431 544 421 544 402 c 0
 544 399 544 397 540 383 c 2
 468 91 l 2
 465 79 465 69 465 62 c 0
 465 50 465 18 493 18 c 0
 520 18 541 51 560 128 c 0
 566 153 566 156 583 156 c 0
 588 156 602 156 602 143 c 1
EndSplineSet
EndChar

StartChar: underscore
Encoding: 95 95 110
Width: 797
Flags: MW
HStem: -144 38<-41 770 -26 761>
LayerCount: 2
Fore
SplineSet
784 -125 m 0
 782 -135 771 -144 761 -144 c 2
 -36 -144 l 2
 -46 -144 -53 -135 -50 -125 c 0
 -48 -115 -37 -106 -26 -106 c 2
 770 -106 l 2
 781 -106 787 -115 784 -125 c 0
EndSplineSet
EndChar

StartChar: V
Encoding: 86 86 111
Width: 797
Flags: MW
HStem: -21 21G<382 402> 650 33<232.5 237.5 230.5 262.5 433 440.5>
LayerCount: 2
Fore
SplineSet
915 669 m 0
 915 652 904 651 896 650 c 0
 865 647 828 640 780 564 c 2
 424 -2 l 2
 417 -14 412 -21 392 -21 c 0
 372 -21 372 -15 369 5 c 2
 290 618 l 2
 287 642 286 650 239 650 c 0
 226 650 213 650 213 664 c 0
 213 683 228 683 233 683 c 0
 242 683 249 680 335 680 c 0
 371 680 410 683 445 683 c 0
 454 683 460 677 460 669 c 0
 460 650 448 650 433 650 c 0
 382 649 372 634 375 608 c 2
 442 90 l 1
 748 579 l 2
 756 592 765 606 765 621 c 0
 765 647 738 649 727 650 c 0
 724 650 712 651 712 664 c 0
 712 683 726 683 731 683 c 0
 736 683 760 680 822 680 c 0
 893 680 890 683 901 683 c 0
 909 683 915 677 915 669 c 0
EndSplineSet
Position2: "'cpsp' Capital Spacing lookup 0 subtable" dx=7 dy=0 dh=14 dv=0
EndChar

StartChar: v
Encoding: 118 118 112
Width: 494
Flags: MW
HStem: -10 28<268.5 358.5 267 382.5> 413 28<193 224>
VStem: 165 67<94.5 123.5 94.5 140.5> 427 94<386 399.5 342.5 407>
LayerCount: 2
Fore
SplineSet
521 368 m 0
 521 317 466 -10 299 -10 c 0
 238 -10 165 17 165 115 c 0
 165 166 190 233 220 315 c 0
 229 338 237 359 237 382 c 0
 237 400 233 413 215 413 c 0
 171 413 138 358 120 296 c 0
 116 278 115 275 99 275 c 0
 93 275 80 275 80 288 c 0
 80 301 121 441 217 441 c 0
 259 441 300 413 300 358 c 0
 300 338 289 310 281 286 c 0
 247 197 232 145 232 102 c 0
 232 87 232 18 302 18 c 0
 415 18 467 252 467 290 c 0
 467 317 460 345 440 366 c 0
 434 372 427 379 427 393 c 0
 427 421 455 441 476 441 c 0
 491 441 521 431 521 368 c 0
EndSplineSet
EndChar

StartChar: W
Encoding: 87 87 113
Width: 1071
Flags: MW
HStem: -21 21G 650 33<231 237 229 258.5 431 436 604.5 610.5 803 808.5 999.5 1000>
LayerCount: 2
Fore
SplineSet
1190 669 m 0
 1190 652 1181 651 1169 650 c 0
 1149 648 1110 643 1067 566 c 2
 749 1 l 2
 737 -21 727 -21 716 -21 c 0
 706 -21 696 -20 695 -3 c 0
 695 0 694 5 694 5 c 1
 662 509 l 1
 375 0 l 2
 363 -21 352 -21 343 -21 c 0
 323 -21 322 -14 321 7 c 2
 281 618 l 2
 279 643 279 650 238 650 c 0
 224 650 212 650 212 664 c 0
 212 683 227 683 231 683 c 0
 243 683 243 680 330 680 c 0
 366 680 404 683 438 683 c 0
 446 683 453 678 453 669 c 0
 453 650 441 650 431 650 c 0
 362 649 363 625 364 605 c 2
 396 110 l 1
 658 573 l 1
 654 630 l 2
 652 643 648 650 611 650 c 0
 598 650 586 650 586 664 c 0
 586 683 600 683 605 683 c 0
 616 683 617 680 703 680 c 0
 739 680 777 683 811 683 c 0
 824 683 827 673 827 669 c 0
 827 650 814 650 803 650 c 0
 735 649 737 624 738 605 c 2
 770 110 l 1
 1034 577 l 2
 1040 587 1047 601 1047 615 c 0
 1047 641 1022 649 1000 650 c 0
 995 650 982 651 982 664 c 0
 982 683 997 683 1002 683 c 0
 1008 683 1033 680 1098 680 c 0
 1175 680 1160 683 1177 683 c 0
 1180 683 1190 680 1190 669 c 0
EndSplineSet
Position2: "'cpsp' Capital Spacing lookup 0 subtable" dx=7 dy=0 dh=14 dv=0
EndChar

StartChar: w
Encoding: 119 119 114
Width: 713
Flags: MW
HStem: -10 28<288.5 320.5 288.5 321 515.5 559.5> 413 28<193 224>
VStem: 166 66<72 131 72 138.5> 398 66 646 94<386 399.5 341 407>
LayerCount: 2
Fore
SplineSet
740 368 m 0
 740 314 705 176 673 107 c 0
 636 25 590 -10 531 -10 c 0
 500 -10 438 -2 410 52 c 1
 372 -4 335 -10 307 -10 c 0
 257 -10 166 6 166 117 c 0
 166 160 176 197 220 315 c 0
 229 338 237 359 237 382 c 0
 237 400 233 413 215 413 c 0
 171 413 138 358 120 296 c 0
 116 278 115 275 99 275 c 0
 93 275 80 275 80 288 c 0
 80 301 121 441 217 441 c 0
 259 441 300 413 300 358 c 0
 300 338 297 330 284 297 c 0
 260 233 232 157 232 105 c 0
 232 39 268 18 309 18 c 0
 332 18 351 29 369 53 c 0
 379 67 396 94 397 120 c 0
 398 144 398 145 405 173 c 2
 459 391 l 2
 461 400 469 431 501 431 c 0
 517 431 531 421 531 402 c 0
 531 399 525 373 521 359 c 2
 507 303 l 1
 482 202 l 2
 467 143 464 129 464 102 c 0
 464 86 464 18 535 18 c 0
 584 18 616 58 638 109 c 0
 655 149 686 251 686 290 c 0
 686 317 679 345 659 366 c 0
 653 372 646 379 646 393 c 0
 646 421 674 441 695 441 c 0
 710 441 740 431 740 368 c 0
EndSplineSet
EndChar

StartChar: X
Encoding: 88 88 115
Width: 797
Flags: MW
HStem: 0 33<258 266.5 512 515 721 727> 650 33<252 257.5 250.5 280.5>
LayerCount: 2
Fore
SplineSet
746 19 m 0
 746 0 732 0 727 0 c 0
 715 0 712 3 623 3 c 0
 586 3 547 0 512 0 c 0
 499 0 496 10 496 14 c 0
 496 32 509 33 515 33 c 0
 546 35 565 52 565 61 c 2
 565 61 565 64 561 73 c 2
 457 311 l 1
 261 102 l 2
 256 97 253 92 246 83 c 0
 241 75 237 67 237 58 c 0
 237 40 250 34 265 33 c 0
 268 33 280 31 280 19 c 0
 280 0 266 0 261 0 c 0
 255 0 230 3 160 3 c 0
 85 3 81 0 71 0 c 0
 64 0 57 6 57 14 c 0
 57 31 68 32 78 33 c 0
 99 35 153 39 212 101 c 2
 443 345 l 1
 323 621 l 2
 314 643 304 650 257 650 c 0
 247 650 233 650 233 664 c 0
 233 683 248 683 253 683 c 0
 262 683 271 680 357 680 c 0
 428 680 468 683 468 683 c 2
 476 683 483 678 483 669 c 0
 483 651 472 651 464 650 c 0
 431 647 414 630 414 622 c 2
 414 622 415 618 418 611 c 2
 505 412 l 1
 663 580 l 2
 668 585 669 587 672 593 c 2
 676 597 l 2
 683 605 688 615 688 625 c 0
 688 642 674 649 660 650 c 0
 656 650 644 652 644 664 c 0
 644 683 659 683 664 683 c 0
 671 683 692 680 764 680 c 0
 837 680 846 683 853 683 c 0
 863 683 868 675 868 669 c 0
 868 652 857 651 845 650 c 0
 818 648 766 642 693 564 c 2
 519 378 l 1
 657 61 l 2
 665 42 675 33 719 33 c 0
 735 33 746 33 746 19 c 0
EndSplineSet
Position2: "'cpsp' Capital Spacing lookup 0 subtable" dx=7 dy=0 dh=14 dv=0
EndChar

StartChar: x
Encoding: 120 120 116
Width: 495
Flags: MW
HStem: -10 28<142 174.5 343.5 373.5> 34 80 317 80 413 28<225.5 258.5 429 461>
VStem: 57 86<69 74> 458 85<351.5 365.5>
LayerCount: 2
Fore
SplineSet
521 144 m 0
 521 114 461 -10 357 -10 c 0
 309 -10 271 16 254 53 c 1
 230 18 197 -10 152 -10 c 0
 108 -10 57 11 57 59 c 0
 57 89 79 114 108 114 c 0
 119 114 143 109 143 80 c 0
 143 58 128 40 108 32 c 1
 114 27 131 18 153 18 c 0
 216 18 237 103 246 136 c 2
 278 266 l 2
 289 309 294 330 294 350 c 0
 294 387 275 413 242 413 c 0
 209 413 149 387 118 288 c 0
 115 278 112 275 99 275 c 0
 93 275 80 275 80 288 c 0
 80 315 139 441 244 441 c 0
 305 441 335 402 347 378 c 1
 374 418 408 441 449 441 c 0
 482 441 543 427 543 372 c 0
 543 331 512 317 493 317 c 0
 480 317 458 323 458 351 c 0
 458 380 484 396 493 399 c 1
 491 400 474 413 448 413 c 0
 410 413 376 377 360 315 c 2
 328 185 l 2
 319 151 307 103 307 81 c 0
 307 40 328 18 359 18 c 0
 388 18 450 40 482 143 c 0
 485 153 489 156 502 156 c 0
 506 156 521 156 521 144 c 0
EndSplineSet
EndChar

StartChar: Y
Encoding: 89 89 117
Width: 797
Flags: MW
HStem: 0 33<287.5 292 512.5 514> 650 33<226 231.5 224.5 257 431 441.5>
LayerCount: 2
Fore
SplineSet
921 669 m 0
 921 652 910 651 900 650 c 0
 880 648 833 644 772 575 c 2
 505 273 l 1
 462 101 l 2
 453 67 450 55 450 47 c 0
 450 33 482 33 505 33 c 0
 523 33 535 33 535 19 c 0
 535 0 520 0 515 0 c 0
 510 0 481 3 398 3 c 2
 340 3 l 2
 322 2 301 0 283 0 c 0
 274 0 268 6 268 14 c 0
 268 33 281 33 294 33 c 0
 365 34 366 35 383 100 c 0
 387 118 425 269 425 272 c 2
 425 272 425 276 421 287 c 2
 294 621 l 2
 287 641 283 650 231 650 c 0
 221 650 207 650 207 664 c 0
 207 683 222 683 227 683 c 0
 236 683 244 680 332 680 c 0
 369 680 409 683 444 683 c 0
 454 683 460 676 460 669 c 0
 460 650 447 650 436 650 c 0
 426 650 385 649 385 629 c 0
 385 624 388 616 390 612 c 2
 501 320 l 1
 730 580 l 2
 737 587 738 590 738 590 c 2
 741 594 741 596 744 599 c 0
 759 616 760 631 760 631 c 1
 760 646 747 649 732 650 c 1
 732 650 716 651 716 664 c 0
 716 683 731 683 736 683 c 0
 741 683 765 680 827 680 c 0
 898 680 895 683 907 683 c 0
 913 683 921 678 921 669 c 0
EndSplineSet
Position2: "'cpsp' Capital Spacing lookup 0 subtable" dx=7 dy=0 dh=14 dv=0
EndChar

StartChar: y
Encoding: 121 121 118
Width: 521
Flags: MW
HStem: -204 28<200 235 200 268> -138 82 -10 28<260.5 308> 413 28<193 224>
VStem: 164 67<87.5 124 87.5 137.5>
LayerCount: 2
Fore
SplineSet
442 -9 m 2
 419 -99 324 -204 212 -204 c 0
 152 -204 109 -168 109 -117 c 0
 109 -67 144 -56 160 -56 c 0
 183 -56 196 -71 196 -89 c 0
 196 -111 179 -134 151 -139 c 1
 162 -165 187 -176 213 -176 c 0
 257 -176 295 -146 321 -113 c 0
 359 -63 372 -12 381 27 c 1
 364 12 330 -10 286 -10 c 0
 229 -10 164 19 164 110 c 0
 164 165 192 238 220 315 c 0
 229 338 237 359 237 382 c 0
 237 400 233 413 215 413 c 0
 171 413 138 358 120 296 c 0
 116 278 115 275 99 275 c 0
 93 275 80 275 80 288 c 0
 80 301 121 441 217 441 c 0
 259 441 300 413 300 358 c 0
 300 338 296 328 288 308 c 0
 256 221 231 152 231 96 c 0
 231 79 231 18 290 18 c 0
 357 18 399 96 404 116 c 2
 472 391 l 2
 474 400 482 431 514 431 c 0
 530 431 544 421 544 402 c 0
 544 398 543 397 540 383 c 2
 442 -9 l 2
EndSplineSet
EndChar

StartChar: Z
Encoding: 90 90 119
Width: 658
Flags: MW
HStem: 0 36<187 348 348 436> 650 33<417.5 489 489 641>
LayerCount: 2
Fore
SplineSet
644 255 m 1
 644 255 644 252 640 242 c 2
 570 18 l 2
 564 0 561 0 539 0 c 2
 110 0 l 2
 94 0 85 0 85 11 c 0
 85 15 87 27 97 38 c 2
 641 650 l 1
 489 650 l 2
 346 650 292 590 255 479 c 0
 248 459 247 456 233 456 c 0
 228 456 214 456 214 470 c 2
 214 470 214 473 217 482 c 2
 272 663 l 2
 278 682 279 683 303 683 c 2
 716 683 l 2
 732 683 741 683 741 672 c 0
 741 661 736 655 728 646 c 2
 187 36 l 1
 348 36 l 2
 524 36 561 121 601 244 c 0
 609 267 610 269 625 269 c 0
 628 269 644 269 644 255 c 1
EndSplineSet
Position2: "'cpsp' Capital Spacing lookup 0 subtable" dx=7 dy=0 dh=14 dv=0
EndChar

StartChar: z
Encoding: 122 122 120
Width: 439
Flags: MW
HStem: -10 69<301.5 335 301.5 353> 89 69 372 69<258 271.5>
LayerCount: 2
Fore
SplineSet
465 145 m 0
 465 115 404 -10 302 -10 c 0
 273 -10 255 4 236 27 c 0
 210 55 200 61 182 61 c 0
 147 61 118 24 105 4 c 0
 97 -9 96 -10 83 -10 c 0
 76 -10 64 -10 64 2 c 0
 64 12 103 70 157 127 c 0
 188 159 221 188 254 218 c 0
 299 258 356 308 384 342 c 1
 364 343 357 344 319 358 c 0
 304 364 282 372 261 372 c 0
 255 372 202 372 182 323 c 0
 178 313 175 312 163 312 c 0
 157 312 144 312 144 324 c 0
 144 351 193 441 270 441 c 0
 294 441 312 432 338 404 c 0
 353 386 367 370 388 370 c 0
 408 370 420 379 451 431 c 0
 457 440 459 441 471 441 c 0
 479 441 490 441 490 429 c 0
 490 417 453 369 434 346 c 0
 418 326 416 325 358 266 c 1
 246 165 l 1
 170 89 l 1
 200 89 210 89 245 76 c 0
 273 66 291 59 312 59 c 0
 358 59 409 93 426 141 c 0
 430 154 431 158 446 158 c 0
 452 158 465 158 465 145 c 0
EndSplineSet
EndChar

StartChar: zero
Encoding: 48 48 121
Width: 549
Flags: MW
HStem: -21 28<252 293.5 252 318> 637 28<396.5 454>
VStem: 122 69<133.5 150.5 73.5 195> 519 66<501 504 447 574.5>
LayerCount: 2
Fore
SplineSet
585 488 m 0
 585 406 547 235 493 137 c 0
 446 50 367 -21 269 -21 c 0
 127 -21 122 113 122 154 c 0
 122 236 163 413 216 507 c 0
 276 613 354 665 439 665 c 0
 585 665 585 520 585 488 c 0
519 540 m 0
 519 609 475 637 433 637 c 0
 324 637 283 508 270 468 c 0
 260 438 191 195 191 106 c 0
 191 41 228 7 276 7 c 0
 311 7 365 26 408 104 c 0
 444 170 519 462 519 540 c 0
EndSplineSet
Substitution2: "'zero' Slashed Zero lookup 14 subtable" zero.slash
Substitution2: "'pnum' Proportional Numbers lookup 6 subtable" zero.prop
Substitution2: "'onum' Oldstyle Figures lookup 4 subtable" zero.oldstyle
AlternateSubs2: "'aalt' Access All Alternates lookup 1 subtable" zero.oldstyle zero.prop zero.slash
EndChar

StartChar: f_f
Encoding: 64256 64256 122
Width: 658
Flags: MW
HStem: -204 28<52.5 82 52.5 114.5 330.5 349.5> -161 79 398 33<146 226 156 220 295 537 613 694> 676 28<411.5 442 683 705.5>
VStem: -25 86<-127 -121.5> 226 86<-126 -121.5> 469 86<601.5 655.5> 715 86<601.5 658>
LayerCount: 2
Fore
SplineSet
801 637 m 0
 801 606 779 582 750 582 c 0
 739 582 715 587 715 616 c 0
 715 619 715 650 749 662 c 1
 731 676 707 676 704 676 c 0
 662 676 651 626 643 589 c 2
 613 431 l 1
 695 431 l 2
 712 431 723 431 723 417 c 0
 723 398 712 398 694 398 c 2
 606 398 l 1
 549 93 l 2
 548 87 519 -65 480 -120 c 0
 465 -141 410 -204 332 -204 c 0
 280 -204 226 -184 226 -137 c 0
 226 -106 248 -82 277 -82 c 0
 288 -82 312 -87 312 -116 c 0
 312 -136 299 -154 280 -162 c 1
 301 -176 328 -176 333 -176 c 0
 366 -176 388 -156 402 -141 c 0
 426 -117 432 -105 446 -57 c 0
 461 -2 462 3 473 60 c 2
 537 398 l 1
 289 398 l 1
 228 74 l 2
 208 -33 166 -204 63 -204 c 0
 19 -204 -25 -181 -25 -137 c 0
 -25 -106 -3 -82 26 -82 c 0
 37 -82 61 -87 61 -116 c 0
 61 -138 46 -156 26 -164 c 1
 33 -170 41 -176 64 -176 c 0
 100 -176 115 -117 122 -94 c 0
 138 -35 139 -30 150 30 c 2
 220 398 l 1
 154 398 l 2
 138 398 126 398 126 412 c 0
 126 431 138 431 156 431 c 2
 226 431 l 1
 245 533 l 2
 263 630 308 704 436 704 c 0
 519 704 555 674 555 637 c 0
 555 606 533 582 504 582 c 0
 493 582 469 587 469 616 c 0
 469 620 469 648 501 661 c 1
 476 676 447 676 437 676 c 0
 386 676 355 651 345 635 c 0
 330 612 317 548 311 517 c 0
 303 472 304 476 295 431 c 1
 543 431 l 1
 565 546 l 2
 572 582 597 704 704 704 c 0
 756 704 801 679 801 637 c 0
EndSplineSet
Ligature2: "'liga' Standard Ligatures lookup 8 subtable" f f
EndChar

StartChar: f_f_i
Encoding: 64259 64259 123
Width: 946
Flags: MW
HStem: -204 28<52.5 74.5 52.5 114.5 336 354> -161 79 -10 28<849 876.5 849 879> 398 33<147.5 226 156 220 296 548 624 844> 572 89 676 28<424 453.5 765.5 819.5>
VStem: -25 86<-127 -121.5> 227 86<-126 -121.5> 496 86<621.5 630.5> 769 66<56 65.5 56 87> 883 87<596 667>
LayerCount: 2
Fore
SplineSet
972 143 m 1
 972 143 959 83 938 43 c 0
 921 12 897 -10 861 -10 c 0
 815 -10 769 21 769 82 c 0
 769 92 769 98 774 118 c 2
 844 398 l 1
 618 398 l 1
 559 86 l 2
 557 77 530 -66 489 -123 c 0
 480 -134 423 -204 338 -204 c 0
 277 -204 227 -182 227 -137 c 0
 227 -106 249 -82 278 -82 c 0
 289 -82 313 -87 313 -116 c 0
 313 -136 300 -154 281 -162 c 1
 302 -175 333 -176 339 -176 c 0
 369 -176 394 -160 416 -138 c 0
 439 -114 445 -96 455 -62 c 0
 467 -21 477 20 485 62 c 2
 548 398 l 1
 289 398 l 1
 229 77 l 2
 207 -38 166 -204 63 -204 c 0
 20 -204 -25 -181 -25 -137 c 0
 -25 -106 -3 -82 26 -82 c 0
 37 -82 61 -87 61 -116 c 0
 61 -138 46 -156 26 -164 c 1
 33 -170 41 -176 64 -176 c 0
 85 -176 112 -176 151 33 c 2
 220 398 l 1
 155 398 l 2
 140 398 126 398 126 412 c 0
 126 431 139 431 156 431 c 2
 226 431 l 1
 248 550 257 599 288 639 c 0
 332 696 398 704 450 704 c 0
 477 704 582 704 582 637 c 0
 582 606 560 582 531 582 c 0
 520 582 496 587 496 616 c 0
 496 645 522 660 527 662 c 1
 501 676 456 676 451 676 c 0
 362 676 343 632 334 606 c 0
 320 567 312 521 296 431 c 1
 554 431 l 1
 572 524 l 2
 605 700 725 704 806 704 c 0
 851 704 970 704 970 630 c 0
 970 594 945 572 919 572 c 0
 897 572 883 586 883 606 c 1
 883 606 884 642 920 653 c 1
 890 676 831 676 808 676 c 0
 668 676 659 630 624 431 c 1
 892 431 l 2
 907 431 918 431 918 419 c 0
 918 416 917 411 916 406 c 2
 838 91 l 2
 835 79 835 69 835 62 c 0
 835 50 835 18 863 18 c 0
 890 18 911 51 930 128 c 0
 936 153 936 156 953 156 c 0
 958 156 972 156 972 143 c 1
EndSplineSet
Ligature2: "'liga' Standard Ligatures in Latin lookup 12 subtable" f_f i
Ligature2: "'liga' Standard Ligatures in Latin lookup 11 subtable" f_f i
Ligature2: "'liga' Standard Ligatures lookup 9 subtable" f_f i
EndChar

StartChar: f_f_l
Encoding: 64260 64260 124
Width: 960
Flags: MW
HStem: -204 28<52.5 82 52.5 115.5 336 365> -161 79 -10 28<863 890.5 863 893> 398 33<147.5 226 156 220 296 548 624 858> 676 28<409 442 769.5 793>
VStem: -25 86<-127 -121.5> 61 66 227 86<-126 -121.5> 469 86 783 66<56 65.5 56 87>
LayerCount: 2
Fore
SplineSet
986 143 m 1xfac0
 986 143 973 83 952 43 c 0
 935 12 911 -10 875 -10 c 0
 829 -10 783 21 783 82 c 0
 783 92 783 98 788 118 c 2
 858 398 l 1
 618 398 l 1
 554 62 l 2
 544 9 529 -43 507 -92 c 0
 484 -142 417 -204 338 -204 c 0
 277 -204 227 -182 227 -137 c 0
 227 -106 249 -82 278 -82 c 0
 289 -82 313 -87 313 -116 c 0
 313 -136 300 -154 281 -162 c 1
 302 -175 333 -176 339 -176 c 0
 391 -176 431 -124 440 -104 c 0
 456 -71 475 14 484 60 c 2
 548 398 l 1
 290 398 l 1
 228 72 l 2
 209 -30 168 -204 63 -204 c 0
 20 -204 -25 -181 -25 -137 c 0xfd40
 -25 -106 -3 -82 26 -82 c 0
 37 -82 61 -87 61 -116 c 0
 61 -138 46 -156 26 -164 c 1
 33 -170 41 -176 64 -176 c 0
 100 -176 115 -119 121 -97 c 0
 137 -39 139 -33 150 28 c 2
 220 398 l 1
 155 398 l 2
 140 398 127 398 127 412 c 0
 127 431 139 431 156 431 c 2
 226 431 l 1
 246 535 l 2
 264 631 309 704 436 704 c 0
 523 704 555 671 555 637 c 0
 555 606 533 582 504 582 c 0
 493 582 469 587 469 616 c 0
 469 620 469 648 501 661 c 1
 476 676 447 676 437 676 c 0
 381 676 352 646 346 637 c 0
 330 610 317 543 312 517 c 0
 303 473 304 475 296 431 c 1
 555 431 l 1
 578 561 586 604 625 649 c 0
 672 704 757 704 782 704 c 0
 881 704 915 679 917 640 c 1
 918 640 l 1
 920 649 924 662 927 675 c 0
 932 693 933 694 956 694 c 2
 972 694 l 2
 988 694 998 694 998 682 c 2
 852 91 l 2
 849 79 849 69 849 62 c 0
 849 50 849 18 877 18 c 0
 904 18 925 51 944 128 c 0
 950 153 950 156 967 156 c 0
 972 156 986 156 986 143 c 1xfac0
866 431 m 1
 909 604 l 1
 908 604 l 1
 903 595 886 582 866 582 c 0
 855 582 831 587 831 616 c 0
 831 645 857 660 862 662 c 1
 839 674 803 676 783 676 c 0
 694 676 673 635 663 609 c 0
 653 582 646 552 624 431 c 1
 866 431 l 1
EndSplineSet
Ligature2: "'liga' Standard Ligatures lookup 8 subtable" f f l
EndChar

StartChar: f_i
Encoding: 64257 64257 125
Width: 603
Flags: MW
HStem: -204 28<53 81.5 53 114> -10 28<506 533.5 506 536> 398 33<146 226 155 219 295 501> 676 28<430 488>
VStem: -25 86<-127 -121.5> 426 66<56 65.5 56 87> 540 87<611.5 622.5>
LayerCount: 2
Fore
SplineSet
629 143 m 1
 629 143 616 83 595 43 c 0
 578 12 554 -10 518 -10 c 0
 472 -10 426 21 426 82 c 0
 426 92 426 98 431 118 c 2
 501 398 l 1
 289 398 l 1
 228 75 l 2
 207 -38 166 -204 62 -204 c 0
 23 -204 -25 -183 -25 -137 c 0
 -25 -106 -3 -82 26 -82 c 0
 37 -82 61 -87 61 -116 c 0
 61 -138 46 -156 27 -164 c 1
 27 -164 42 -176 64 -176 c 0
 99 -176 114 -121 121 -96 c 0
 137 -38 140 -21 152 41 c 2
 219 398 l 1
 154 398 l 2
 138 398 126 398 126 412 c 0
 126 431 138 431 155 431 c 2
 226 431 l 1
 244 528 l 2
 276 696 389 704 471 704 c 0
 521 704 627 701 627 629 c 0
 627 594 602 572 576 572 c 0
 554 572 540 586 540 606 c 0
 540 639 576 654 576 654 c 1
 550 673 503 676 473 676 c 0
 349 676 334 627 313 525 c 2
 295 431 l 1
 549 431 l 2
 564 431 575 431 575 419 c 0
 575 416 574 411 573 406 c 2
 495 91 l 2
 492 79 492 69 492 62 c 0
 492 50 492 18 520 18 c 0
 547 18 568 51 587 128 c 0
 593 153 593 156 610 156 c 0
 615 156 629 156 629 143 c 1
EndSplineSet
Ligature2: "'liga' Standard Ligatures in Latin lookup 12 subtable" f i
Ligature2: "'liga' Standard Ligatures in Latin lookup 11 subtable" f i
Ligature2: "'liga' Standard Ligatures lookup 9 subtable" f i
EndChar

StartChar: f_l
Encoding: 64258 64258 126
Width: 631
Flags: MW
HStem: -204 28<52.5 74.5 52.5 112.5> -10 28<534 561.5 534 564> 398 33<146.5 226 156 220 295 529> 676 28<437.5 464>
VStem: -25 86<-127 -121.5> 454 66<56 65.5 56 87>
LayerCount: 2
Fore
SplineSet
657 143 m 1
 657 143 644 83 623 43 c 0
 606 12 582 -10 546 -10 c 0
 500 -10 454 21 454 82 c 0
 454 92 454 98 459 118 c 2
 529 398 l 1
 289 398 l 1
 221 41 l 2
 205 -43 162 -204 63 -204 c 0
 20 -204 -25 -181 -25 -137 c 0
 -25 -106 -3 -82 26 -82 c 0
 37 -82 61 -87 61 -116 c 0
 61 -138 46 -156 26 -164 c 1
 33 -170 41 -176 64 -176 c 0
 85 -176 111 -176 150 29 c 2
 220 398 l 1
 154 398 l 2
 139 398 126 398 126 412 c 0
 126 431 138 431 156 431 c 2
 226 431 l 1
 251 566 258 603 292 645 c 0
 341 704 422 704 453 704 c 0
 552 704 586 679 588 640 c 1
 589 640 l 1
 591 649 595 662 598 675 c 0
 603 693 604 694 627 694 c 2
 643 694 l 2
 659 694 669 694 669 682 c 2
 523 91 l 2
 520 79 520 69 520 62 c 0
 520 50 520 18 548 18 c 0
 575 18 596 51 615 128 c 0
 621 153 621 156 638 156 c 0
 643 156 657 156 657 143 c 1
537 431 m 1
 580 604 l 1
 579 604 l 1
 574 595 557 582 537 582 c 0
 526 582 502 587 502 616 c 0
 502 645 528 660 533 662 c 1
 510 674 474 676 454 676 c 0
 369 676 346 639 334 608 c 0
 325 582 325 580 295 431 c 1
 537 431 l 1
EndSplineSet
Ligature2: "'liga' Standard Ligatures lookup 8 subtable" f l
EndChar

StartChar: Aacute
Encoding: 193 193 127
Width: 797
Flags: MW
HStem: 0 33<254 254.5 507.5 515 714.5 719> 231 33<327 557 327 560 307 557> 694 20G<569 585> 744 21G<532 534> 887 20G<726.5 743.5>
LayerCount: 2
Fore
SplineSet
739 19 m 0
 739 0 725 0 720 0 c 0
 709 0 702 3 615 3 c 0
 578 3 539 0 504 0 c 0
 491 0 488 10 488 14 c 0
 488 33 500 33 515 33 c 0
 576 34 577 56 575 76 c 2
 560 231 l 1
 307 231 l 1
 285 194 285 192 257 147 c 0
 241 120 217 80 217 64 c 0
 217 43 233 35 254 33 c 0
 260 33 272 32 272 19 c 0
 272 0 257 0 252 0 c 0
 247 0 224 3 160 3 c 0
 93 3 86 0 78 0 c 0
 72 0 64 4 64 14 c 0
 64 31 74 32 86 33 c 0
 118 36 157 46 200 118 c 2
 543 693 l 2
 554 711 562 714 576 714 c 0
 594 714 597 709 599 687 c 2
 659 66 l 2
 661 42 662 33 711 33 c 0
 727 33 739 33 739 19 c 0
557 264 m 1
 525 594 l 1
 327 264 l 1
 557 264 l 1
763 870 m 0x18
 761 861 757 850 735 840 c 2
 547 749 l 2
 540 745 536 744 532 744 c 0
 521 746 516 762 517 768 c 0
 518 775 528 782 531 784 c 2
 708 898 l 1
 708 898 720 907 733 907 c 0
 754 907 767 891 763 870 c 0x18
EndSplineSet
Position2: "'cpsp' Capital Spacing lookup 0 subtable" dx=7 dy=0 dh=14 dv=0
EndChar

StartChar: aacute
Encoding: 225 225 128
Width: 549
Flags: MW
HStem: -10 28<214.5 264.5 442 469.5> 413 28<328 363 283 373.5> 501 21G<355.5 363> 676 20G<528 542>
VStem: 103 73<102 132.5 89 221.5>
LayerCount: 2
Fore
SplineSet
565 143 m 1
 565 143 552 83 531 43 c 0
 514 12 490 -10 454 -10 c 0
 406 -10 373 21 364 58 c 1
 343 34 294 -10 235 -10 c 0
 160 -10 103 54 103 150 c 0
 103 293 224 441 342 441 c 0
 384 441 413 420 434 385 c 1
 439 413 461 422 475 422 c 0
 492 422 505 410 505 394 c 0
 505 389 502 378 501 373 c 2
 431 91 l 2
 428 79 428 69 428 62 c 0
 428 50 428 18 456 18 c 0
 483 18 504 51 523 128 c 0
 529 153 529 156 546 156 c 0
 551 156 565 156 565 143 c 1
371 133 m 2
 413 304 l 1
 416 318 l 2
 416 328 405 413 342 413 c 0
 314 413 270 393 230 320 c 0
 205 274 176 156 176 109 c 0
 176 69 191 18 238 18 c 0
 297 18 363 98 371 133 c 2
566 665 m 0x30
 566 656 564 644 544 630 c 2
 375 508 l 2
 368 503 365 501 361 501 c 0
 350 501 342 516 342 522 c 0
 342 529 350 537 353 540 c 2
 507 683 l 1
 507 683 521 696 535 696 c 0
 549 696 566 686 566 665 c 0x30
EndSplineSet
EndChar

StartChar: Abreve
Encoding: 258 258 129
Width: 797
Flags: MW
HStem: 0 33<254 254.5 507.5 515 714.5 719> 231 33<327 557 327 560 307 557> 694 20G<569 585> 744 42<563 607.5 563 645.5> 899 20G<477.5 490 755 763.5>
LayerCount: 2
Fore
SplineSet
739 19 m 0
 739 0 725 0 720 0 c 0
 709 0 702 3 615 3 c 0
 578 3 539 0 504 0 c 0
 491 0 488 10 488 14 c 0
 488 33 500 33 515 33 c 0
 576 34 577 56 575 76 c 2
 560 231 l 1
 307 231 l 1
 285 194 285 192 257 147 c 0
 241 120 217 80 217 64 c 0
 217 43 233 35 254 33 c 0
 260 33 272 32 272 19 c 0
 272 0 257 0 252 0 c 0
 247 0 224 3 160 3 c 0
 93 3 86 0 78 0 c 0
 72 0 64 4 64 14 c 0
 64 31 74 32 86 33 c 0
 118 36 157 46 200 118 c 2
 543 693 l 2
 554 711 562 714 576 714 c 0
 594 714 597 709 599 687 c 2
 659 66 l 2
 661 42 662 33 711 33 c 0
 727 33 739 33 739 19 c 0
557 264 m 1
 525 594 l 1
 327 264 l 1
 557 264 l 1
774 905 m 0x18
 774 870 704 744 587 744 c 0
 512 744 468 799 468 867 c 0
 468 875 468 919 487 919 c 0
 493 919 501 914 501 904 c 0
 501 901 497 887 497 874 c 0
 497 822 535 786 591 786 c 0
 624 786 712 805 746 906 c 0
 747 910 750 919 760 919 c 0
 767 919 774 913 774 905 c 0x18
EndSplineSet
Position2: "'cpsp' Capital Spacing lookup 0 subtable" dx=7 dy=0 dh=14 dv=0
EndChar

StartChar: abreve
Encoding: 259 259 130
Width: 549
Flags: MW
HStem: -10 28<214.5 264.5 442 469.5> 413 28<328 363 283 373.5> 511 42<381 425.5 381 463.5> 666 20G<295.5 308 573 581.5>
VStem: 103 73<102 132.5 89 221.5>
LayerCount: 2
Fore
SplineSet
565 143 m 1
 565 143 552 83 531 43 c 0
 514 12 490 -10 454 -10 c 0
 406 -10 373 21 364 58 c 1
 343 34 294 -10 235 -10 c 0
 160 -10 103 54 103 150 c 0
 103 293 224 441 342 441 c 0
 384 441 413 420 434 385 c 1
 439 413 461 422 475 422 c 0
 492 422 505 410 505 394 c 0
 505 389 502 378 501 373 c 2
 431 91 l 2
 428 79 428 69 428 62 c 0
 428 50 428 18 456 18 c 0
 483 18 504 51 523 128 c 0
 529 153 529 156 546 156 c 0
 551 156 565 156 565 143 c 1
371 133 m 2
 413 304 l 1
 416 318 l 2
 416 328 405 413 342 413 c 0
 314 413 270 393 230 320 c 0
 205 274 176 156 176 109 c 0
 176 69 191 18 238 18 c 0
 297 18 363 98 371 133 c 2
592 672 m 0x30
 592 637 522 511 405 511 c 0
 330 511 286 566 286 634 c 0
 286 642 286 686 305 686 c 0
 311 686 319 681 319 671 c 0
 319 668 315 654 315 641 c 0
 315 589 353 553 409 553 c 0
 442 553 530 572 564 673 c 0
 565 677 568 686 578 686 c 0
 585 686 592 680 592 672 c 0x30
EndSplineSet
EndChar

StartChar: Abreveacute
Encoding: 7854 7854 131
Width: 797
Flags: MW
HStem: 0 33<254 254.5 507.5 515 714.5 719> 231 33<327 557 327 560 307 557> 694 20G<569 585> 744 42<563 607.5 563 645.5> 1082 20G<737.5 754.5>
LayerCount: 2
Fore
SplineSet
739 19 m 0
 739 0 725 0 720 0 c 0
 709 0 702 3 615 3 c 0
 578 3 539 0 504 0 c 0
 491 0 488 10 488 14 c 0
 488 33 500 33 515 33 c 0
 576 34 577 56 575 76 c 2
 560 231 l 1
 307 231 l 1
 285 194 285 192 257 147 c 0
 241 120 217 80 217 64 c 0
 217 43 233 35 254 33 c 0
 260 33 272 32 272 19 c 0
 272 0 257 0 252 0 c 0
 247 0 224 3 160 3 c 0
 93 3 86 0 78 0 c 0
 72 0 64 4 64 14 c 0
 64 31 74 32 86 33 c 0
 118 36 157 46 200 118 c 2
 543 693 l 2
 554 711 562 714 576 714 c 0
 594 714 597 709 599 687 c 2
 659 66 l 2
 661 42 662 33 711 33 c 0
 727 33 739 33 739 19 c 0
557 264 m 1
 525 594 l 1
 327 264 l 1
 557 264 l 1
774 905 m 0x18
 774 870 704 744 587 744 c 0
 512 744 468 799 468 867 c 0
 468 875 468 919 487 919 c 0
 493 919 501 914 501 904 c 0
 501 901 497 887 497 874 c 0
 497 822 535 786 591 786 c 0
 624 786 712 805 746 906 c 0
 747 910 750 919 760 919 c 0
 767 919 774 913 774 905 c 0x18
774 1065 m 0
 772 1056 768 1045 746 1035 c 2
 558 944 l 2
 551 940 547 939 543 939 c 0
 532 941 527 957 528 963 c 0
 529 970 539 977 542 979 c 2
 719 1093 l 1
 719 1093 731 1102 744 1102 c 0
 765 1102 778 1086 774 1065 c 0
EndSplineSet
Position2: "'cpsp' Capital Spacing lookup 0 subtable" dx=7 dy=0 dh=14 dv=0
EndChar

StartChar: abreveacute
Encoding: 7855 7855 132
Width: 549
Flags: MW
HStem: -10 28<214.5 264.5 442 469.5> 413 28<328 363 283 373.5> 512 42<381 425.5 381 463.5> 850 20G<555.5 572.5>
VStem: 103 73<102 132.5 89 221.5>
LayerCount: 2
Fore
SplineSet
565 143 m 1
 565 143 552 83 531 43 c 0
 514 12 490 -10 454 -10 c 0
 406 -10 373 21 364 58 c 1
 343 34 294 -10 235 -10 c 0
 160 -10 103 54 103 150 c 0
 103 293 224 441 342 441 c 0
 384 441 413 420 434 385 c 1
 439 413 461 422 475 422 c 0
 492 422 505 410 505 394 c 0
 505 389 502 378 501 373 c 2
 431 91 l 2
 428 79 428 69 428 62 c 0
 428 50 428 18 456 18 c 0
 483 18 504 51 523 128 c 0
 529 153 529 156 546 156 c 0
 551 156 565 156 565 143 c 1
371 133 m 2
 413 304 l 1
 416 318 l 2
 416 328 405 413 342 413 c 0
 314 413 270 393 230 320 c 0
 205 274 176 156 176 109 c 0
 176 69 191 18 238 18 c 0
 297 18 363 98 371 133 c 2
592 673 m 0x30
 592 638 522 512 405 512 c 0
 330 512 286 567 286 635 c 0
 286 643 286 687 305 687 c 0
 311 687 319 682 319 672 c 0
 319 669 315 655 315 642 c 0
 315 590 353 554 409 554 c 0
 442 554 530 573 564 674 c 0
 565 678 568 687 578 687 c 0
 585 687 592 681 592 673 c 0x30
592 833 m 0
 590 824 586 813 564 803 c 2
 376 712 l 2
 369 708 365 707 361 707 c 0
 350 709 345 725 346 731 c 0
 347 738 357 745 360 747 c 2
 537 861 l 1
 537 861 549 870 562 870 c 0
 583 870 596 854 592 833 c 0
EndSplineSet
EndChar

StartChar: Abrevedotbelow
Encoding: 7862 7862 133
Width: 797
Flags: MW
HStem: 0 33<254 254.5 507.5 515 714.5 719> 231 33<327 557 327 560 307 557> 694 20G<569 585> 744 42<563 607.5 563 645.5> 899 20G<477.5 490 755 763.5>
LayerCount: 2
Fore
SplineSet
739 19 m 0
 739 0 725 0 720 0 c 0
 709 0 702 3 615 3 c 0
 578 3 539 0 504 0 c 0
 491 0 488 10 488 14 c 0
 488 33 500 33 515 33 c 0
 576 34 577 56 575 76 c 2
 560 231 l 1
 307 231 l 1
 285 194 285 192 257 147 c 0
 241 120 217 80 217 64 c 0
 217 43 233 35 254 33 c 0
 260 33 272 32 272 19 c 0
 272 0 257 0 252 0 c 0
 247 0 224 3 160 3 c 0
 93 3 86 0 78 0 c 0
 72 0 64 4 64 14 c 0
 64 31 74 32 86 33 c 0
 118 36 157 46 200 118 c 2
 543 693 l 2
 554 711 562 714 576 714 c 0
 594 714 597 709 599 687 c 2
 659 66 l 2
 661 42 662 33 711 33 c 0
 727 33 739 33 739 19 c 0
557 264 m 1
 525 594 l 1
 327 264 l 1
 557 264 l 1
774 905 m 0
 774 870 704 744 587 744 c 0
 512 744 468 799 468 867 c 0
 468 875 468 919 487 919 c 0
 493 919 501 914 501 904 c 0
 501 901 497 887 497 874 c 0
 497 822 535 786 591 786 c 0
 624 786 712 805 746 906 c 0
 747 910 750 919 760 919 c 0
 767 919 774 913 774 905 c 0
419 -135 m 0
 419 -171 385 -200 352 -200 c 0
 329 -200 306 -184 306 -154 c 0
 306 -120 339 -89 373 -89 c 0
 391 -89 419 -100 419 -135 c 0
EndSplineSet
Position2: "'cpsp' Capital Spacing lookup 0 subtable" dx=7 dy=0 dh=14 dv=0
EndChar

StartChar: abrevedotbelow
Encoding: 7863 7863 134
Width: 549
Flags: MW
HStem: -10 28<214.5 264.5 442 469.5> 413 28<328 363 283 373.5> 511 42<381 425.5 381 463.5> 666 20G<295.5 308 573 581.5>
VStem: 103 73<102 132.5 89 221.5>
LayerCount: 2
Fore
SplineSet
565 143 m 1
 565 143 552 83 531 43 c 0
 514 12 490 -10 454 -10 c 0
 406 -10 373 21 364 58 c 1
 343 34 294 -10 235 -10 c 0
 160 -10 103 54 103 150 c 0
 103 293 224 441 342 441 c 0
 384 441 413 420 434 385 c 1
 439 413 461 422 475 422 c 0
 492 422 505 410 505 394 c 0
 505 389 502 378 501 373 c 2
 431 91 l 2
 428 79 428 69 428 62 c 0
 428 50 428 18 456 18 c 0
 483 18 504 51 523 128 c 0
 529 153 529 156 546 156 c 0
 551 156 565 156 565 143 c 1
371 133 m 2
 413 304 l 1
 416 318 l 2
 416 328 405 413 342 413 c 0
 314 413 270 393 230 320 c 0
 205 274 176 156 176 109 c 0
 176 69 191 18 238 18 c 0
 297 18 363 98 371 133 c 2
592 672 m 0
 592 637 522 511 405 511 c 0
 330 511 286 566 286 634 c 0
 286 642 286 686 305 686 c 0
 311 686 319 681 319 671 c 0
 319 668 315 654 315 641 c 0
 315 589 353 553 409 553 c 0
 442 553 530 572 564 673 c 0
 565 677 568 686 578 686 c 0
 585 686 592 680 592 672 c 0
295 -135 m 0
 295 -171 261 -200 228 -200 c 0
 205 -200 182 -184 182 -154 c 0
 182 -120 215 -89 249 -89 c 0
 267 -89 295 -100 295 -135 c 0
EndSplineSet
EndChar

StartChar: Abrevegrave
Encoding: 7856 7856 135
Width: 797
Flags: MW
HStem: 0 33<254 254.5 507.5 515 714.5 719> 231 33<327 557 327 560 307 557> 694 20G<569 585> 744 42<563 607.5 563 645.5> 899 20G<477.5 490 755 763.5>
LayerCount: 2
Fore
SplineSet
739 19 m 0
 739 0 725 0 720 0 c 0
 709 0 702 3 615 3 c 0
 578 3 539 0 504 0 c 0
 491 0 488 10 488 14 c 0
 488 33 500 33 515 33 c 0
 576 34 577 56 575 76 c 2
 560 231 l 1
 307 231 l 1
 285 194 285 192 257 147 c 0
 241 120 217 80 217 64 c 0
 217 43 233 35 254 33 c 0
 260 33 272 32 272 19 c 0
 272 0 257 0 252 0 c 0
 247 0 224 3 160 3 c 0
 93 3 86 0 78 0 c 0
 72 0 64 4 64 14 c 0
 64 31 74 32 86 33 c 0
 118 36 157 46 200 118 c 2
 543 693 l 2
 554 711 562 714 576 714 c 0
 594 714 597 709 599 687 c 2
 659 66 l 2
 661 42 662 33 711 33 c 0
 727 33 739 33 739 19 c 0
557 264 m 1
 525 594 l 1
 327 264 l 1
 557 264 l 1
774 905 m 0x18
 774 870 704 744 587 744 c 0
 512 744 468 799 468 867 c 0
 468 875 468 919 487 919 c 0
 493 919 501 914 501 904 c 0
 501 901 497 887 497 874 c 0
 497 822 535 786 591 786 c 0
 624 786 712 805 746 906 c 0
 747 910 750 919 760 919 c 0
 767 919 774 913 774 905 c 0x18
748 963 m 0
 751 970 744 977 742 979 c 2
 622 1093 l 1
 622 1093 614 1102 601 1102 c 0
 581 1102 560 1086 553 1065 c 0
 551 1056 549 1045 566 1035 c 2
 709 944 l 2
 714 940 717 939 721 939 c 0
 733 941 746 957 748 963 c 0
EndSplineSet
Position2: "'cpsp' Capital Spacing lookup 0 subtable" dx=7 dy=0 dh=14 dv=0
EndChar

StartChar: abrevegrave
Encoding: 7857 7857 136
Width: 549
Flags: MW
HStem: -10 28<214.5 264.5 442 469.5> 413 28<328 363 283 373.5> 512 42<381 425.5 381 463.5> 667 20G<295.5 308 573 581.5>
VStem: 103 73<102 132.5 89 221.5>
LayerCount: 2
Fore
SplineSet
565 143 m 1
 565 143 552 83 531 43 c 0
 514 12 490 -10 454 -10 c 0
 406 -10 373 21 364 58 c 1
 343 34 294 -10 235 -10 c 0
 160 -10 103 54 103 150 c 0
 103 293 224 441 342 441 c 0
 384 441 413 420 434 385 c 1
 439 413 461 422 475 422 c 0
 492 422 505 410 505 394 c 0
 505 389 502 378 501 373 c 2
 431 91 l 2
 428 79 428 69 428 62 c 0
 428 50 428 18 456 18 c 0
 483 18 504 51 523 128 c 0
 529 153 529 156 546 156 c 0
 551 156 565 156 565 143 c 1
371 133 m 2
 413 304 l 1
 416 318 l 2
 416 328 405 413 342 413 c 0
 314 413 270 393 230 320 c 0
 205 274 176 156 176 109 c 0
 176 69 191 18 238 18 c 0
 297 18 363 98 371 133 c 2
592 673 m 0x30
 592 638 522 512 405 512 c 0
 330 512 286 567 286 635 c 0
 286 643 286 687 305 687 c 0
 311 687 319 682 319 672 c 0
 319 669 315 655 315 642 c 0
 315 590 353 554 409 554 c 0
 442 554 530 573 564 674 c 0
 565 678 568 687 578 687 c 0
 585 687 592 681 592 673 c 0x30
566 731 m 0
 569 738 562 745 560 747 c 2
 440 861 l 1
 440 861 432 870 419 870 c 0
 399 870 378 854 371 833 c 0
 369 824 367 813 384 803 c 2
 527 712 l 2
 532 708 535 707 539 707 c 0
 551 709 564 725 566 731 c 0
EndSplineSet
EndChar

StartChar: Abrevehookabove
Encoding: 7858 7858 137
Width: 797
Flags: MW
HStem: 0 33<254 254.5 507.5 515 714.5 719> 231 33<327 557 327 560 307 557> 694 20G<569 585> 744 42<563 607.5 563 645.5> 1104 20G<648.5 684>
LayerCount: 2
Fore
SplineSet
739 19 m 0
 739 0 725 0 720 0 c 0
 709 0 702 3 615 3 c 0
 578 3 539 0 504 0 c 0
 491 0 488 10 488 14 c 0
 488 33 500 33 515 33 c 0
 576 34 577 56 575 76 c 2
 560 231 l 1
 307 231 l 1
 285 194 285 192 257 147 c 0
 241 120 217 80 217 64 c 0
 217 43 233 35 254 33 c 0
 260 33 272 32 272 19 c 0
 272 0 257 0 252 0 c 0
 247 0 224 3 160 3 c 0
 93 3 86 0 78 0 c 0
 72 0 64 4 64 14 c 0
 64 31 74 32 86 33 c 0
 118 36 157 46 200 118 c 2
 543 693 l 2
 554 711 562 714 576 714 c 0
 594 714 597 709 599 687 c 2
 659 66 l 2
 661 42 662 33 711 33 c 0
 727 33 739 33 739 19 c 0
557 264 m 1
 525 594 l 1
 327 264 l 1
 557 264 l 1
774 905 m 0x18
 774 870 704 744 587 744 c 0
 512 744 468 799 468 867 c 0
 468 875 468 919 487 919 c 0
 493 919 501 914 501 904 c 0
 501 901 497 887 497 874 c 0
 497 822 535 786 591 786 c 0
 624 786 712 805 746 906 c 0
 747 910 750 919 760 919 c 0
 767 919 774 913 774 905 c 0x18
758 1055 m 0
 754 1036 738 1021 719 1013 c 0
 676 994 647 973 640 946 c 2
 636 928 l 2
 634 922 629 919 624 919 c 2
 621 919 l 2
 616 920 612 925 612 931 c 2
 612 934 l 1
 617 952 l 2
 625 985 652 1013 687 1035 c 0
 696 1041 703 1050 706 1061 c 0
 708 1068 709 1074 709 1079 c 0
 709 1084 708 1088 706 1090 c 0
 700 1097 688 1100 669 1100 c 2
 668 1100 l 2
 646 1100 625 1093 610 1082 c 1
 617 1078 621 1071 621 1062 c 2
 621 1062 621 1057 620 1055 c 0
 616 1040 603 1031 590 1031 c 0
 577 1031 566 1039 566 1053 c 0
 566 1056 566 1058 567 1061 c 2
 569 1068 l 2
 583 1103 627 1124 670 1124 c 0
 698 1124 721 1121 740 1108 c 0
 753 1099 760 1084 760 1068 c 0
 760 1064 759 1059 758 1055 c 0
EndSplineSet
Position2: "'cpsp' Capital Spacing lookup 0 subtable" dx=7 dy=0 dh=14 dv=0
EndChar

StartChar: abrevehookabove
Encoding: 7859 7859 138
Width: 549
Flags: MW
HStem: -10 28<214.5 264.5 442 469.5> 413 28<328 363 283 373.5> 512 42<381 425.5 381 463.5> 872 20G<466.5 502>
VStem: 103 73<102 132.5 89 221.5>
LayerCount: 2
Fore
SplineSet
565 143 m 1
 565 143 552 83 531 43 c 0
 514 12 490 -10 454 -10 c 0
 406 -10 373 21 364 58 c 1
 343 34 294 -10 235 -10 c 0
 160 -10 103 54 103 150 c 0
 103 293 224 441 342 441 c 0
 384 441 413 420 434 385 c 1
 439 413 461 422 475 422 c 0
 492 422 505 410 505 394 c 0
 505 389 502 378 501 373 c 2
 431 91 l 2
 428 79 428 69 428 62 c 0
 428 50 428 18 456 18 c 0
 483 18 504 51 523 128 c 0
 529 153 529 156 546 156 c 0
 551 156 565 156 565 143 c 1
371 133 m 2
 413 304 l 1
 416 318 l 2
 416 328 405 413 342 413 c 0
 314 413 270 393 230 320 c 0
 205 274 176 156 176 109 c 0
 176 69 191 18 238 18 c 0
 297 18 363 98 371 133 c 2
592 673 m 0x30
 592 638 522 512 405 512 c 0
 330 512 286 567 286 635 c 0
 286 643 286 687 305 687 c 0
 311 687 319 682 319 672 c 0
 319 669 315 655 315 642 c 0
 315 590 353 554 409 554 c 0
 442 554 530 573 564 674 c 0
 565 678 568 687 578 687 c 0
 585 687 592 681 592 673 c 0x30
576 823 m 0
 572 804 556 789 537 781 c 0
 494 762 465 741 458 714 c 2
 454 696 l 2
 452 690 447 687 442 687 c 2
 439 687 l 2
 434 688 430 693 430 699 c 2
 430 702 l 1
 435 720 l 2
 443 753 470 781 505 803 c 0
 514 809 521 818 524 829 c 0
 526 836 527 842 527 847 c 0
 527 852 526 856 524 858 c 0
 518 865 506 868 487 868 c 2
 486 868 l 2
 464 868 443 861 428 850 c 1
 435 846 439 839 439 830 c 2
 439 830 439 825 438 823 c 0
 434 808 421 799 408 799 c 0
 395 799 384 807 384 821 c 0
 384 824 384 826 385 829 c 2
 387 836 l 2
 401 871 445 892 488 892 c 0
 516 892 539 889 558 876 c 0
 571 867 578 852 578 836 c 0
 578 832 577 827 576 823 c 0
EndSplineSet
EndChar

StartChar: Abrevetilde
Encoding: 7860 7860 139
Width: 797
Flags: MW
HStem: 0 33<254 254.5 507.5 515 714.5 719> 231 33<327 557 327 560 307 557> 694 20G<569 585> 744 42<563 607.5 563 645.5> 959 41<696.5 703.5> 1026 41<599.5 605>
LayerCount: 2
Fore
SplineSet
739 19 m 0
 739 0 725 0 720 0 c 0
 709 0 702 3 615 3 c 0
 578 3 539 0 504 0 c 0
 491 0 488 10 488 14 c 0
 488 33 500 33 515 33 c 0
 576 34 577 56 575 76 c 2
 560 231 l 1
 307 231 l 1
 285 194 285 192 257 147 c 0
 241 120 217 80 217 64 c 0
 217 43 233 35 254 33 c 0
 260 33 272 32 272 19 c 0
 272 0 257 0 252 0 c 0
 247 0 224 3 160 3 c 0
 93 3 86 0 78 0 c 0
 72 0 64 4 64 14 c 0
 64 31 74 32 86 33 c 0
 118 36 157 46 200 118 c 2
 543 693 l 2
 554 711 562 714 576 714 c 0
 594 714 597 709 599 687 c 2
 659 66 l 2
 661 42 662 33 711 33 c 0
 727 33 739 33 739 19 c 0
557 264 m 1
 525 594 l 1
 327 264 l 1
 557 264 l 1
774 905 m 0x1c
 774 870 704 744 587 744 c 0
 512 744 468 799 468 867 c 0
 468 875 468 919 487 919 c 0
 493 919 501 914 501 904 c 0
 501 901 497 887 497 874 c 0
 497 822 535 786 591 786 c 0
 624 786 712 805 746 906 c 0
 747 910 750 919 760 919 c 0
 767 919 774 913 774 905 c 0x1c
825 1053 m 0
 825 1042 793 1017 771 1000 c 0
 755 986 719 959 688 959 c 0
 658 959 644 981 634 997 c 0
 617 1023 611 1026 599 1026 c 0
 568 1026 513 975 504 967 c 0
 499 962 496 959 490 959 c 0
 483 959 477 965 477 973 c 0
 477 984 510 1010 530 1026 c 0
 555 1046 586 1067 613 1067 c 0
 643 1067 656 1048 672 1023 c 0
 685 1003 691 1000 702 1000 c 0
 732 1000 781 1045 794 1056 c 0
 803 1065 807 1067 811 1067 c 0
 819 1067 825 1061 825 1053 c 0
EndSplineSet
Position2: "'cpsp' Capital Spacing lookup 0 subtable" dx=7 dy=0 dh=14 dv=0
EndChar

StartChar: abrevetilde
Encoding: 7861 7861 140
Width: 549
Flags: MW
HStem: -10 28<214.5 264.5 442 469.5> 413 28<328 363 283 373.5> 512 42<381 425.5 381 463.5> 727 41<514.5 521.5> 794 41<417.5 423>
VStem: 103 73<102 132.5 89 221.5>
LayerCount: 2
Fore
SplineSet
565 143 m 1
 565 143 552 83 531 43 c 0
 514 12 490 -10 454 -10 c 0
 406 -10 373 21 364 58 c 1
 343 34 294 -10 235 -10 c 0
 160 -10 103 54 103 150 c 0
 103 293 224 441 342 441 c 0
 384 441 413 420 434 385 c 1
 439 413 461 422 475 422 c 0
 492 422 505 410 505 394 c 0
 505 389 502 378 501 373 c 2
 431 91 l 2
 428 79 428 69 428 62 c 0
 428 50 428 18 456 18 c 0
 483 18 504 51 523 128 c 0
 529 153 529 156 546 156 c 0
 551 156 565 156 565 143 c 1
371 133 m 2
 413 304 l 1
 416 318 l 2
 416 328 405 413 342 413 c 0
 314 413 270 393 230 320 c 0
 205 274 176 156 176 109 c 0
 176 69 191 18 238 18 c 0
 297 18 363 98 371 133 c 2
592 673 m 0x38
 592 638 522 512 405 512 c 0
 330 512 286 567 286 635 c 0
 286 643 286 687 305 687 c 0
 311 687 319 682 319 672 c 0
 319 669 315 655 315 642 c 0
 315 590 353 554 409 554 c 0
 442 554 530 573 564 674 c 0
 565 678 568 687 578 687 c 0
 585 687 592 681 592 673 c 0x38
643 821 m 0
 643 810 611 785 589 768 c 0
 573 754 537 727 506 727 c 0
 476 727 462 749 452 765 c 0
 435 791 429 794 417 794 c 0
 386 794 331 743 322 735 c 0
 317 730 314 727 308 727 c 0
 301 727 295 733 295 741 c 0
 295 752 328 778 348 794 c 0
 373 814 404 835 431 835 c 0
 461 835 474 816 490 791 c 0
 503 771 509 768 520 768 c 0
 550 768 599 813 612 824 c 0
 621 833 625 835 629 835 c 0
 637 835 643 829 643 821 c 0
EndSplineSet
EndChar

StartChar: Acaron
Encoding: 461 461 141
Width: 797
Flags: MW
HStem: 0 33<254 254.5 507.5 515 714.5 719> 231 33<327 557 327 560 307 557> 694 20G<569 585>
LayerCount: 2
Fore
SplineSet
739 19 m 0
 739 0 725 0 720 0 c 0
 709 0 702 3 615 3 c 0
 578 3 539 0 504 0 c 0
 491 0 488 10 488 14 c 0
 488 33 500 33 515 33 c 0
 576 34 577 56 575 76 c 2
 560 231 l 1
 307 231 l 1
 285 194 285 192 257 147 c 0
 241 120 217 80 217 64 c 0
 217 43 233 35 254 33 c 0
 260 33 272 32 272 19 c 0
 272 0 257 0 252 0 c 0
 247 0 224 3 160 3 c 0
 93 3 86 0 78 0 c 0
 72 0 64 4 64 14 c 0
 64 31 74 32 86 33 c 0
 118 36 157 46 200 118 c 2
 543 693 l 2
 554 711 562 714 576 714 c 0
 594 714 597 709 599 687 c 2
 659 66 l 2
 661 42 662 33 711 33 c 0
 727 33 739 33 739 19 c 0
557 264 m 1
 525 594 l 1
 327 264 l 1
 557 264 l 1
743 834 m 2
 588 736 l 2
 584 734 579 734 576 736 c 2
 470 834 l 2
 461 841 474 857 485 852 c 2
 596 797 l 1
 737 852 l 2
 749 857 754 841 743 834 c 2
EndSplineSet
EndChar

StartChar: acaron
Encoding: 462 462 142
Width: 549
Flags: MW
HStem: -10 28<214.5 264.5 442 469.5> 413 28<328 363 283 373.5>
VStem: 103 73<102 132.5 89 221.5>
LayerCount: 2
Fore
SplineSet
565 143 m 1
 565 143 552 83 531 43 c 0
 514 12 490 -10 454 -10 c 0
 406 -10 373 21 364 58 c 1
 343 34 294 -10 235 -10 c 0
 160 -10 103 54 103 150 c 0
 103 293 224 441 342 441 c 0
 384 441 413 420 434 385 c 1
 439 413 461 422 475 422 c 0
 492 422 505 410 505 394 c 0
 505 389 502 378 501 373 c 2
 431 91 l 2
 428 79 428 69 428 62 c 0
 428 50 428 18 456 18 c 0
 483 18 504 51 523 128 c 0
 529 153 529 156 546 156 c 0
 551 156 565 156 565 143 c 1
371 133 m 2
 413 304 l 1
 416 318 l 2
 416 328 405 413 342 413 c 0
 314 413 270 393 230 320 c 0
 205 274 176 156 176 109 c 0
 176 69 191 18 238 18 c 0
 297 18 363 98 371 133 c 2
578 663 m 2
 412 519 l 2
 407 515 400 515 397 519 c 2
 303 663 l 2
 296 673 313 687 321 679 c 2
 419 580 l 1
 567 679 l 2
 579 687 589 673 578 663 c 2
EndSplineSet
EndChar

StartChar: Acircumflex
Encoding: 194 194 143
Width: 797
Flags: MW
HStem: 0 33<254 254.5 507.5 515 714.5 719> 231 33<327 557 327 560 307 557> 694 20G<569 585>
LayerCount: 2
Fore
SplineSet
739 19 m 0
 739 0 725 0 720 0 c 0
 709 0 702 3 615 3 c 0
 578 3 539 0 504 0 c 0
 491 0 488 10 488 14 c 0
 488 33 500 33 515 33 c 0
 576 34 577 56 575 76 c 2
 560 231 l 1
 307 231 l 1
 285 194 285 192 257 147 c 0
 241 120 217 80 217 64 c 0
 217 43 233 35 254 33 c 0
 260 33 272 32 272 19 c 0
 272 0 257 0 252 0 c 0
 247 0 224 3 160 3 c 0
 93 3 86 0 78 0 c 0
 72 0 64 4 64 14 c 0
 64 31 74 32 86 33 c 0
 118 36 157 46 200 118 c 2
 543 693 l 2
 554 711 562 714 576 714 c 0
 594 714 597 709 599 687 c 2
 659 66 l 2
 661 42 662 33 711 33 c 0
 727 33 739 33 739 19 c 0
557 264 m 1
 525 594 l 1
 327 264 l 1
 557 264 l 1
722 753 m 2
 731 746 718 730 708 735 c 2
 596 790 l 1
 456 735 l 2
 443 730 438 746 449 753 c 2
 605 851 l 2
 608 853 613 853 617 851 c 2
 722 753 l 2
EndSplineSet
Position2: "'cpsp' Capital Spacing lookup 0 subtable" dx=7 dy=0 dh=14 dv=0
EndChar

StartChar: acircumflex
Encoding: 226 226 144
Width: 549
Flags: MW
HStem: -10 28<214.5 264.5 442 469.5> 413 28<328 363 283 373.5>
VStem: 103 73<102 132.5 89 221.5>
LayerCount: 2
Fore
SplineSet
565 143 m 1
 565 143 552 83 531 43 c 0
 514 12 490 -10 454 -10 c 0
 406 -10 373 21 364 58 c 1
 343 34 294 -10 235 -10 c 0
 160 -10 103 54 103 150 c 0
 103 293 224 441 342 441 c 0
 384 441 413 420 434 385 c 1
 439 413 461 422 475 422 c 0
 492 422 505 410 505 394 c 0
 505 389 502 378 501 373 c 2
 431 91 l 2
 428 79 428 69 428 62 c 0
 428 50 428 18 456 18 c 0
 483 18 504 51 523 128 c 0
 529 153 529 156 546 156 c 0
 551 156 565 156 565 143 c 1
371 133 m 2
 413 304 l 1
 416 318 l 2
 416 328 405 413 342 413 c 0
 314 413 270 393 230 320 c 0
 205 274 176 156 176 109 c 0
 176 69 191 18 238 18 c 0
 297 18 363 98 371 133 c 2
545 534 m 2
 553 524 535 510 527 518 c 2
 429 617 l 1
 281 518 l 2
 269 510 260 524 270 534 c 2
 436 678 l 2
 441 682 448 682 451 678 c 2
 545 534 l 2
EndSplineSet
EndChar

StartChar: Acircumflexacute
Encoding: 7844 7844 145
Width: 797
Flags: MW
HStem: 0 33<254 254.5 507.5 515 714.5 719> 231 33<327 557 327 560 307 557> 694 20G<569 585> 1016 20G<721.5 738.5>
LayerCount: 2
Fore
SplineSet
739 19 m 0
 739 0 725 0 720 0 c 0
 709 0 702 3 615 3 c 0
 578 3 539 0 504 0 c 0
 491 0 488 10 488 14 c 0
 488 33 500 33 515 33 c 0
 576 34 577 56 575 76 c 2
 560 231 l 1
 307 231 l 1
 285 194 285 192 257 147 c 0
 241 120 217 80 217 64 c 0
 217 43 233 35 254 33 c 0
 260 33 272 32 272 19 c 0
 272 0 257 0 252 0 c 0
 247 0 224 3 160 3 c 0
 93 3 86 0 78 0 c 0
 72 0 64 4 64 14 c 0
 64 31 74 32 86 33 c 0
 118 36 157 46 200 118 c 2
 543 693 l 2
 554 711 562 714 576 714 c 0
 594 714 597 709 599 687 c 2
 659 66 l 2
 661 42 662 33 711 33 c 0
 727 33 739 33 739 19 c 0
557 264 m 1
 525 594 l 1
 327 264 l 1
 557 264 l 1
722 753 m 2x10
 731 746 718 730 708 735 c 2
 596 790 l 1
 456 735 l 2
 443 730 438 746 449 753 c 2
 605 851 l 2
 608 853 613 853 617 851 c 2
 722 753 l 2x10
758 999 m 0
 756 990 752 979 730 969 c 2
 542 878 l 2
 535 874 531 873 527 873 c 0
 516 875 511 891 512 897 c 0
 513 904 523 911 526 913 c 2
 703 1027 l 1
 703 1027 715 1036 728 1036 c 0
 749 1036 762 1020 758 999 c 0
EndSplineSet
Position2: "'cpsp' Capital Spacing lookup 0 subtable" dx=7 dy=0 dh=14 dv=0
EndChar

StartChar: acircumflexacute
Encoding: 7845 7845 146
Width: 549
Flags: MW
HStem: -10 28<214.5 264.5 442 469.5> 413 28<328 363 283 373.5> 798 20G<543.5 560.5>
VStem: 103 73<102 132.5 89 221.5>
LayerCount: 2
Fore
SplineSet
565 143 m 1
 565 143 552 83 531 43 c 0
 514 12 490 -10 454 -10 c 0
 406 -10 373 21 364 58 c 1
 343 34 294 -10 235 -10 c 0
 160 -10 103 54 103 150 c 0
 103 293 224 441 342 441 c 0
 384 441 413 420 434 385 c 1
 439 413 461 422 475 422 c 0
 492 422 505 410 505 394 c 0
 505 389 502 378 501 373 c 2
 431 91 l 2
 428 79 428 69 428 62 c 0
 428 50 428 18 456 18 c 0
 483 18 504 51 523 128 c 0
 529 153 529 156 546 156 c 0
 551 156 565 156 565 143 c 1
371 133 m 2
 413 304 l 1
 416 318 l 2
 416 328 405 413 342 413 c 0
 314 413 270 393 230 320 c 0
 205 274 176 156 176 109 c 0
 176 69 191 18 238 18 c 0
 297 18 363 98 371 133 c 2
544 535 m 2x20
 553 528 540 512 530 517 c 2
 418 572 l 1
 278 517 l 2
 265 512 260 528 271 535 c 2
 427 633 l 2
 430 635 435 635 439 633 c 2
 544 535 l 2x20
580 781 m 0
 578 772 574 761 552 751 c 2
 364 660 l 2
 357 656 353 655 349 655 c 0
 338 657 333 673 334 679 c 0
 335 686 345 693 348 695 c 2
 525 809 l 1
 525 809 537 818 550 818 c 0
 571 818 584 802 580 781 c 0
EndSplineSet
EndChar

StartChar: Acircumflexdotbelow
Encoding: 7852 7852 147
Width: 797
Flags: MW
HStem: 0 33<254 254.5 507.5 515 714.5 719> 231 33<327 557 327 560 307 557> 694 20G<569 585>
LayerCount: 2
Fore
SplineSet
739 19 m 0
 739 0 725 0 720 0 c 0
 709 0 702 3 615 3 c 0
 578 3 539 0 504 0 c 0
 491 0 488 10 488 14 c 0
 488 33 500 33 515 33 c 0
 576 34 577 56 575 76 c 2
 560 231 l 1
 307 231 l 1
 285 194 285 192 257 147 c 0
 241 120 217 80 217 64 c 0
 217 43 233 35 254 33 c 0
 260 33 272 32 272 19 c 0
 272 0 257 0 252 0 c 0
 247 0 224 3 160 3 c 0
 93 3 86 0 78 0 c 0
 72 0 64 4 64 14 c 0
 64 31 74 32 86 33 c 0
 118 36 157 46 200 118 c 2
 543 693 l 2
 554 711 562 714 576 714 c 0
 594 714 597 709 599 687 c 2
 659 66 l 2
 661 42 662 33 711 33 c 0
 727 33 739 33 739 19 c 0
557 264 m 1
 525 594 l 1
 327 264 l 1
 557 264 l 1
722 753 m 2
 731 746 718 730 708 735 c 2
 596 790 l 1
 456 735 l 2
 443 730 438 746 449 753 c 2
 605 851 l 2
 608 853 613 853 617 851 c 2
 722 753 l 2
419 -135 m 0
 419 -171 385 -200 352 -200 c 0
 329 -200 306 -184 306 -154 c 0
 306 -120 339 -89 373 -89 c 0
 391 -89 419 -100 419 -135 c 0
EndSplineSet
Position2: "'cpsp' Capital Spacing lookup 0 subtable" dx=7 dy=0 dh=14 dv=0
EndChar

StartChar: acircumflexdotbelow
Encoding: 7853 7853 148
Width: 549
Flags: MW
HStem: -10 28<214.5 264.5 442 469.5> 413 28<328 363 283 373.5>
VStem: 103 73<102 132.5 89 221.5>
LayerCount: 2
Fore
SplineSet
565 143 m 1
 565 143 552 83 531 43 c 0
 514 12 490 -10 454 -10 c 0
 406 -10 373 21 364 58 c 1
 343 34 294 -10 235 -10 c 0
 160 -10 103 54 103 150 c 0
 103 293 224 441 342 441 c 0
 384 441 413 420 434 385 c 1
 439 413 461 422 475 422 c 0
 492 422 505 410 505 394 c 0
 505 389 502 378 501 373 c 2
 431 91 l 2
 428 79 428 69 428 62 c 0
 428 50 428 18 456 18 c 0
 483 18 504 51 523 128 c 0
 529 153 529 156 546 156 c 0
 551 156 565 156 565 143 c 1
371 133 m 2
 413 304 l 1
 416 318 l 2
 416 328 405 413 342 413 c 0
 314 413 270 393 230 320 c 0
 205 274 176 156 176 109 c 0
 176 69 191 18 238 18 c 0
 297 18 363 98 371 133 c 2
545 534 m 2
 553 524 535 510 527 518 c 2
 429 617 l 1
 281 518 l 2
 269 510 260 524 270 534 c 2
 436 678 l 2
 441 682 448 682 451 678 c 2
 545 534 l 2
295 -135 m 0
 295 -171 261 -200 228 -200 c 0
 205 -200 182 -184 182 -154 c 0
 182 -120 215 -89 249 -89 c 0
 267 -89 295 -100 295 -135 c 0
EndSplineSet
EndChar

StartChar: Acircumflexgrave
Encoding: 7846 7846 149
Width: 797
Flags: MW
HStem: 0 33<254 254.5 507.5 515 714.5 719> 231 33<327 557 327 560 307 557> 694 20G<569 585>
LayerCount: 2
Fore
SplineSet
739 19 m 0
 739 0 725 0 720 0 c 0
 709 0 702 3 615 3 c 0
 578 3 539 0 504 0 c 0
 491 0 488 10 488 14 c 0
 488 33 500 33 515 33 c 0
 576 34 577 56 575 76 c 2
 560 231 l 1
 307 231 l 1
 285 194 285 192 257 147 c 0
 241 120 217 80 217 64 c 0
 217 43 233 35 254 33 c 0
 260 33 272 32 272 19 c 0
 272 0 257 0 252 0 c 0
 247 0 224 3 160 3 c 0
 93 3 86 0 78 0 c 0
 72 0 64 4 64 14 c 0
 64 31 74 32 86 33 c 0
 118 36 157 46 200 118 c 2
 543 693 l 2
 554 711 562 714 576 714 c 0
 594 714 597 709 599 687 c 2
 659 66 l 2
 661 42 662 33 711 33 c 0
 727 33 739 33 739 19 c 0
557 264 m 1
 525 594 l 1
 327 264 l 1
 557 264 l 1
722 753 m 2
 731 746 718 730 708 735 c 2
 596 790 l 1
 456 735 l 2
 443 730 438 746 449 753 c 2
 605 851 l 2
 608 853 613 853 617 851 c 2
 722 753 l 2
732 897 m 0
 735 904 728 911 726 913 c 2
 606 1027 l 1
 606 1027 598 1036 585 1036 c 0
 565 1036 544 1020 537 999 c 0
 535 990 533 979 550 969 c 2
 693 878 l 2
 698 874 701 873 705 873 c 0
 717 875 730 891 732 897 c 0
EndSplineSet
Position2: "'cpsp' Capital Spacing lookup 0 subtable" dx=7 dy=0 dh=14 dv=0
EndChar

StartChar: acircumflexgrave
Encoding: 7847 7847 150
Width: 549
Flags: MW
HStem: -10 28<214.5 264.5 442 469.5> 413 28<328 363 283 373.5>
VStem: 103 73<102 132.5 89 221.5>
LayerCount: 2
Fore
SplineSet
565 143 m 1
 565 143 552 83 531 43 c 0
 514 12 490 -10 454 -10 c 0
 406 -10 373 21 364 58 c 1
 343 34 294 -10 235 -10 c 0
 160 -10 103 54 103 150 c 0
 103 293 224 441 342 441 c 0
 384 441 413 420 434 385 c 1
 439 413 461 422 475 422 c 0
 492 422 505 410 505 394 c 0
 505 389 502 378 501 373 c 2
 431 91 l 2
 428 79 428 69 428 62 c 0
 428 50 428 18 456 18 c 0
 483 18 504 51 523 128 c 0
 529 153 529 156 546 156 c 0
 551 156 565 156 565 143 c 1
371 133 m 2
 413 304 l 1
 416 318 l 2
 416 328 405 413 342 413 c 0
 314 413 270 393 230 320 c 0
 205 274 176 156 176 109 c 0
 176 69 191 18 238 18 c 0
 297 18 363 98 371 133 c 2
544 535 m 2
 553 528 540 512 530 517 c 2
 418 572 l 1
 278 517 l 2
 265 512 260 528 271 535 c 2
 427 633 l 2
 430 635 435 635 439 633 c 2
 544 535 l 2
554 679 m 0
 557 686 550 693 548 695 c 2
 428 809 l 1
 428 809 420 818 407 818 c 0
 387 818 366 802 359 781 c 0
 357 772 355 761 372 751 c 2
 515 660 l 2
 520 656 523 655 527 655 c 0
 539 657 552 673 554 679 c 0
EndSplineSet
EndChar

StartChar: Acircumflexhookabove
Encoding: 7848 7848 151
Width: 797
Flags: MW
HStem: 0 33<254 254.5 507.5 515 714.5 719> 231 33<327 557 327 560 307 557> 694 20G<569 585> 1038 20G<727.5 763>
LayerCount: 2
Fore
SplineSet
739 19 m 0
 739 0 725 0 720 0 c 0
 709 0 702 3 615 3 c 0
 578 3 539 0 504 0 c 0
 491 0 488 10 488 14 c 0
 488 33 500 33 515 33 c 0
 576 34 577 56 575 76 c 2
 560 231 l 1
 307 231 l 1
 285 194 285 192 257 147 c 0
 241 120 217 80 217 64 c 0
 217 43 233 35 254 33 c 0
 260 33 272 32 272 19 c 0
 272 0 257 0 252 0 c 0
 247 0 224 3 160 3 c 0
 93 3 86 0 78 0 c 0
 72 0 64 4 64 14 c 0
 64 31 74 32 86 33 c 0
 118 36 157 46 200 118 c 2
 543 693 l 2
 554 711 562 714 576 714 c 0
 594 714 597 709 599 687 c 2
 659 66 l 2
 661 42 662 33 711 33 c 0
 727 33 739 33 739 19 c 0
557 264 m 1
 525 594 l 1
 327 264 l 1
 557 264 l 1
722 753 m 2x10
 731 746 718 730 708 735 c 2
 596 790 l 1
 456 735 l 2
 443 730 438 746 449 753 c 2
 605 851 l 2
 608 853 613 853 617 851 c 2
 722 753 l 2x10
837 989 m 0
 833 970 817 955 798 947 c 0
 755 928 726 907 719 880 c 2
 715 862 l 2
 713 856 708 853 703 853 c 2
 700 853 l 2
 695 854 691 859 691 865 c 2
 691 868 l 1
 696 886 l 2
 704 919 731 947 766 969 c 0
 775 975 782 984 785 995 c 0
 787 1002 788 1008 788 1013 c 0
 788 1018 787 1022 785 1024 c 0
 779 1031 767 1034 748 1034 c 2
 747 1034 l 2
 725 1034 704 1027 689 1016 c 1
 696 1012 700 1005 700 996 c 2
 700 996 700 991 699 989 c 0
 695 974 682 965 669 965 c 0
 656 965 645 973 645 987 c 0
 645 990 645 992 646 995 c 2
 648 1002 l 2
 662 1037 706 1058 749 1058 c 0
 777 1058 800 1055 819 1042 c 0
 832 1033 839 1018 839 1002 c 0
 839 998 838 993 837 989 c 0
EndSplineSet
Position2: "'cpsp' Capital Spacing lookup 0 subtable" dx=7 dy=0 dh=14 dv=0
EndChar

StartChar: acircumflexhookabove
Encoding: 7849 7849 152
Width: 549
Flags: MW
HStem: -10 28<214.5 264.5 442 469.5> 413 28<328 363 283 373.5> 820 20G<549.5 585>
VStem: 103 73<102 132.5 89 221.5>
LayerCount: 2
Fore
SplineSet
565 143 m 1
 565 143 552 83 531 43 c 0
 514 12 490 -10 454 -10 c 0
 406 -10 373 21 364 58 c 1
 343 34 294 -10 235 -10 c 0
 160 -10 103 54 103 150 c 0
 103 293 224 441 342 441 c 0
 384 441 413 420 434 385 c 1
 439 413 461 422 475 422 c 0
 492 422 505 410 505 394 c 0
 505 389 502 378 501 373 c 2
 431 91 l 2
 428 79 428 69 428 62 c 0
 428 50 428 18 456 18 c 0
 483 18 504 51 523 128 c 0
 529 153 529 156 546 156 c 0
 551 156 565 156 565 143 c 1
371 133 m 2
 413 304 l 1
 416 318 l 2
 416 328 405 413 342 413 c 0
 314 413 270 393 230 320 c 0
 205 274 176 156 176 109 c 0
 176 69 191 18 238 18 c 0
 297 18 363 98 371 133 c 2
544 535 m 2x20
 553 528 540 512 530 517 c 2
 418 572 l 1
 278 517 l 2
 265 512 260 528 271 535 c 2
 427 633 l 2
 430 635 435 635 439 633 c 2
 544 535 l 2x20
659 771 m 0
 655 752 639 737 620 729 c 0
 577 710 548 689 541 662 c 2
 537 644 l 2
 535 638 530 635 525 635 c 2
 522 635 l 2
 517 636 513 641 513 647 c 2
 513 650 l 1
 518 668 l 2
 526 701 553 729 588 751 c 0
 597 757 604 766 607 777 c 0
 609 784 610 790 610 795 c 0
 610 800 609 804 607 806 c 0
 601 813 589 816 570 816 c 2
 569 816 l 2
 547 816 526 809 511 798 c 1
 518 794 522 787 522 778 c 2
 522 778 522 773 521 771 c 0
 517 756 504 747 491 747 c 0
 478 747 467 755 467 769 c 0
 467 772 467 774 468 777 c 2
 470 784 l 2
 484 819 528 840 571 840 c 0
 599 840 622 837 641 824 c 0
 654 815 661 800 661 784 c 0
 661 780 660 775 659 771 c 0
EndSplineSet
EndChar

StartChar: Acircumflextilde
Encoding: 7850 7850 153
Width: 797
Flags: MW
HStem: 0 33<254 254.5 507.5 515 714.5 719> 231 33<327 557 327 560 307 557> 694 20G<569 585> 893 41<679.5 686.5> 960 41<582.5 588>
LayerCount: 2
Fore
SplineSet
739 19 m 0
 739 0 725 0 720 0 c 0
 709 0 702 3 615 3 c 0
 578 3 539 0 504 0 c 0
 491 0 488 10 488 14 c 0
 488 33 500 33 515 33 c 0
 576 34 577 56 575 76 c 2
 560 231 l 1
 307 231 l 1
 285 194 285 192 257 147 c 0
 241 120 217 80 217 64 c 0
 217 43 233 35 254 33 c 0
 260 33 272 32 272 19 c 0
 272 0 257 0 252 0 c 0
 247 0 224 3 160 3 c 0
 93 3 86 0 78 0 c 0
 72 0 64 4 64 14 c 0
 64 31 74 32 86 33 c 0
 118 36 157 46 200 118 c 2
 543 693 l 2
 554 711 562 714 576 714 c 0
 594 714 597 709 599 687 c 2
 659 66 l 2
 661 42 662 33 711 33 c 0
 727 33 739 33 739 19 c 0
557 264 m 1
 525 594 l 1
 327 264 l 1
 557 264 l 1
722 753 m 2x18
 731 746 718 730 708 735 c 2
 596 790 l 1
 456 735 l 2
 443 730 438 746 449 753 c 2
 605 851 l 2
 608 853 613 853 617 851 c 2
 722 753 l 2x18
808 987 m 0
 808 976 776 951 754 934 c 0
 738 920 702 893 671 893 c 0
 641 893 627 915 617 931 c 0
 600 957 594 960 582 960 c 0
 551 960 496 909 487 901 c 0
 482 896 479 893 473 893 c 0
 466 893 460 899 460 907 c 0
 460 918 493 944 513 960 c 0
 538 980 569 1001 596 1001 c 0
 626 1001 639 982 655 957 c 0
 668 937 674 934 685 934 c 0
 715 934 764 979 777 990 c 0
 786 999 790 1001 794 1001 c 0
 802 1001 808 995 808 987 c 0
EndSplineSet
Position2: "'cpsp' Capital Spacing lookup 0 subtable" dx=7 dy=0 dh=14 dv=0
EndChar

StartChar: acircumflextilde
Encoding: 7851 7851 154
Width: 549
Flags: MW
HStem: -10 28<214.5 264.5 442 469.5> 413 28<328 363 283 373.5> 675 41<501.5 508.5> 742 41<404.5 410>
VStem: 103 73<102 132.5 89 221.5>
LayerCount: 2
Fore
SplineSet
565 143 m 1
 565 143 552 83 531 43 c 0
 514 12 490 -10 454 -10 c 0
 406 -10 373 21 364 58 c 1
 343 34 294 -10 235 -10 c 0
 160 -10 103 54 103 150 c 0
 103 293 224 441 342 441 c 0
 384 441 413 420 434 385 c 1
 439 413 461 422 475 422 c 0
 492 422 505 410 505 394 c 0
 505 389 502 378 501 373 c 2
 431 91 l 2
 428 79 428 69 428 62 c 0
 428 50 428 18 456 18 c 0
 483 18 504 51 523 128 c 0
 529 153 529 156 546 156 c 0
 551 156 565 156 565 143 c 1
371 133 m 2
 413 304 l 1
 416 318 l 2
 416 328 405 413 342 413 c 0
 314 413 270 393 230 320 c 0
 205 274 176 156 176 109 c 0
 176 69 191 18 238 18 c 0
 297 18 363 98 371 133 c 2
544 535 m 2x30
 553 528 540 512 530 517 c 2
 418 572 l 1
 278 517 l 2
 265 512 260 528 271 535 c 2
 427 633 l 2
 430 635 435 635 439 633 c 2
 544 535 l 2x30
630 769 m 0
 630 758 598 733 576 716 c 0
 560 702 524 675 493 675 c 0
 463 675 449 697 439 713 c 0
 422 739 416 742 404 742 c 0
 373 742 318 691 309 683 c 0
 304 678 301 675 295 675 c 0
 288 675 282 681 282 689 c 0
 282 700 315 726 335 742 c 0
 360 762 391 783 418 783 c 0
 448 783 461 764 477 739 c 0
 490 719 496 716 507 716 c 0
 537 716 586 761 599 772 c 0
 608 781 612 783 616 783 c 0
 624 783 630 777 630 769 c 0
EndSplineSet
EndChar

StartChar: acute
Encoding: 180 180 155
Width: 549
Flags: MW
HStem: 501 21G<355.5 363> 676 20G<528 542>
LayerCount: 2
Fore
SplineSet
566 665 m 0
 566 656 564 644 544 630 c 2
 375 508 l 2
 368 503 365 501 361 501 c 0
 350 501 342 516 342 522 c 0
 342 529 350 537 353 540 c 2
 507 683 l 1
 507 683 521 696 535 696 c 0
 549 696 566 686 566 665 c 0
EndSplineSet
EndChar

StartChar: uni0301
Encoding: 769 769 156
Width: 0
Flags: MW
HStem: 501 21G<-193.5 -186> 676 20G<-21 -7>
LayerCount: 2
Fore
SplineSet
17 665 m 0
 17 656 15 644 -5 630 c 2
 -174 508 l 2
 -181 503 -184 501 -188 501 c 0
 -199 501 -207 516 -207 522 c 0
 -207 529 -199 537 -196 540 c 2
 -42 683 l 1
 -42 683 -28 696 -14 696 c 0
 0 696 17 686 17 665 c 0
EndSplineSet
EndChar

StartChar: Adblgrave
Encoding: 512 512 157
Width: 797
Flags: MW
HStem: 0 33<254 254.5 507.5 515 714.5 719> 231 33<327 557 327 560 307 557> 694 20G<569 585> 744 21G<493 495 658 660> 917 20G<469.5 490 634.5 655>
LayerCount: 2
Fore
SplineSet
739 19 m 0
 739 0 725 0 720 0 c 0
 709 0 702 3 615 3 c 0
 578 3 539 0 504 0 c 0
 491 0 488 10 488 14 c 0
 488 33 500 33 515 33 c 0
 576 34 577 56 575 76 c 2
 560 231 l 1
 307 231 l 1
 285 194 285 192 257 147 c 0
 241 120 217 80 217 64 c 0
 217 43 233 35 254 33 c 0
 260 33 272 32 272 19 c 0
 272 0 257 0 252 0 c 0
 247 0 224 3 160 3 c 0
 93 3 86 0 78 0 c 0
 72 0 64 4 64 14 c 0
 64 31 74 32 86 33 c 0
 118 36 157 46 200 118 c 2
 543 693 l 2
 554 711 562 714 576 714 c 0
 594 714 597 709 599 687 c 2
 659 66 l 2
 661 42 662 33 711 33 c 0
 727 33 739 33 739 19 c 0
557 264 m 1
 525 594 l 1
 327 264 l 1
 557 264 l 1
690 762 m 1x18
 684 749 660 744 660 744 c 2
 656 744 652 744 647 756 c 2
 598 876 l 2
 595 882 591 894 598 907 c 0
 604 920 624 937 645 937 c 0
 665 937 667 925 668 914 c 2
 691 779 l 2
 693 768 690 762 690 762 c 1x18
525 762 m 1
 519 749 495 744 495 744 c 2
 491 744 487 744 482 756 c 2
 433 876 l 2
 430 882 426 894 433 907 c 0
 439 920 459 937 480 937 c 0
 500 937 502 925 503 914 c 2
 526 779 l 2
 528 768 525 762 525 762 c 1
EndSplineSet
Position2: "'cpsp' Capital Spacing lookup 0 subtable" dx=7 dy=0 dh=14 dv=0
EndChar

StartChar: adblgrave
Encoding: 513 513 158
Width: 549
Flags: MW
HStem: -10 28<214.5 264.5 442 469.5> 413 28<328 363 283 373.5> 502 21G<336 338 501 503> 675 20G<311.5 332 476.5 497>
VStem: 103 73<102 132.5 89 221.5>
LayerCount: 2
Fore
SplineSet
565 143 m 1
 565 143 552 83 531 43 c 0
 514 12 490 -10 454 -10 c 0
 406 -10 373 21 364 58 c 1
 343 34 294 -10 235 -10 c 0
 160 -10 103 54 103 150 c 0
 103 293 224 441 342 441 c 0
 384 441 413 420 434 385 c 1
 439 413 461 422 475 422 c 0
 492 422 505 410 505 394 c 0
 505 389 502 378 501 373 c 2
 431 91 l 2
 428 79 428 69 428 62 c 0
 428 50 428 18 456 18 c 0
 483 18 504 51 523 128 c 0
 529 153 529 156 546 156 c 0
 551 156 565 156 565 143 c 1
371 133 m 2
 413 304 l 1
 416 318 l 2
 416 328 405 413 342 413 c 0
 314 413 270 393 230 320 c 0
 205 274 176 156 176 109 c 0
 176 69 191 18 238 18 c 0
 297 18 363 98 371 133 c 2
533 520 m 1x30
 526 507 503 502 503 502 c 2
 499 502 495 502 490 514 c 2
 441 634 l 2
 438 640 434 652 440 665 c 0
 447 678 466 695 487 695 c 0
 507 695 509 683 511 672 c 2
 533 537 l 2
 536 526 533 520 533 520 c 1x30
368 520 m 1
 361 507 338 502 338 502 c 2
 334 502 330 502 325 514 c 2
 276 634 l 2
 273 640 269 652 275 665 c 0
 282 678 301 695 322 695 c 0
 342 695 344 683 346 672 c 2
 368 537 l 2
 371 526 368 520 368 520 c 1
EndSplineSet
EndChar

StartChar: Adieresis
Encoding: 196 196 159
Width: 797
Flags: MW
HStem: 0 33<254 254.5 507.5 515 714.5 719> 231 33<327 557 327 560 307 557> 694 20G<569 585> 734 100<478.5 490 697.5 709>
LayerCount: 2
Fore
SplineSet
739 19 m 0
 739 0 725 0 720 0 c 0
 709 0 702 3 615 3 c 0
 578 3 539 0 504 0 c 0
 491 0 488 10 488 14 c 0
 488 33 500 33 515 33 c 0
 576 34 577 56 575 76 c 2
 560 231 l 1
 307 231 l 1
 285 194 285 192 257 147 c 0
 241 120 217 80 217 64 c 0
 217 43 233 35 254 33 c 0
 260 33 272 32 272 19 c 0
 272 0 257 0 252 0 c 0
 247 0 224 3 160 3 c 0
 93 3 86 0 78 0 c 0
 72 0 64 4 64 14 c 0
 64 31 74 32 86 33 c 0
 118 36 157 46 200 118 c 2
 543 693 l 2
 554 711 562 714 576 714 c 0
 594 714 597 709 599 687 c 2
 659 66 l 2
 661 42 662 33 711 33 c 0
 727 33 739 33 739 19 c 0
557 264 m 1
 525 594 l 1
 327 264 l 1
 557 264 l 1
536 793 m 0x10
 536 760 505 734 475 734 c 0
 454 734 434 749 434 776 c 0
 434 806 463 834 494 834 c 0
 510 834 536 824 536 793 c 0x10
755 793 m 0
 755 760 724 734 694 734 c 0
 673 734 653 749 653 776 c 0
 653 806 682 834 713 834 c 0
 729 834 755 824 755 793 c 0
EndSplineSet
Position2: "'cpsp' Capital Spacing lookup 0 subtable" dx=7 dy=0 dh=14 dv=0
EndChar

StartChar: adieresis
Encoding: 228 228 160
Width: 549
Flags: MW
HStem: -10 28<214.5 264.5 442 469.5> 413 28<328 363 283 373.5> 549 100<325.5 337 510.5 522>
VStem: 103 73<102 132.5 89 221.5>
LayerCount: 2
Fore
SplineSet
565 143 m 1
 565 143 552 83 531 43 c 0
 514 12 490 -10 454 -10 c 0
 406 -10 373 21 364 58 c 1
 343 34 294 -10 235 -10 c 0
 160 -10 103 54 103 150 c 0
 103 293 224 441 342 441 c 0
 384 441 413 420 434 385 c 1
 439 413 461 422 475 422 c 0
 492 422 505 410 505 394 c 0
 505 389 502 378 501 373 c 2
 431 91 l 2
 428 79 428 69 428 62 c 0
 428 50 428 18 456 18 c 0
 483 18 504 51 523 128 c 0
 529 153 529 156 546 156 c 0
 551 156 565 156 565 143 c 1
371 133 m 2
 413 304 l 1
 416 318 l 2
 416 328 405 413 342 413 c 0
 314 413 270 393 230 320 c 0
 205 274 176 156 176 109 c 0
 176 69 191 18 238 18 c 0
 297 18 363 98 371 133 c 2
383 608 m 0x20
 383 575 352 549 322 549 c 0
 301 549 281 564 281 591 c 0
 281 621 310 649 341 649 c 0
 357 649 383 639 383 608 c 0x20
568 608 m 0
 568 575 537 549 507 549 c 0
 486 549 466 564 466 591 c 0
 466 621 495 649 526 649 c 0
 542 649 568 639 568 608 c 0
EndSplineSet
EndChar

StartChar: Adotbelow
Encoding: 7840 7840 161
Width: 797
Flags: MW
HStem: 0 33<254 254.5 507.5 515 714.5 719> 231 33<327 557 327 560 307 557> 694 20G<569 585>
LayerCount: 2
Fore
SplineSet
739 19 m 0
 739 0 725 0 720 0 c 0
 709 0 702 3 615 3 c 0
 578 3 539 0 504 0 c 0
 491 0 488 10 488 14 c 0
 488 33 500 33 515 33 c 0
 576 34 577 56 575 76 c 2
 560 231 l 1
 307 231 l 1
 285 194 285 192 257 147 c 0
 241 120 217 80 217 64 c 0
 217 43 233 35 254 33 c 0
 260 33 272 32 272 19 c 0
 272 0 257 0 252 0 c 0
 247 0 224 3 160 3 c 0
 93 3 86 0 78 0 c 0
 72 0 64 4 64 14 c 0
 64 31 74 32 86 33 c 0
 118 36 157 46 200 118 c 2
 543 693 l 2
 554 711 562 714 576 714 c 0
 594 714 597 709 599 687 c 2
 659 66 l 2
 661 42 662 33 711 33 c 0
 727 33 739 33 739 19 c 0
557 264 m 1
 525 594 l 1
 327 264 l 1
 557 264 l 1
419 -135 m 0
 419 -171 385 -200 352 -200 c 0
 329 -200 306 -184 306 -154 c 0
 306 -120 339 -89 373 -89 c 0
 391 -89 419 -100 419 -135 c 0
EndSplineSet
Position2: "'cpsp' Capital Spacing lookup 0 subtable" dx=7 dy=0 dh=14 dv=0
EndChar

StartChar: adotbelow
Encoding: 7841 7841 162
Width: 549
Flags: MW
HStem: -10 28<214.5 264.5 442 469.5> 413 28<328 363 283 373.5>
VStem: 103 73<102 132.5 89 221.5>
LayerCount: 2
Fore
SplineSet
565 143 m 1
 565 143 552 83 531 43 c 0
 514 12 490 -10 454 -10 c 0
 406 -10 373 21 364 58 c 1
 343 34 294 -10 235 -10 c 0
 160 -10 103 54 103 150 c 0
 103 293 224 441 342 441 c 0
 384 441 413 420 434 385 c 1
 439 413 461 422 475 422 c 0
 492 422 505 410 505 394 c 0
 505 389 502 378 501 373 c 2
 431 91 l 2
 428 79 428 69 428 62 c 0
 428 50 428 18 456 18 c 0
 483 18 504 51 523 128 c 0
 529 153 529 156 546 156 c 0
 551 156 565 156 565 143 c 1
371 133 m 2
 413 304 l 1
 416 318 l 2
 416 328 405 413 342 413 c 0
 314 413 270 393 230 320 c 0
 205 274 176 156 176 109 c 0
 176 69 191 18 238 18 c 0
 297 18 363 98 371 133 c 2
295 -135 m 0
 295 -171 261 -200 228 -200 c 0
 205 -200 182 -184 182 -154 c 0
 182 -120 215 -89 249 -89 c 0
 267 -89 295 -100 295 -135 c 0
EndSplineSet
EndChar

StartChar: AE
Encoding: 198 198 163
Width: 947
Flags: MW
HStem: 0 33<250.5 257.5 392.5 400 400 417.5 556 663 663 740> 312 33<381 516 361 524 603 687> 650 33<476.5 975 485 503 701.5 717 717 824>
LayerCount: 2
Fore
SplineSet
952 246 m 0
 952 241 949 233 947 229 c 2
 856 18 l 2
 848 1 847 0 825 0 c 2
 400 0 l 2
 385 0 371 0 371 14 c 0
 371 33 385 33 395 33 c 0
 440 33 447 37 456 72 c 2
 516 312 l 1
 361 312 l 1
 234 106 l 2
 229 98 218 80 218 63 c 0
 218 42 235 35 255 33 c 0
 260 33 272 32 272 19 c 0
 272 0 257 0 253 0 c 0
 248 0 225 3 161 3 c 0
 90 3 89 0 78 0 c 0
 73 0 64 4 64 14 c 0
 64 31 75 32 84 33 c 0
 126 37 160 50 202 119 c 2
 527 649 l 1
 520 650 507 650 503 650 c 2
 484 650 l 2
 469 650 456 650 456 664 c 0
 456 683 468 683 485 683 c 2
 975 683 l 2
 997 683 1005 683 1002 655 c 2
 982 480 l 2
 980 461 978 456 961 456 c 0
 958 456 943 456 943 470 c 2
 943 470 943 481 945 489 c 0
 947 508 949 533 949 551 c 0
 949 615 934 650 824 650 c 2
 717 650 l 2
 686 650 679 650 670 615 c 2
 603 345 l 1
 689 345 l 2
 769 345 789 364 809 441 c 0
 813 457 814 462 830 462 c 0
 834 462 849 462 849 448 c 0
 849 444 847 437 846 433 c 2
 792 216 l 2
 787 196 782 195 770 195 c 0
 767 195 751 195 751 209 c 2
 751 209 751 212 755 224 c 0
 755 228 762 253 762 271 c 0
 762 296 757 312 687 312 c 2
 594 312 l 1
 532 62 l 2
 529 49 529 46 528 35 c 1
 537 33 547 33 556 33 c 2
 663 33 l 2
 817 33 850 101 910 237 c 0
 919 258 919 260 933 260 c 0
 938 260 952 260 952 246 c 0
524 345 m 1
 589 606 l 2
 593 621 593 623 593 627 c 0
 593 635 593 646 565 646 c 1
 381 345 l 1
 524 345 l 1
EndSplineSet
Position2: "'cpsp' Capital Spacing lookup 0 subtable" dx=7 dy=0 dh=14 dv=0
EndChar

StartChar: ae
Encoding: 230 230 164
Width: 767
Flags: W
HStem: -9 28<213.957 286.391 503.878 612.785> 229 28<479 641.875> 413 28<312.879 393.841 591.839 697.34>
VStem: 115 72<61.2384 235.295> 721 44<301.764 397.682>
LayerCount: 2
Fore
SplineSet
408 111 m 1
 382 59 314 -9 245 -9 c 0
 157 -9 115 76 115 153 c 0
 115 270 208 442 352 442 c 0
 392 442 425 420 448 388 c 1
 453 410 459 441 490 441 c 0
 504 441 517 432 517 414 c 0
 517 406 514 399 512 391 c 1
 554 420 602 441 654 441 c 0
 709 441 765 412 765 354 c 0
 765 234 606 229 512 229 c 2
 471 229 l 1
 469 214 465 200 463 185 c 2
 460 142 l 2
 460 90 481 19 548 19 c 2
 551 19 l 2
 614 19 670 60 707 102 c 0
 712 109 719 122 728 122 c 0
 738 122 749 109 749 102 c 0
 749 98 746 93 744 90 c 0
 707 30 621 -9 552 -9 c 0
 522 -9 491 -1 466 18 c 0
 430 42 423 78 408 111 c 1
431 320 m 0
 431 322 432 325 432 327 c 0
 432 369 398 411 356 413 c 2
 353 413 l 2
 331 413 310 401 293 388 c 0
 242 348 221 284 206 224 c 0
 197 187 187 150 187 113 c 0
 187 74 202 21 245 19 c 0
 295 19 392 102 404 196 c 0
 408 238 427 279 431 320 c 0
479 257 m 1
 520 257 l 2
 577 257 721 260 721 354 c 0
 721 391 688 413 653 413 c 0
 562 413 504 331 479 257 c 1
EndSplineSet
EndChar

StartChar: AEacute
Encoding: 508 508 165
Width: 947
Flags: MW
HStem: 0 33<250.5 257.5 392.5 400 400 417.5 556 663 663 740> 312 33<381 516 361 524 603 687> 650 33<476.5 975 485 503 701.5 717 717 824> 744 21G<607 609> 887 20G<801.5 818.5>
LayerCount: 2
Fore
SplineSet
952 246 m 0
 952 241 949 233 947 229 c 2
 856 18 l 2
 848 1 847 0 825 0 c 2
 400 0 l 2
 385 0 371 0 371 14 c 0
 371 33 385 33 395 33 c 0
 440 33 447 37 456 72 c 2
 516 312 l 1
 361 312 l 1
 234 106 l 2
 229 98 218 80 218 63 c 0
 218 42 235 35 255 33 c 0
 260 33 272 32 272 19 c 0
 272 0 257 0 253 0 c 0
 248 0 225 3 161 3 c 0
 90 3 89 0 78 0 c 0
 73 0 64 4 64 14 c 0
 64 31 75 32 84 33 c 0
 126 37 160 50 202 119 c 2
 527 649 l 1
 520 650 507 650 503 650 c 2
 484 650 l 2
 469 650 456 650 456 664 c 0
 456 683 468 683 485 683 c 2
 975 683 l 2
 997 683 1005 683 1002 655 c 2
 982 480 l 2
 980 461 978 456 961 456 c 0
 958 456 943 456 943 470 c 2
 943 470 943 481 945 489 c 0
 947 508 949 533 949 551 c 0
 949 615 934 650 824 650 c 2
 717 650 l 2
 686 650 679 650 670 615 c 2
 603 345 l 1
 689 345 l 2
 769 345 789 364 809 441 c 0
 813 457 814 462 830 462 c 0
 834 462 849 462 849 448 c 0
 849 444 847 437 846 433 c 2
 792 216 l 2
 787 196 782 195 770 195 c 0
 767 195 751 195 751 209 c 2
 751 209 751 212 755 224 c 0
 755 228 762 253 762 271 c 0
 762 296 757 312 687 312 c 2
 594 312 l 1
 532 62 l 2
 529 49 529 46 528 35 c 1
 537 33 547 33 556 33 c 2
 663 33 l 2
 817 33 850 101 910 237 c 0
 919 258 919 260 933 260 c 0
 938 260 952 260 952 246 c 0
524 345 m 1
 589 606 l 2
 593 621 593 623 593 627 c 0
 593 635 593 646 565 646 c 1
 381 345 l 1
 524 345 l 1
838 870 m 0x18
 836 861 832 850 810 840 c 2
 622 749 l 2
 615 745 611 744 607 744 c 0
 596 746 591 762 592 768 c 0
 593 775 603 782 606 784 c 2
 783 898 l 1
 783 898 795 907 808 907 c 0
 829 907 842 891 838 870 c 0x18
EndSplineSet
Position2: "'cpsp' Capital Spacing lookup 0 subtable" dx=7 dy=0 dh=14 dv=0
EndChar

StartChar: aeacute
Encoding: 509 509 166
Width: 768
Flags: MW
HStem: -10 28<243 260.5 520 570> 228 28<479 525 525 531 471 525> 413 28<630 670> 501 21G<465.5 473> 676 20G<638 652>
VStem: 97 78<67 124 49.5 127.5> 721 44<305 374.5>
LayerCount: 2
Fore
SplineSet
749 100 m 0
 749 85 668 -10 550 -10 c 0
 488 -10 450 25 429 60 c 1
 417 8 413 -10 384 -10 c 0
 367 -10 357 3 357 16 c 0
 357 19 364 48 365 52 c 1
 317 3 277 -10 244 -10 c 0
 170 -10 97 30 97 104 c 0
 97 151 134 227 199 281 c 0
 243 318 308 365 457 415 c 1
 466 441 487 441 490 441 c 0
 502 441 517 435 517 415 c 0
 517 409 514 396 512 390 c 1
 558 423 606 441 654 441 c 0
 717 441 765 407 765 354 c 0
 765 228 573 228 531 228 c 2
 471 228 l 1
 465 200 460 172 460 143 c 0
 460 75 489 18 551 18 c 0
 589 18 658 37 714 109 c 0
 721 119 722 121 729 121 c 0
 736 121 749 108 749 100 c 0
721 354 m 0
 721 395 687 413 653 413 c 0
 597 413 512 369 479 256 c 1
 525 256 l 2
 563 256 721 256 721 354 c 0
391 154 m 2
 448 382 l 1
 255 307 175 167 175 81 c 0
 175 18 240 18 246 18 c 0
 319 18 383 122 391 154 c 2
676 665 m 0x18
 676 656 674 644 654 630 c 2
 485 508 l 2
 478 503 475 501 471 501 c 0
 460 501 452 516 452 522 c 0
 452 529 460 537 463 540 c 2
 617 683 l 1
 617 683 631 696 645 696 c 0
 659 696 676 686 676 665 c 0x18
EndSplineSet
EndChar

StartChar: Agrave
Encoding: 192 192 167
Width: 797
Flags: MW
HStem: 0 33<254 254.5 507.5 515 714.5 719> 231 33<327 557 327 560 307 557> 694 20G<569 585> 744 21G<634 636> 887 20G<506 522.5>
LayerCount: 2
Fore
SplineSet
739 19 m 0
 739 0 725 0 720 0 c 0
 709 0 702 3 615 3 c 0
 578 3 539 0 504 0 c 0
 491 0 488 10 488 14 c 0
 488 33 500 33 515 33 c 0
 576 34 577 56 575 76 c 2
 560 231 l 1
 307 231 l 1
 285 194 285 192 257 147 c 0
 241 120 217 80 217 64 c 0
 217 43 233 35 254 33 c 0
 260 33 272 32 272 19 c 0
 272 0 257 0 252 0 c 0
 247 0 224 3 160 3 c 0
 93 3 86 0 78 0 c 0
 72 0 64 4 64 14 c 0
 64 31 74 32 86 33 c 0
 118 36 157 46 200 118 c 2
 543 693 l 2
 554 711 562 714 576 714 c 0
 594 714 597 709 599 687 c 2
 659 66 l 2
 661 42 662 33 711 33 c 0
 727 33 739 33 739 19 c 0
557 264 m 1
 525 594 l 1
 327 264 l 1
 557 264 l 1
663 768 m 0x18
 661 762 648 746 636 744 c 0
 632 744 629 745 624 749 c 2
 481 840 l 2
 464 850 466 861 468 870 c 0
 475 891 496 907 516 907 c 0
 529 907 537 898 537 898 c 1
 657 784 l 2
 659 782 666 775 663 768 c 0x18
EndSplineSet
Position2: "'cpsp' Capital Spacing lookup 0 subtable" dx=7 dy=0 dh=14 dv=0
EndChar

StartChar: agrave
Encoding: 224 224 168
Width: 549
Flags: MW
HStem: -10 28<214.5 264.5 442 469.5> 413 28<328 363 283 373.5> 501 21G<436 443.5> 676 20G<355 369>
VStem: 103 73<102 132.5 89 221.5>
LayerCount: 2
Fore
SplineSet
565 143 m 1
 565 143 552 83 531 43 c 0
 514 12 490 -10 454 -10 c 0
 406 -10 373 21 364 58 c 1
 343 34 294 -10 235 -10 c 0
 160 -10 103 54 103 150 c 0
 103 293 224 441 342 441 c 0
 384 441 413 420 434 385 c 1
 439 413 461 422 475 422 c 0
 492 422 505 410 505 394 c 0
 505 389 502 378 501 373 c 2
 431 91 l 2
 428 79 428 69 428 62 c 0
 428 50 428 18 456 18 c 0
 483 18 504 51 523 128 c 0
 529 153 529 156 546 156 c 0
 551 156 565 156 565 143 c 1
371 133 m 2
 413 304 l 1
 416 318 l 2
 416 328 405 413 342 413 c 0
 314 413 270 393 230 320 c 0
 205 274 176 156 176 109 c 0
 176 69 191 18 238 18 c 0
 297 18 363 98 371 133 c 2
468 522 m 0x30
 465 516 449 501 438 501 c 0
 434 501 432 503 428 508 c 2
 320 630 l 2
 307 644 311 656 315 665 c 0
 326 686 348 696 362 696 c 0
 376 696 383 683 383 683 c 1
 466 540 l 2
 467 537 471 529 468 522 c 0x30
EndSplineSet
EndChar

StartChar: Ahookabove
Encoding: 7842 7842 169
Width: 797
Flags: MW
HStem: 0 33<254 254.5 507.5 515 714.5 719> 231 33<327 557 327 560 307 557> 694 20G<569 585> 755 21G<580 583 580 580> 940 20G<607.5 643>
LayerCount: 2
Fore
SplineSet
739 19 m 0
 739 0 725 0 720 0 c 0
 709 0 702 3 615 3 c 0
 578 3 539 0 504 0 c 0
 491 0 488 10 488 14 c 0
 488 33 500 33 515 33 c 0
 576 34 577 56 575 76 c 2
 560 231 l 1
 307 231 l 1
 285 194 285 192 257 147 c 0
 241 120 217 80 217 64 c 0
 217 43 233 35 254 33 c 0
 260 33 272 32 272 19 c 0
 272 0 257 0 252 0 c 0
 247 0 224 3 160 3 c 0
 93 3 86 0 78 0 c 0
 72 0 64 4 64 14 c 0
 64 31 74 32 86 33 c 0
 118 36 157 46 200 118 c 2
 543 693 l 2
 554 711 562 714 576 714 c 0
 594 714 597 709 599 687 c 2
 659 66 l 2
 661 42 662 33 711 33 c 0
 727 33 739 33 739 19 c 0
557 264 m 1
 525 594 l 1
 327 264 l 1
 557 264 l 1
717 891 m 0x18
 713 872 697 857 678 849 c 0
 635 830 606 809 599 782 c 2
 595 764 l 2
 593 758 588 755 583 755 c 2
 580 755 l 2
 575 756 571 761 571 767 c 2
 571 770 l 1
 576 788 l 2
 584 821 611 849 646 871 c 0
 655 877 662 886 665 897 c 0
 667 904 668 910 668 915 c 0
 668 920 667 924 665 926 c 0
 659 933 647 936 628 936 c 2
 627 936 l 2
 605 936 584 929 569 918 c 1
 576 914 580 907 580 898 c 2
 580 898 580 893 579 891 c 0
 575 876 562 867 549 867 c 0
 536 867 525 875 525 889 c 0
 525 892 525 894 526 897 c 2
 528 904 l 2
 542 939 586 960 629 960 c 0
 657 960 680 957 699 944 c 0
 712 935 719 920 719 904 c 0
 719 900 718 895 717 891 c 0x18
EndSplineSet
Position2: "'cpsp' Capital Spacing lookup 0 subtable" dx=7 dy=0 dh=14 dv=0
EndChar

StartChar: ahookabove
Encoding: 7843 7843 170
Width: 549
Flags: MW
HStem: -10 28<214.5 264.5 442 469.5> 413 28<328 363 283 373.5> 496 21G<392 395 392 392> 681 20G<419.5 455>
VStem: 103 73<102 132.5 89 221.5>
LayerCount: 2
Fore
SplineSet
565 143 m 1
 565 143 552 83 531 43 c 0
 514 12 490 -10 454 -10 c 0
 406 -10 373 21 364 58 c 1
 343 34 294 -10 235 -10 c 0
 160 -10 103 54 103 150 c 0
 103 293 224 441 342 441 c 0
 384 441 413 420 434 385 c 1
 439 413 461 422 475 422 c 0
 492 422 505 410 505 394 c 0
 505 389 502 378 501 373 c 2
 431 91 l 2
 428 79 428 69 428 62 c 0
 428 50 428 18 456 18 c 0
 483 18 504 51 523 128 c 0
 529 153 529 156 546 156 c 0
 551 156 565 156 565 143 c 1
371 133 m 2
 413 304 l 1
 416 318 l 2
 416 328 405 413 342 413 c 0
 314 413 270 393 230 320 c 0
 205 274 176 156 176 109 c 0
 176 69 191 18 238 18 c 0
 297 18 363 98 371 133 c 2
529 632 m 0x30
 525 613 509 598 490 590 c 0
 447 571 418 550 411 523 c 2
 407 505 l 2
 405 499 400 496 395 496 c 2
 392 496 l 2
 387 497 383 502 383 508 c 2
 383 511 l 1
 388 529 l 2
 396 562 423 590 458 612 c 0
 467 618 474 627 477 638 c 0
 479 645 480 651 480 656 c 0
 480 661 479 665 477 667 c 0
 471 674 459 677 440 677 c 2
 439 677 l 2
 417 677 396 670 381 659 c 1
 388 655 392 648 392 639 c 2
 392 639 392 634 391 632 c 0
 387 617 374 608 361 608 c 0
 348 608 337 616 337 630 c 0
 337 633 337 635 338 638 c 2
 340 645 l 2
 354 680 398 701 441 701 c 0
 469 701 492 698 511 685 c 0
 524 676 531 661 531 645 c 0
 531 641 530 636 529 632 c 0x30
EndSplineSet
EndChar

StartChar: Alpha
Encoding: 913 913 171
Width: 797
Flags: MW
HStem: 0 33<254 254.5 507.5 515 714.5 719> 231 33<327 557 327 560 307 557> 694 20G<569 585>
LayerCount: 2
Fore
SplineSet
739 19 m 0
 739 0 725 0 720 0 c 0
 709 0 702 3 615 3 c 0
 578 3 539 0 504 0 c 0
 491 0 488 10 488 14 c 0
 488 33 500 33 515 33 c 0
 576 34 577 56 575 76 c 2
 560 231 l 1
 307 231 l 1
 285 194 285 192 257 147 c 0
 241 120 217 80 217 64 c 0
 217 43 233 35 254 33 c 0
 260 33 272 32 272 19 c 0
 272 0 257 0 252 0 c 0
 247 0 224 3 160 3 c 0
 93 3 86 0 78 0 c 0
 72 0 64 4 64 14 c 0
 64 31 74 32 86 33 c 0
 118 36 157 46 200 118 c 2
 543 693 l 2
 554 711 562 714 576 714 c 0
 594 714 597 709 599 687 c 2
 659 66 l 2
 661 42 662 33 711 33 c 0
 727 33 739 33 739 19 c 0
557 264 m 1
 525 594 l 1
 327 264 l 1
 557 264 l 1
EndSplineSet
EndChar

StartChar: Amacron
Encoding: 256 256 172
Width: 797
Flags: MW
HStem: 0 33<254 254.5 507.5 515 714.5 719> 231 33<327 557 327 560 307 557> 694 20G<569 585> 754 36<433 741 443 739>
LayerCount: 2
Fore
SplineSet
739 19 m 0
 739 0 725 0 720 0 c 0
 709 0 702 3 615 3 c 0
 578 3 539 0 504 0 c 0
 491 0 488 10 488 14 c 0
 488 33 500 33 515 33 c 0
 576 34 577 56 575 76 c 2
 560 231 l 1
 307 231 l 1
 285 194 285 192 257 147 c 0
 241 120 217 80 217 64 c 0
 217 43 233 35 254 33 c 0
 260 33 272 32 272 19 c 0
 272 0 257 0 252 0 c 0
 247 0 224 3 160 3 c 0
 93 3 86 0 78 0 c 0
 72 0 64 4 64 14 c 0
 64 31 74 32 86 33 c 0
 118 36 157 46 200 118 c 2
 543 693 l 2
 554 711 562 714 576 714 c 0
 594 714 597 709 599 687 c 2
 659 66 l 2
 661 42 662 33 711 33 c 0
 727 33 739 33 739 19 c 0
557 264 m 1
 525 594 l 1
 327 264 l 1
 557 264 l 1
770 776 m 0x10
 770 754 757 754 739 754 c 2
 441 754 l 2
 425 754 413 754 413 768 c 0
 413 790 425 790 443 790 c 2
 741 790 l 2
 756 790 770 790 770 776 c 0x10
EndSplineSet
Position2: "'cpsp' Capital Spacing lookup 0 subtable" dx=7 dy=0 dh=14 dv=0
EndChar

StartChar: amacron
Encoding: 257 257 173
Width: 549
Flags: MW
HStem: -10 28<214.5 264.5 442 469.5> 413 28<328 363 283 373.5> 581 36<266 574 276 572>
VStem: 103 73<102 132.5 89 221.5>
LayerCount: 2
Fore
SplineSet
565 143 m 1
 565 143 552 83 531 43 c 0
 514 12 490 -10 454 -10 c 0
 406 -10 373 21 364 58 c 1
 343 34 294 -10 235 -10 c 0
 160 -10 103 54 103 150 c 0
 103 293 224 441 342 441 c 0
 384 441 413 420 434 385 c 1
 439 413 461 422 475 422 c 0
 492 422 505 410 505 394 c 0
 505 389 502 378 501 373 c 2
 431 91 l 2
 428 79 428 69 428 62 c 0
 428 50 428 18 456 18 c 0
 483 18 504 51 523 128 c 0
 529 153 529 156 546 156 c 0
 551 156 565 156 565 143 c 1
371 133 m 2
 413 304 l 1
 416 318 l 2
 416 328 405 413 342 413 c 0
 314 413 270 393 230 320 c 0
 205 274 176 156 176 109 c 0
 176 69 191 18 238 18 c 0
 297 18 363 98 371 133 c 2
603 603 m 0x20
 603 581 590 581 572 581 c 2
 274 581 l 2
 258 581 246 581 246 595 c 0
 246 617 258 617 276 617 c 2
 574 617 l 2
 589 617 603 617 603 603 c 0x20
EndSplineSet
EndChar

StartChar: anglearc
Encoding: 8738 8738 174
Width: 823
Flags: MW
HStem: -79 21G<462 472> 559 20G<626.5 636.5>
LayerCount: 2
Fore
SplineSet
859 477 m 0
 856 467 848 459 838 455 c 2
 695 407 l 1
 699 357 694 304 681 250 c 0
 667 196 646 143 617 93 c 1
 736 45 l 2
 744 41 748 33 745 23 c 0
 741 7 722 -4 709 1 c 2
 590 50 l 1
 561 7 527 -33 489 -70 c 0
 483 -76 476 -79 468 -79 c 0
 456 -79 448 -69 451 -56 c 0
 453 -51 456 -46 460 -42 c 0
 494 -9 525 28 551 66 c 1
 154 228 l 2
 146 232 142 240 145 250 c 0
 147 260 155 268 165 272 c 2
 643 434 l 1
 636 472 624 509 606 542 c 0
 603 546 603 551 604 556 c 0
 607 569 620 579 633 579 c 0
 640 579 646 576 649 570 c 0
 669 533 683 493 690 450 c 1
 833 499 l 2
 849 504 863 493 859 477 c 0
635 250 m 0
 647 298 651 346 648 391 c 1
 234 250 l 1
 578 109 l 1
 603 154 622 202 635 250 c 0
EndSplineSet
EndChar

StartChar: angleleft
Encoding: 9001 9001 175
Width: 439
Flags: MW
HStem: -249 21G<264 283.5> 731 20G<515 521.5>
LayerCount: 2
Fore
SplineSet
536 728 m 0
 536 711 518 691 508 675 c 2
 265 279 l 2
 259 268 250 257 245 245 c 1
 245 241 l 2
 245 235 246 229 247 223 c 0
 266 90 277 -46 293 -180 c 2
 295 -194 l 2
 296 -202 298 -212 298 -221 c 0
 298 -235 293 -249 274 -249 c 0
 254 -249 253 -230 251 -216 c 2
 248 -187 l 1
 205 187 l 1
 199 232 l 2
 199 238 197 244 197 250 c 0
 197 264 210 279 217 290 c 2
 474 707 l 1
 489 732 l 2
 494 740 499 748 509 750 c 0
 511 751 515 751 515 751 c 2
 528 751 536 740 536 728 c 0
EndSplineSet
EndChar

StartChar: angleright
Encoding: 9002 9002 176
Width: 439
Flags: MW
HStem: -249 21G<41 48 48 49> 730 20G<275.5 282> 731 20G<288 297.5>
LayerCount: 2
Fore
SplineSet
365 252 m 0x20
 365 238 352 223 345 212 c 2
 87 -208 l 2
 77 -222 69 -247 49 -249 c 2
 48 -249 l 2
 34 -249 26 -238 26 -226 c 0
 26 -211 44 -188 55 -171 c 2
 297 223 l 2
 303 234 312 245 317 257 c 1
 317 262 l 2
 317 269 316 276 315 282 c 2
 268 686 l 1
 267 700 l 2
 266 708 264 717 264 725 c 0
 264 734 269 750 282 750 c 0xc0
 284 751 288 751 288 751 c 2
 307 751 309 733 311 719 c 2
 357 319 l 2
 360 297 365 272 365 252 c 0x20
EndSplineSet
EndChar

StartChar: Aogonek
Encoding: 260 260 177
Width: 797
Flags: MW
HStem: -211 47<594 603> 0 33<254 254.5 507.5 515 715 719> 231 33<327 557 327 560 307 557>
VStem: 64 208<9.5 22.5> 488 251<12 23.5>
LayerCount: 2
Fore
SplineSet
717 -115 m 0
 689 -172 628 -211 578 -211 c 0
 514 -211 477 -167 487 -121 c 0
 498 -69 543 -30 597 3 c 1
 566 2 533 0 504 0 c 0
 491 0 488 10 488 14 c 0
 488 33 500 33 515 33 c 0
 576 34 577 56 575 76 c 2
 560 231 l 1
 307 231 l 1
 285 194 285 192 257 147 c 0
 241 120 217 80 217 64 c 0
 217 43 233 35 254 33 c 0
 260 33 272 32 272 19 c 0
 272 0 257 0 252 0 c 0
 247 0 224 3 160 3 c 0
 93 3 86 0 78 0 c 0
 72 0 64 4 64 14 c 0
 64 31 74 32 86 33 c 0
 118 36 157 46 200 118 c 2
 543 693 l 2
 554 711 562 714 576 714 c 0
 594 714 597 709 599 687 c 2
 659 66 l 2
 661 42 662 33 711 33 c 0
 727 33 739 33 739 19 c 0
 739 0 725 0 720 0 c 0
 710 0 703 2 636 3 c 1
 596 -21 549 -55 540 -95 c 0
 530 -141 576 -164 612 -164 c 0
 644 -164 677 -144 701 -108 c 0
 708 -98 722 -103 717 -115 c 0
557 264 m 1
 525 594 l 1
 327 264 l 1
 557 264 l 1
EndSplineSet
Position2: "'cpsp' Capital Spacing lookup 0 subtable" dx=7 dy=0 dh=14 dv=0
EndChar

StartChar: aogonek
Encoding: 261 261 178
Width: 549
Flags: MW
HStem: -211 47<384 393> -10 28<214.5 264.5 447.5 469.5> 413 28<328 363 283 373.5>
VStem: 103 73<102 132.5 89 221.5> 416 89<318 402>
LayerCount: 2
Fore
SplineSet
507 -115 m 0
 479 -172 418 -211 368 -211 c 0
 304 -211 267 -167 277 -121 c 0
 288 -69 342 -23 396 10 c 1
 380 23 369 39 364 58 c 1
 343 34 294 -10 235 -10 c 0
 160 -10 103 54 103 150 c 0
 103 293 224 441 342 441 c 0
 384 441 413 420 434 385 c 1
 439 413 461 422 475 422 c 0
 492 422 505 410 505 394 c 0
 505 389 502 378 501 373 c 2
 431 91 l 2
 428 79 428 69 428 62 c 0
 428 50 428 18 456 18 c 0
 483 18 504 51 523 128 c 0
 529 153 529 156 546 156 c 0
 551 156 565 156 565 143 c 1
 565 143 552 83 531 43 c 0
 514 12 490 -10 454 -10 c 0
 441 -10 429 -6 418 -2 c 1
 378 -26 339 -55 330 -95 c 0
 320 -141 366 -164 402 -164 c 0
 434 -164 467 -144 491 -108 c 0
 498 -98 512 -103 507 -115 c 0
371 133 m 2
 413 304 l 1
 416 318 l 2
 416 328 405 413 342 413 c 0
 314 413 270 393 230 320 c 0
 205 274 176 156 176 109 c 0
 176 69 191 18 238 18 c 0
 297 18 363 98 371 133 c 2
EndSplineSet
EndChar

StartChar: Aring
Encoding: 197 197 179
Width: 797
Flags: MW
HStem: 0 33<254 254.5 507.5 515 714.5 719> 231 33<327 557 327 560 307 557> 714 35<573 608.5 573 585> 855 35<588.5 622.5>
VStem: 496 43<767 799.5 767 811> 659 43<821 837>
LayerCount: 2
Fore
SplineSet
739 19 m 0
 739 0 725 0 720 0 c 0
 709 0 702 3 615 3 c 0
 578 3 539 0 504 0 c 0
 491 0 488 10 488 14 c 0
 488 33 500 33 515 33 c 0
 576 34 577 56 575 76 c 2
 560 231 l 1
 307 231 l 1
 285 194 285 192 257 147 c 0
 241 120 217 80 217 64 c 0
 217 43 233 35 254 33 c 0
 260 33 272 32 272 19 c 0
 272 0 257 0 252 0 c 0
 247 0 224 3 160 3 c 0
 93 3 86 0 78 0 c 0
 72 0 64 4 64 14 c 0
 64 31 74 32 86 33 c 0
 118 36 157 46 200 118 c 2
 543 693 l 2
 554 711 562 714 576 714 c 0
 594 714 597 709 599 687 c 2
 659 66 l 2
 661 42 662 33 711 33 c 0
 727 33 739 33 739 19 c 0
557 264 m 1
 525 594 l 1
 327 264 l 1
 557 264 l 1
659 823 m 0x3c
 659 851 634 855 611 855 c 0
 560 855 539 818 539 781 c 0
 539 753 561 749 585 749 c 0
 662 749 659 819 659 823 c 0x3c
702 821 m 0
 702 765 640 714 577 714 c 0
 537 714 496 735 496 784 c 0
 496 838 556 890 621 890 c 0
 666 890 702 863 702 821 c 0
EndSplineSet
Position2: "'cpsp' Capital Spacing lookup 0 subtable" dx=7 dy=0 dh=14 dv=0
EndChar

StartChar: aring
Encoding: 229 229 180
Width: 549
Flags: MW
HStem: -10 28<214.5 264.5 442 469.5> 413 28<328 363 283 373.5> 527 35<402 437.5> 668 35<417.5 451.5>
VStem: 103 73<102 132.5 89 221.5> 325 43<580 612.5 580 624> 488 43<633.5 650>
LayerCount: 2
Fore
SplineSet
565 143 m 1
 565 143 552 83 531 43 c 0
 514 12 490 -10 454 -10 c 0
 406 -10 373 21 364 58 c 1
 343 34 294 -10 235 -10 c 0
 160 -10 103 54 103 150 c 0
 103 293 224 441 342 441 c 0
 384 441 413 420 434 385 c 1
 439 413 461 422 475 422 c 0
 492 422 505 410 505 394 c 0
 505 389 502 378 501 373 c 2
 431 91 l 2
 428 79 428 69 428 62 c 0
 428 50 428 18 456 18 c 0
 483 18 504 51 523 128 c 0
 529 153 529 156 546 156 c 0
 551 156 565 156 565 143 c 1
371 133 m 2
 413 304 l 1
 416 318 l 2
 416 328 405 413 342 413 c 0
 314 413 270 393 230 320 c 0
 205 274 176 156 176 109 c 0
 176 69 191 18 238 18 c 0
 297 18 363 98 371 133 c 2
488 636 m 0x36
 488 664 463 668 440 668 c 0
 389 668 368 631 368 594 c 0
 368 566 390 562 414 562 c 0
 491 562 488 631 488 636 c 0x36
531 634 m 0
 531 578 469 527 406 527 c 0
 366 527 325 548 325 597 c 0
 325 651 385 703 450 703 c 0
 495 703 531 676 531 634 c 0
EndSplineSet
EndChar

StartChar: Aringacute
Encoding: 506 506 181
Width: 797
Flags: MW
HStem: 0 33<254 254.5 507.5 515 714.5 719> 231 33<327 557 327 560 307 557> 714 35<573 608.5 573 585> 855 35<588.5 622.5> 1053 20G<731.5 748.5>
VStem: 496 43<767 799.5 767 811> 659 43<821 837>
LayerCount: 2
Fore
SplineSet
739 19 m 0
 739 0 725 0 720 0 c 0
 709 0 702 3 615 3 c 0
 578 3 539 0 504 0 c 0
 491 0 488 10 488 14 c 0
 488 33 500 33 515 33 c 0
 576 34 577 56 575 76 c 2
 560 231 l 1
 307 231 l 1
 285 194 285 192 257 147 c 0
 241 120 217 80 217 64 c 0
 217 43 233 35 254 33 c 0
 260 33 272 32 272 19 c 0
 272 0 257 0 252 0 c 0
 247 0 224 3 160 3 c 0
 93 3 86 0 78 0 c 0
 72 0 64 4 64 14 c 0
 64 31 74 32 86 33 c 0
 118 36 157 46 200 118 c 2
 543 693 l 2
 554 711 562 714 576 714 c 0
 594 714 597 709 599 687 c 2
 659 66 l 2
 661 42 662 33 711 33 c 0
 727 33 739 33 739 19 c 0
557 264 m 1
 525 594 l 1
 327 264 l 1
 557 264 l 1
659 823 m 0x3e
 659 851 634 855 611 855 c 0
 560 855 539 818 539 781 c 0
 539 753 561 749 585 749 c 0
 662 749 659 819 659 823 c 0x3e
702 821 m 0
 702 765 640 714 577 714 c 0
 537 714 496 735 496 784 c 0
 496 838 556 890 621 890 c 0
 666 890 702 863 702 821 c 0
768 1036 m 0
 766 1027 762 1016 740 1006 c 2
 552 915 l 2
 545 911 541 910 537 910 c 0
 526 912 521 928 522 934 c 0
 523 941 533 948 536 950 c 2
 713 1064 l 1
 713 1064 725 1073 738 1073 c 0
 759 1073 772 1057 768 1036 c 0
EndSplineSet
Position2: "'cpsp' Capital Spacing lookup 0 subtable" dx=7 dy=0 dh=14 dv=0
EndChar

StartChar: aringacute
Encoding: 507 507 182
Width: 549
Flags: MW
HStem: -10 28<214.5 264.5 442 469.5> 413 28<328 363 283 373.5> 527 35<403 438.5> 668 35<418.5 452.5> 866 20G<561.5 578.5>
VStem: 103 73<102 132.5 89 221.5> 326 43<580 612.5 580 624> 489 43<634 650>
LayerCount: 2
Fore
SplineSet
565 143 m 1
 565 143 552 83 531 43 c 0
 514 12 490 -10 454 -10 c 0
 406 -10 373 21 364 58 c 1
 343 34 294 -10 235 -10 c 0
 160 -10 103 54 103 150 c 0
 103 293 224 441 342 441 c 0
 384 441 413 420 434 385 c 1
 439 413 461 422 475 422 c 0
 492 422 505 410 505 394 c 0
 505 389 502 378 501 373 c 2
 431 91 l 2
 428 79 428 69 428 62 c 0
 428 50 428 18 456 18 c 0
 483 18 504 51 523 128 c 0
 529 153 529 156 546 156 c 0
 551 156 565 156 565 143 c 1
371 133 m 2
 413 304 l 1
 416 318 l 2
 416 328 405 413 342 413 c 0
 314 413 270 393 230 320 c 0
 205 274 176 156 176 109 c 0
 176 69 191 18 238 18 c 0
 297 18 363 98 371 133 c 2
489 636 m 0x3b
 489 664 464 668 441 668 c 0
 390 668 369 631 369 594 c 0
 369 566 391 562 415 562 c 0
 492 562 489 632 489 636 c 0x3b
532 634 m 0
 532 578 470 527 407 527 c 0
 367 527 326 548 326 597 c 0
 326 651 386 703 451 703 c 0
 496 703 532 676 532 634 c 0
598 849 m 0
 596 840 592 829 570 819 c 2
 382 728 l 2
 375 724 371 723 367 723 c 0
 356 725 351 741 352 747 c 0
 353 754 363 761 366 763 c 2
 543 877 l 1
 543 877 555 886 568 886 c 0
 589 886 602 870 598 849 c 0
EndSplineSet
EndChar

StartChar: uni2193
Encoding: 8595 8595 183
Width: 548
Flags: W
LayerCount: 2
Fore
SplineSet
522 61 m 2
 521 54 515 49 508 47 c 0
 391 22 285 -70 242 -182 c 0
 239 -189 232 -194 225 -194 c 0
 218 -194 213 -189 214 -182 c 0
 228 -70 167 22 63 47 c 0
 57 49 54 54 55 61 c 2
 60 78 l 2
 62 87 72 94 80 92 c 0
 155 74 213 25 240 -43 c 1
 419 672 l 2
 426 702 471 702 464 672 c 2
 285 -43 l 1
 347 25 429 74 513 92 c 0
 522 94 529 87 526 78 c 2
 522 61 l 2
EndSplineSet
EndChar

StartChar: uni2190
Encoding: 8592 8592 184
Width: 1042
Flags: MW
HStem: -14 21G<306 324.5> 228 46<273 991 256 993> 495 20G<428 443>
VStem: 293 46<21.5 22 2 65.5>
LayerCount: 2
Fore
SplineSet
1021 253 m 0
 1021 236 1005 228 991 228 c 2
 256 228 l 1
 314 170 339 102 339 22 c 2
 339 9 l 2
 339 -5 332 -14 317 -14 c 0
 295 -14 292 -6 292 7 c 0
 292 13 293 19 293 24 c 0
 293 107 254 183 181 225 c 1
 163 234 l 2
 154 237 145 240 145 251 c 2
 145 253 l 2
 147 266 167 269 177 273 c 0
 275 313 364 390 410 489 c 0
 417 502 418 515 438 515 c 0
 448 515 461 515 463 502 c 0
 463 493 456 482 453 474 c 0
 413 391 348 324 273 274 c 1
 993 274 l 2
 1005 274 1021 272 1021 253 c 0
EndSplineSet
EndChar

StartChar: uni2192
Encoding: 8594 8594 185
Width: 1042
Flags: MW
HStem: -13 21G<722 737> 228 46<166 909 173 892> 496 20G<840.5 858>
VStem: 826 46<480 480.5 437 493 437 500>
LayerCount: 2
Fore
SplineSet
1020 250 m 2
 1019 236 999 233 989 229 c 0
 891 189 801 113 755 13 c 0
 748 0 747 -13 727 -13 c 0
 717 -13 704 -13 702 0 c 0
 702 9 709 20 712 28 c 0
 752 111 817 178 892 228 c 1
 172 228 l 2
 160 228 144 230 144 249 c 0
 144 265 159 274 173 274 c 2
 909 274 l 1
 851 332 826 400 826 480 c 2
 826 493 l 2
 826 507 833 516 848 516 c 0
 868 516 873 509 873 495 c 0
 873 489 872 483 872 478 c 0
 872 396 911 320 983 278 c 0
 997 271 1020 265 1020 252 c 2
 1020 250 l 2
EndSplineSet
EndChar

StartChar: uni2191
Encoding: 8593 8593 186
Width: 548
Flags: W
LayerCount: 2
Fore
SplineSet
617 439 m 2
 612 422 l 2
 610 413 600 406 592 408 c 0
 517 426 459 475 432 543 c 1
 253 -172 l 2
 246 -202 201 -202 208 -172 c 2
 387 543 l 1
 325 475 243 426 159 408 c 0
 150 406 143 413 146 422 c 2
 150 439 l 2
 151 446 157 451 164 453 c 0
 281 478 387 570 430 682 c 0
 433 689 440 694 447 694 c 0
 454 694 459 689 458 682 c 0
 444 570 505 478 609 453 c 0
 615 451 618 446 617 439 c 2
EndSplineSet
EndChar

StartChar: asterisk.math
Encoding: 8727 8727 187
Width: 548
Flags: MW
HStem: 36 21G<275.5 296> 446 20G<375 395.5>
LayerCount: 2
Fore
SplineSet
495 165 m 0
 495 149 478 129 460 129 c 0
 451 129 445 134 438 140 c 2
 372 199 l 2
 363 208 353 217 343 224 c 1
 342 213 340 201 338 190 c 2
 321 86 l 2
 316 62 311 36 281 36 c 0
 270 36 259 44 259 56 c 0
 259 68 266 82 270 92 c 2
 314 224 l 1
 299 216 285 207 271 198 c 2
 193 150 l 2
 182 143 166 130 152 130 c 0
 137 130 130 140 130 150 c 0
 130 186 192 202 226 215 c 0
 252 228 281 243 306 250 c 1
 306 252 l 1
 279 264 250 283 222 299 c 2
 195 314 l 2
 185 320 176 324 176 337 c 0
 176 353 193 373 211 373 c 0
 220 373 226 368 233 362 c 2
 299 303 l 2
 308 294 318 285 328 278 c 1
 329 289 331 301 333 312 c 2
 350 416 l 2
 355 440 360 466 390 466 c 0
 401 466 412 458 412 446 c 0
 412 434 405 420 401 410 c 2
 357 278 l 1
 372 286 386 295 400 304 c 2
 478 352 l 2
 489 359 505 372 519 372 c 0
 534 372 541 362 541 352 c 0
 541 316 479 300 445 287 c 0
 419 274 390 259 365 252 c 1
 365 250 l 1
 392 238 421 219 449 203 c 2
 476 188 l 2
 486 182 495 178 495 165 c 0
EndSplineSet
EndChar

StartChar: Atilde
Encoding: 195 195 188
Width: 797
Flags: MW
HStem: 0 33<254 254.5 507.5 515 714.5 719> 231 33<327 557 327 560 307 557> 694 20G<569 585> 734 41<641.5 648.5> 801 41<544.5 550>
LayerCount: 2
Fore
SplineSet
739 19 m 0
 739 0 725 0 720 0 c 0
 709 0 702 3 615 3 c 0
 578 3 539 0 504 0 c 0
 491 0 488 10 488 14 c 0
 488 33 500 33 515 33 c 0
 576 34 577 56 575 76 c 2
 560 231 l 1
 307 231 l 1
 285 194 285 192 257 147 c 0
 241 120 217 80 217 64 c 0
 217 43 233 35 254 33 c 0
 260 33 272 32 272 19 c 0
 272 0 257 0 252 0 c 0
 247 0 224 3 160 3 c 0
 93 3 86 0 78 0 c 0
 72 0 64 4 64 14 c 0
 64 31 74 32 86 33 c 0
 118 36 157 46 200 118 c 2
 543 693 l 2
 554 711 562 714 576 714 c 0
 594 714 597 709 599 687 c 2
 659 66 l 2
 661 42 662 33 711 33 c 0
 727 33 739 33 739 19 c 0
557 264 m 1
 525 594 l 1
 327 264 l 1
 557 264 l 1
770 828 m 0x18
 770 817 738 792 716 775 c 0
 700 761 664 734 633 734 c 0
 603 734 589 756 579 772 c 0
 562 798 556 801 544 801 c 0
 513 801 458 750 449 742 c 0
 444 737 441 734 435 734 c 0
 428 734 422 740 422 748 c 0
 422 759 455 785 475 801 c 0
 500 821 531 842 558 842 c 0
 588 842 601 823 617 798 c 0
 630 778 636 775 647 775 c 0
 677 775 726 820 739 831 c 0
 748 840 752 842 756 842 c 0
 764 842 770 836 770 828 c 0x18
EndSplineSet
Position2: "'cpsp' Capital Spacing lookup 0 subtable" dx=7 dy=0 dh=14 dv=0
EndChar

StartChar: atilde
Encoding: 227 227 189
Width: 549
Flags: MW
HStem: -10 28<214.5 264.5 442 469.5> 413 28<328 363 283 373.5> 545 41<470.5 477.5> 612 41<373.5 379>
VStem: 103 73<102 132.5 89 221.5>
LayerCount: 2
Fore
SplineSet
565 143 m 1
 565 143 552 83 531 43 c 0
 514 12 490 -10 454 -10 c 0
 406 -10 373 21 364 58 c 1
 343 34 294 -10 235 -10 c 0
 160 -10 103 54 103 150 c 0
 103 293 224 441 342 441 c 0
 384 441 413 420 434 385 c 1
 439 413 461 422 475 422 c 0
 492 422 505 410 505 394 c 0
 505 389 502 378 501 373 c 2
 431 91 l 2
 428 79 428 69 428 62 c 0
 428 50 428 18 456 18 c 0
 483 18 504 51 523 128 c 0
 529 153 529 156 546 156 c 0
 551 156 565 156 565 143 c 1
371 133 m 2
 413 304 l 1
 416 318 l 2
 416 328 405 413 342 413 c 0
 314 413 270 393 230 320 c 0
 205 274 176 156 176 109 c 0
 176 69 191 18 238 18 c 0
 297 18 363 98 371 133 c 2
599 639 m 0x30
 599 628 567 603 545 586 c 0
 529 572 493 545 462 545 c 0
 432 545 418 567 408 583 c 0
 391 609 385 612 373 612 c 0
 342 612 287 561 278 553 c 0
 273 548 270 545 264 545 c 0
 257 545 251 551 251 559 c 0
 251 570 284 596 304 612 c 0
 329 632 360 653 387 653 c 0
 417 653 430 634 446 609 c 0
 459 589 465 586 476 586 c 0
 506 586 555 631 568 642 c 0
 577 651 581 653 585 653 c 0
 593 653 599 647 599 639 c 0x30
EndSplineSet
EndChar

StartChar: baht
Encoding: 3647 3647 190
Width: 755
Flags: MW
HStem: 0 33<100 106 106 141.5 283 353 394 428 428 451> 341 28<336 439 329 446 478 483 483 518 336 471> 650 33<270 283.5 428.5 444 444 516 270 548 556 580>
LayerCount: 2
Fore
SplineSet
721 217 m 0
 721 114 598 0 451 0 c 2
 385 0 l 1
 377 -32 l 2
 375 -41 366 -48 357 -48 c 0
 349 -48 343 -41 345 -32 c 2
 353 0 l 1
 106 0 l 2
 90 0 78 0 78 14 c 0
 78 33 89 33 111 33 c 0
 172 33 178 42 187 76 c 2
 321 613 l 2
 325 627 325 629 325 635 c 0
 325 650 297 650 270 650 c 0
 253 650 241 650 241 664 c 0
 241 683 253 683 270 683 c 2
 524 683 l 1
 532 715 l 2
 534 724 543 731 552 731 c 0
 561 731 566 724 564 715 c 2
 556 683 l 1
 594 683 l 2
 704 683 776 624 776 545 c 0
 776 452 675 377 572 357 c 1
 660 347 721 291 721 217 c 0
690 547 m 0
 690 559 688 650 580 650 c 2
 548 650 l 1
 478 369 l 1
 483 369 l 2
 605 369 690 466 690 547 c 0
446 369 m 1
 516 650 l 1
 444 650 l 2
 413 650 406 650 397 615 c 2
 336 369 l 1
 446 369 l 1
632 226 m 0
 632 241 627 341 518 341 c 2
 471 341 l 1
 394 33 l 1
 428 33 l 2
 540 33 632 127 632 226 c 0
362 33 m 1
 439 341 l 1
 329 341 l 1
 259 62 l 2
 256 49 256 46 255 35 c 1
 264 33 274 33 283 33 c 2
 362 33 l 1
EndSplineSet
EndChar

StartChar: Beta
Encoding: 914 914 191
Width: 755
Flags: MW
HStem: 0 33<100 106 106 141.5 283 428 428 451> 341 28<336 483 483 518 329 483> 650 33<270 283.5 428.5 444 444 580>
VStem: 632 89<176.5 233.5>
LayerCount: 2
Fore
SplineSet
721 217 m 0
 721 114 598 0 451 0 c 2
 106 0 l 2
 90 0 78 0 78 14 c 0
 78 33 89 33 111 33 c 0
 172 33 178 42 187 76 c 2
 321 613 l 2
 325 627 325 629 325 635 c 0
 325 650 297 650 270 650 c 0
 253 650 241 650 241 664 c 0
 241 683 253 683 270 683 c 2
 594 683 l 2
 704 683 776 624 776 545 c 0
 776 452 675 377 572 357 c 1
 660 347 721 291 721 217 c 0
690 547 m 0
 690 559 688 650 580 650 c 2
 444 650 l 2
 413 650 406 650 397 615 c 2
 336 369 l 1
 483 369 l 2
 605 369 690 466 690 547 c 0
632 226 m 0
 632 241 627 341 518 341 c 2
 329 341 l 1
 259 62 l 2
 256 49 256 46 255 35 c 1
 264 33 274 33 283 33 c 2
 428 33 l 2
 540 33 632 127 632 226 c 0
EndSplineSet
EndChar

StartChar: blanksymbol
Encoding: 9250 9250 192
Width: 494
Flags: MW
HStem: -10 28<224.5 266.5 224.5 305> 413 28<333.5 367> 650 45
VStem: 120 62<100.5 135.5 92 165> 413 73<294.5 335 206.5 355>
LayerCount: 2
Fore
SplineSet
486 281 m 0
 486 132 363 -10 247 -10 c 0
 172 -10 120 54 120 147 c 0
 120 183 129 220 130 223 c 2
 197 491 l 1
 127 436 l 2
 123 433 119 431 115 431 c 0
 106 431 101 438 103 447 c 0
 104 452 107 456 110 458 c 2
 209 536 l 1
 228 613 l 2
 229 619 232 630 232 635 c 0
 232 644 232 650 184 650 c 0
 170 650 158 650 158 664 c 0
 158 682 169 683 183 684 c 2
 287 693 l 2
 298 694 314 695 314 680 c 0
 314 676 312 669 311 665 c 2
 296 604 l 1
 364 658 l 2
 368 661 372 662 376 662 c 0
 385 662 391 655 388 646 c 0
 387 642 384 638 381 635 c 2
 284 559 l 1
 242 390 l 1
 270 414 308 441 354 441 c 0
 420 441 486 389 486 281 c 0
364 119 m 0
 384 161 413 268 413 321 c 0
 413 389 382 413 352 413 c 0
 315 413 282 383 270 373 c 0
 247 351 226 327 219 296 c 0
 193 198 182 155 182 116 c 0
 182 68 201 18 248 18 c 0
 285 18 332 53 364 119 c 0
EndSplineSet
EndChar

StartChar: breve
Encoding: 728 728 193
Width: 549
Flags: MW
HStem: 511 42<381 425.5 381 463.5> 666 20G<295.5 308 573 581.5>
LayerCount: 2
Fore
SplineSet
592 672 m 0
 592 637 522 511 405 511 c 0
 330 511 286 566 286 634 c 0
 286 642 286 686 305 686 c 0
 311 686 319 681 319 671 c 0
 319 668 315 654 315 641 c 0
 315 589 353 553 409 553 c 0
 442 553 530 572 564 673 c 0
 565 677 568 686 578 686 c 0
 585 686 592 680 592 672 c 0
EndSplineSet
EndChar

StartChar: uni032E
Encoding: 814 814 194
Width: 0
Flags: MW
HStem: -231 42<-353 -308.5 -353 -270.5> -76 20G<-438.5 -426 -161 -152.5>
LayerCount: 2
Fore
SplineSet
-142 -70 m 0
 -142 -105 -212 -231 -329 -231 c 0
 -404 -231 -448 -176 -448 -108 c 0
 -448 -100 -448 -56 -429 -56 c 0
 -423 -56 -415 -61 -415 -71 c 0
 -415 -74 -419 -88 -419 -101 c 0
 -419 -153 -381 -189 -325 -189 c 0
 -292 -189 -204 -170 -170 -69 c 0
 -169 -65 -166 -56 -156 -56 c 0
 -149 -56 -142 -62 -142 -70 c 0
EndSplineSet
EndChar

StartChar: uni032F
Encoding: 815 815 195
Width: 0
Flags: MW
HStem: -231 21G<-469.5 -461 -196 -183.5> -98 42<-313.5 -269>
LayerCount: 2
Fore
SplineSet
-174 -179 m 0
 -174 -187 -174 -231 -193 -231 c 0
 -199 -231 -207 -226 -207 -216 c 0
 -207 -213 -203 -199 -203 -186 c 0
 -203 -134 -241 -98 -297 -98 c 0
 -330 -98 -418 -117 -452 -218 c 0
 -453 -222 -456 -231 -466 -231 c 0
 -473 -231 -480 -225 -480 -217 c 0
 -480 -182 -410 -56 -293 -56 c 0
 -218 -56 -174 -111 -174 -179 c 0
EndSplineSet
EndChar

StartChar: uni0306
Encoding: 774 774 196
Width: 0
Flags: MW
HStem: 511 42<-168 -123.5 -168 -85.5> 666 20G<-253.5 -241 24 32.5>
LayerCount: 2
Fore
SplineSet
43 672 m 0
 43 637 -27 511 -144 511 c 0
 -219 511 -263 566 -263 634 c 0
 -263 642 -263 686 -244 686 c 0
 -238 686 -230 681 -230 671 c 0
 -230 668 -234 654 -234 641 c 0
 -234 589 -196 553 -140 553 c 0
 -107 553 -19 572 15 673 c 0
 16 677 19 686 29 686 c 0
 36 686 43 680 43 672 c 0
EndSplineSet
EndChar

StartChar: uni0311
Encoding: 785 785 197
Width: 0
Flags: MW
HStem: 511 21G<-283.5 -275 -10 2.5> 644 42<-127.5 -83>
LayerCount: 2
Fore
SplineSet
12 563 m 0
 12 555 12 511 -7 511 c 0
 -13 511 -21 516 -21 526 c 0
 -21 529 -17 543 -17 556 c 0
 -17 608 -55 644 -111 644 c 0
 -144 644 -232 625 -266 524 c 0
 -267 520 -270 511 -280 511 c 0
 -287 511 -294 517 -294 525 c 0
 -294 560 -224 686 -107 686 c 0
 -32 686 12 631 12 563 c 0
EndSplineSet
EndChar

StartChar: brokenbar
Encoding: 166 166 198
Width: 295
Flags: MW
HStem: 730 20G<323.5 346.5>
LayerCount: 2
Fore
SplineSet
349 714 m 2
 256 343 l 2
 253 332 240 327 229 327 c 0
 217 327 207 332 210 343 c 2
 303 714 l 2
 306 728 312 750 335 750 c 0
 358 750 352 728 349 714 c 2
117 -214 m 2
 113 -228 108 -250 85 -250 c 0
 62 -250 67 -228 71 -214 c 2
 163 157 l 2
 166 168 179 173 190 173 c 0
 202 173 212 168 209 157 c 2
 117 -214 l 2
EndSplineSet
EndChar

StartChar: bullet
Encoding: 8226 8226 199
Width: 823
Flags: MW
HStem: 72 304<453.5 482>
LayerCount: 2
Fore
SplineSet
622 253 m 0
 622 151 526 72 438 72 c 0
 373 72 312 113 312 195 c 0
 312 299 411 376 496 376 c 0
 559 376 622 335 622 253 c 0
EndSplineSet
EndChar

StartChar: Cacute
Encoding: 262 262 200
Width: 768
Flags: MW
HStem: -21 33<385.5 475.5 385.5 478.5> 671 33<559.5 626.5 486.5 654.5> 744 21G<556 558> 887 20G<750.5 767.5>
VStem: 156 88<167.5 249 145 368>
LayerCount: 2
Fore
SplineSet
794 437 m 2
 789 417 785 417 772 417 c 0
 766 417 753 417 753 430 c 0
 753 433 757 456 757 482 c 0
 757 585 707 671 602 671 c 0
 517 671 420 622 352 536 c 0
 268 428 244 280 244 218 c 0
 244 72 339 12 432 12 c 0
 519 12 655 74 707 243 c 0
 709 253 718 253 725 253 c 0
 734 253 744 253 744 240 c 0
 744 235 734 193 704 145 c 0
 645 52 536 -21 421 -21 c 0
 273 -21 156 83 156 252 c 0
 156 484 378 704 595 704 c 0
 658 704 717 682 760 617 c 1
 825 693 l 2
 834 704 839 704 843 704 c 0
 853 704 857 697 857 692 c 0
 857 689 855 681 854 678 c 2
 794 437 l 2
787 870 m 0x30
 785 861 781 850 759 840 c 2
 571 749 l 2
 564 745 560 744 556 744 c 0
 545 746 540 762 541 768 c 0
 542 775 552 782 555 784 c 2
 732 898 l 1
 732 898 744 907 757 907 c 0
 778 907 791 891 787 870 c 0x30
EndSplineSet
Position2: "'cpsp' Capital Spacing lookup 0 subtable" dx=7 dy=0 dh=14 dv=0
EndChar

